{"glyphs":{"0":{"ha":801,"x_min":54,"x_max":744,"o":"m 54 443 q 155 785 54 650 q 413 921 256 921 q 654 798 564 921 q 744 469 744 675 q 650 118 744 253 q 397 -17 556 -17 q 149 112 244 -17 q 54 443 54 240 m 324 808 q 248 658 274 760 q 222 461 222 556 q 278 196 222 304 q 422 88 333 88 q 474 97 449 88 q 551 247 526 147 q 575 450 575 346 q 525 709 575 603 q 379 815 475 815 q 324 808 350 815 z "},"1":{"ha":588,"x_min":28,"x_max":568,"o":"m 568 69 l 561 0 l 56 0 l 47 47 q 238 111 121 79 l 238 747 l 69 672 l 28 744 l 322 931 l 400 883 l 400 93 l 568 69 z "},"2":{"ha":782,"x_min":57,"x_max":711,"o":"m 711 249 q 669 0 699 104 l 661 3 l 661 0 l 83 0 l 57 101 l 368 446 q 493 686 493 590 q 458 783 493 742 q 349 824 422 824 q 239 808 304 824 l 199 608 l 96 610 q 79 789 79 689 l 81 840 l 79 842 q 379 931 229 931 q 583 857 500 931 q 665 675 665 783 q 622 529 665 600 q 476 349 578 458 l 251 113 l 257 101 l 558 128 l 625 265 l 711 249 z "},"3":{"ha":765,"x_min":75,"x_max":694,"o":"m 483 486 q 633 400 572 471 q 694 238 694 329 q 602 49 694 125 q 364 -26 510 -26 q 75 40 218 -26 l 114 199 q 442 100 292 100 l 476 101 q 526 224 526 153 q 470 344 526 294 q 313 394 414 394 l 221 390 l 217 493 l 239 493 q 421 551 361 497 q 481 678 481 606 q 433 788 481 744 q 304 831 386 831 l 240 824 l 201 650 l 101 651 q 86 794 86 731 l 89 853 q 364 931 201 931 q 569 865 489 931 q 650 701 650 800 q 608 576 650 633 q 483 486 565 518 z "},"4":{"ha":808,"x_min":29,"x_max":767,"o":"m 607 235 l 607 85 l 717 69 l 710 0 l 297 0 l 289 47 q 447 103 354 78 l 447 235 l 67 235 l 29 331 l 475 931 l 579 914 l 578 910 l 607 914 l 607 351 l 764 356 l 767 272 l 726 235 l 607 235 m 447 347 l 447 633 l 461 753 l 190 340 l 447 347 z "},"5":{"ha":772,"x_min":61,"x_max":704,"o":"m 378 549 q 611 470 518 549 q 704 265 704 392 q 614 54 704 138 q 383 -29 524 -29 q 219 -3 306 -29 q 61 69 132 24 l 122 218 q 454 97 286 97 l 489 99 q 551 232 551 158 q 487 368 551 322 q 325 414 422 414 q 178 386 251 414 l 107 451 l 154 903 l 635 903 l 635 901 l 658 903 l 660 858 q 642 660 660 750 l 540 658 l 519 786 l 276 797 l 251 528 q 378 549 294 549 z "},"6":{"ha":760,"x_min":53,"x_max":715,"o":"m 267 460 q 481 549 368 549 q 648 470 581 549 q 715 276 715 392 q 628 60 715 147 q 407 -28 540 -28 q 153 82 254 -28 q 53 364 53 192 q 114 621 53 494 q 306 831 175 747 q 635 919 438 915 l 636 750 l 413 768 q 272 614 322 725 q 221 376 221 503 q 282 152 221 239 q 457 74 343 65 q 551 250 551 128 q 515 379 551 325 q 419 433 479 433 q 299 388 364 433 l 267 460 z "},"7":{"ha":661,"x_min":33,"x_max":656,"o":"m 656 789 q 282 -21 440 436 l 121 29 q 507 775 288 453 l 497 788 l 174 775 l 156 647 l 50 649 q 33 847 33 728 l 35 903 l 601 903 l 656 789 z "},"8":{"ha":732,"x_min":54,"x_max":678,"o":"m 485 486 q 627 374 576 433 q 678 231 678 315 q 590 44 678 117 q 361 -29 501 -29 q 140 40 226 -29 q 54 214 54 108 q 239 457 54 368 q 78 689 78 550 q 160 860 78 793 q 371 928 242 928 q 569 867 492 928 q 647 713 647 807 q 485 486 647 576 m 275 819 q 231 713 231 767 q 274 615 231 654 q 403 532 318 576 q 506 697 506 604 q 465 798 506 757 q 361 839 425 839 q 275 819 322 839 m 481 83 q 519 199 519 150 q 475 307 519 258 q 332 408 431 356 q 251 326 279 376 q 222 222 222 275 q 264 110 222 156 q 381 65 306 65 q 481 83 426 65 z "},"9":{"ha":729,"x_min":40,"x_max":689,"o":"m 468 357 q 332 332 396 332 q 123 418 206 332 q 40 632 40 504 q 130 847 40 763 q 353 931 219 931 q 597 817 506 931 q 689 524 689 704 q 533 136 689 289 q 149 -12 378 -17 l 121 167 l 357 138 q 485 293 444 192 q 525 517 525 394 q 480 740 525 650 q 344 831 435 831 l 297 824 q 233 749 256 800 q 210 640 210 699 q 260 497 210 554 q 392 440 311 440 q 453 449 422 440 l 468 357 z "},"\u0000":{"ha":208,"x_min":0,"x_max":0,"o":""},"\r":{"ha":479,"x_min":0,"x_max":0,"o":""}," ":{"ha":368,"x_min":0,"x_max":0,"o":""}," ":{"ha":368,"x_min":0,"x_max":0,"o":""}," ":{"ha":694,"x_min":0,"x_max":0,"o":""}," ":{"ha":1319,"x_min":0,"x_max":0,"o":""}," ":{"ha":139,"x_min":0,"x_max":0,"o":""},"!":{"ha":436,"x_min":111,"x_max":326,"o":"m 114 911 q 222 939 154 939 q 324 908 296 939 l 271 311 l 164 311 l 114 911 m 213 200 q 326 86 310 161 q 231 -28 303 7 q 111 68 147 -10 q 213 200 125 154 z "},"\"":{"ha":522,"x_min":31,"x_max":515,"o":"m 31 642 q 89 924 85 788 l 135 964 l 253 939 l 250 908 q 138 607 222 736 l 31 642 m 293 642 q 351 924 347 788 l 397 964 l 515 939 l 513 908 q 400 607 485 736 l 293 642 z "},"#":{"ha":864,"x_min":81,"x_max":783,"o":"m 643 479 l 611 272 l 743 272 l 743 185 l 599 185 l 568 -14 l 468 0 l 496 185 l 314 185 l 283 -14 l 183 0 l 211 185 l 81 185 l 81 272 l 225 272 l 257 479 l 121 479 l 121 565 l 269 565 l 296 736 l 396 724 l 372 565 l 554 565 l 581 736 l 681 724 l 657 565 l 783 565 l 783 479 l 643 479 m 542 479 l 358 479 l 326 272 l 510 272 l 542 479 z "},"$":{"ha":768,"x_min":75,"x_max":713,"o":"m 713 246 q 645 72 713 142 q 472 -19 578 3 l 472 -201 l 357 -201 l 357 -26 q 201 2 281 -22 q 75 65 122 26 l 76 69 l 75 118 q 93 311 75 225 l 181 311 l 225 128 q 433 75 313 75 l 464 76 q 542 206 542 115 q 447 338 542 283 l 228 450 q 79 674 79 538 q 157 849 79 781 q 357 932 235 917 l 357 1090 l 471 1090 l 471 933 q 671 890 564 925 q 653 644 678 774 l 560 644 l 533 789 q 350 835 456 835 l 308 833 q 243 714 243 793 q 343 588 243 640 l 551 485 q 713 246 713 394 z "},"%":{"ha":1147,"x_min":75,"x_max":1071,"o":"m 75 603 q 75 648 75 603 q 136 759 75 693 q 279 825 197 825 q 424 758 363 825 q 485 599 485 690 q 428 448 485 510 q 286 386 371 386 q 138 449 200 386 q 75 603 75 513 m 833 818 l 913 753 l 286 -40 l 207 25 l 833 818 m 319 479 q 371 600 371 522 q 343 690 371 653 q 265 728 315 728 l 231 724 q 185 606 185 681 q 213 515 185 553 q 296 478 242 478 l 319 479 m 661 189 q 722 346 661 281 q 865 411 782 411 q 1010 344 950 411 q 1071 186 1071 278 q 1015 35 1071 97 q 872 -28 958 -28 q 724 35 786 -28 q 661 189 661 99 m 907 67 q 958 186 958 107 q 931 277 958 239 q 854 315 903 315 l 818 310 q 772 193 772 267 q 801 103 772 140 q 883 65 829 65 l 907 67 z "},"&":{"ha":942,"x_min":26,"x_max":976,"o":"m 936 450 q 838 499 875 485 q 749 511 800 514 q 800 308 800 410 q 694 60 800 157 q 417 -36 589 -36 q 138 51 250 -36 q 26 274 26 139 q 68 414 26 353 q 179 506 110 475 q 56 696 56 571 q 140 862 56 796 q 360 928 224 928 q 626 872 488 928 l 575 729 l 311 822 q 240 760 265 801 q 215 672 215 719 q 272 546 215 597 l 419 503 l 403 422 q 247 372 306 424 q 189 242 189 321 q 253 112 189 158 q 413 65 318 65 q 554 94 490 65 q 651 293 651 164 q 604 469 651 386 l 511 417 l 468 494 q 839 643 721 643 q 976 593 914 643 l 936 450 z "},"'":{"ha":243,"x_min":-32,"x_max":185,"o":"m -32 717 q 21 996 21 858 l 67 1036 l 185 1014 q 74 682 172 839 l -32 717 z "},"(":{"ha":421,"x_min":36,"x_max":383,"o":"m 276 -215 q 36 413 36 99 q 289 1017 36 726 l 383 967 q 204 419 204 694 q 374 -164 204 139 l 276 -215 z "},")":{"ha":419,"x_min":38,"x_max":385,"o":"m 47 -164 q 217 419 217 139 q 38 967 217 694 l 132 1017 q 385 413 385 726 q 144 -215 385 99 l 47 -164 z "},"*":{"ha":535,"x_min":17,"x_max":478,"o":"m 249 858 l 197 829 l 121 983 l 218 1058 l 249 858 m 297 832 l 254 872 l 376 993 l 478 922 l 297 832 m 215 818 l 226 761 l 56 735 l 17 853 l 215 818 m 294 779 l 319 832 l 472 754 l 436 638 l 294 779 m 242 768 l 299 761 l 272 590 l 149 589 l 242 768 z "},"+":{"ha":793,"x_min":81,"x_max":713,"o":"m 713 281 l 457 281 l 457 11 l 336 11 l 336 281 l 81 281 l 81 388 l 336 388 l 336 658 l 457 658 l 457 388 l 713 388 l 713 281 z "},",":{"ha":368,"x_min":61,"x_max":292,"o":"m 61 -142 q 156 10 150 -68 l 83 68 q 181 194 97 153 q 292 50 292 157 q 241 -88 292 -18 q 108 -201 190 -158 l 61 -142 z "},"-":{"ha":542,"x_min":43,"x_max":490,"o":"m 43 421 l 61 460 l 438 460 l 490 371 l 472 333 l 97 333 l 43 421 z "},".":{"ha":319,"x_min":119,"x_max":319,"o":"m 232 -50 q 119 38 157 -18 q 211 149 161 121 q 319 61 269 125 q 232 -50 294 -7 z "},"/":{"ha":568,"x_min":36,"x_max":569,"o":"m 463 993 l 569 947 l 144 -172 l 36 -129 l 463 993 z "},":":{"ha":471,"x_min":119,"x_max":335,"o":"m 335 513 q 239 400 311 435 q 119 496 156 418 q 221 626 133 583 q 335 513 318 588 m 335 86 q 239 -28 311 7 q 119 68 156 -10 q 221 200 133 154 q 335 86 318 161 z "},";":{"ha":371,"x_min":61,"x_max":294,"o":"m 294 513 q 199 400 271 435 q 79 496 115 418 q 181 626 93 583 q 294 513 278 588 m 61 -142 q 156 10 150 -68 l 83 68 q 181 194 97 153 q 292 50 292 157 q 241 -88 292 -18 q 108 -201 190 -158 l 61 -142 z "},"<":{"ha":797,"x_min":103,"x_max":693,"o":"m 693 604 l 250 336 l 251 328 l 692 88 l 639 -8 l 113 281 l 103 378 l 639 694 l 693 604 z "},"=":{"ha":817,"x_min":81,"x_max":736,"o":"m 736 422 l 81 422 l 81 524 l 736 524 l 736 422 m 736 169 l 81 169 l 81 271 l 736 271 l 736 169 z "},">":{"ha":797,"x_min":104,"x_max":694,"o":"m 158 694 l 694 378 l 686 281 l 160 -8 l 106 88 l 546 328 l 547 336 l 104 604 l 158 694 z "},"?":{"ha":836,"x_min":135,"x_max":689,"o":"m 400 953 q 607 879 525 953 q 689 697 689 806 q 663 594 689 640 q 570 495 638 549 q 476 410 503 442 q 447 331 450 378 l 306 331 q 331 441 306 392 q 426 550 356 490 q 515 641 497 610 q 533 715 533 672 q 461 846 533 803 q 293 806 381 849 l 258 642 l 158 642 l 140 772 l 135 857 q 400 953 257 953 m 393 200 q 507 86 490 161 q 411 -28 483 7 q 292 68 328 -10 q 393 200 306 154 z "},"@":{"ha":1461,"x_min":117,"x_max":1353,"o":"m 751 957 q 1082 880 946 957 q 1285 681 1218 803 q 1353 424 1353 560 q 1249 125 1353 249 q 974 -22 1146 1 q 891 6 929 -22 q 833 76 853 33 l 681 -19 l 643 -22 q 503 28 558 -22 q 449 149 449 78 q 551 303 449 249 l 819 310 l 819 440 q 753 586 819 554 q 622 565 683 583 l 603 418 l 508 414 q 474 594 474 506 q 647 657 543 628 q 801 686 751 686 q 896 656 847 686 q 965 588 944 625 q 982 483 981 561 l 982 142 q 1013 94 982 94 q 1065 117 1036 94 q 1156 242 1124 158 q 1189 419 1189 325 q 1071 724 1189 607 q 758 842 953 842 q 418 713 550 842 q 286 385 286 583 q 414 21 286 190 l 314 -43 q 117 406 117 163 q 194 679 117 553 q 415 881 271 806 q 751 957 558 957 m 647 92 q 819 133 710 90 l 819 232 l 767 235 q 615 154 615 235 q 647 92 615 114 z "},"A":{"ha":982,"x_min":-28,"x_max":988,"o":"m 988 68 l 986 0 l 582 0 l 574 44 q 701 97 619 69 l 636 265 l 283 265 l 214 86 l 350 68 l 349 0 l -19 0 l -28 44 q 88 93 22 71 l 404 864 l 390 899 l 536 942 l 888 81 l 988 68 m 599 361 l 460 721 l 319 361 l 599 361 z "},"B":{"ha":894,"x_min":39,"x_max":847,"o":"m 614 483 q 786 402 725 467 q 847 251 847 338 q 749 72 847 140 q 486 0 651 3 l 47 0 l 39 44 l 157 94 l 157 829 l 58 839 l 60 908 q 458 919 301 919 q 708 856 615 919 q 801 686 801 792 q 753 556 801 614 q 614 483 706 497 m 326 804 l 326 517 l 394 517 q 566 561 510 517 q 622 671 622 606 q 588 769 622 724 q 499 825 553 814 l 326 804 m 451 96 l 479 94 q 614 140 567 94 q 661 251 661 186 q 602 380 661 326 q 453 433 543 433 l 326 433 l 326 107 l 451 96 z "},"C":{"ha":789,"x_min":18,"x_max":767,"o":"m 767 101 l 488 -22 q 145 101 272 -26 q 18 443 18 229 q 143 797 18 658 q 467 936 268 936 q 743 850 625 936 l 742 846 l 743 807 q 715 617 743 703 l 610 617 l 588 776 q 381 825 493 825 l 347 824 q 233 678 269 774 q 197 476 197 583 q 284 203 197 306 q 515 110 371 101 l 736 185 l 767 101 z "},"D":{"ha":946,"x_min":39,"x_max":922,"o":"m 489 919 q 799 786 676 919 q 922 461 922 653 q 797 130 922 257 q 461 0 671 3 l 47 0 l 39 44 l 157 94 l 157 829 l 58 839 l 60 908 q 489 919 290 919 m 444 104 q 657 203 576 104 q 738 457 738 303 q 687 678 738 576 q 556 825 636 779 l 326 804 l 326 121 q 444 104 383 104 z "},"E":{"ha":819,"x_min":39,"x_max":753,"o":"m 750 263 q 733 0 753 124 l 47 0 l 39 44 l 157 94 l 157 829 l 57 839 l 58 908 l 738 908 l 739 869 q 719 663 739 771 l 624 663 l 603 796 l 326 814 l 326 499 l 636 524 l 636 393 l 326 406 l 326 103 l 614 119 l 656 269 l 750 263 z "},"F":{"ha":800,"x_min":39,"x_max":736,"o":"m 324 814 l 324 472 l 639 496 l 639 363 l 324 375 l 324 90 l 489 68 l 488 0 l 47 0 l 39 44 q 154 93 89 71 l 154 829 l 54 839 l 56 908 l 735 908 l 736 869 q 717 660 736 768 l 621 660 l 600 794 l 324 814 z "},"G":{"ha":949,"x_min":18,"x_max":913,"o":"m 806 99 l 807 97 l 524 -28 l 485 -29 q 224 38 329 -29 q 69 210 119 104 q 18 436 18 317 q 155 795 18 654 q 511 936 292 936 q 797 851 681 936 l 796 847 l 797 814 q 771 633 797 726 l 667 633 l 643 774 q 410 826 532 826 l 357 824 q 236 674 276 774 q 196 456 196 575 q 278 195 196 297 q 494 92 361 93 q 644 111 554 90 l 644 314 q 499 372 553 344 l 507 419 l 911 419 l 913 353 l 806 335 l 806 99 z "},"H":{"ha":1079,"x_min":39,"x_max":1040,"o":"m 1040 68 l 1039 0 l 629 0 l 621 44 l 739 94 l 739 397 l 326 397 l 326 85 l 458 68 l 457 0 l 47 0 l 39 44 l 157 94 l 157 826 l 50 840 l 51 908 l 436 908 l 444 864 q 326 814 410 844 l 326 506 l 739 506 l 739 826 l 632 840 l 633 908 l 1018 908 l 1026 864 q 908 814 992 844 l 908 85 l 1040 68 z "},"I":{"ha":497,"x_min":39,"x_max":458,"o":"m 458 68 l 457 0 l 47 0 l 39 44 l 157 94 l 157 826 l 50 840 l 51 908 l 436 908 l 444 864 q 326 814 410 844 l 326 85 l 458 68 z "},"J":{"ha":510,"x_min":-15,"x_max":471,"o":"m 471 864 q 354 814 439 846 l 354 146 q 269 -92 354 0 q 35 -256 183 -185 l -15 -182 q 141 -28 99 -110 q 185 175 183 54 l 185 824 l 54 840 l 56 908 l 463 908 l 471 864 z "},"K":{"ha":951,"x_min":39,"x_max":936,"o":"m 936 69 l 935 0 l 700 0 l 401 413 l 326 333 l 326 85 l 453 68 l 451 0 l 47 0 l 39 44 l 157 94 l 157 826 l 49 840 l 50 908 l 436 908 l 444 864 q 326 814 410 844 l 326 479 l 651 828 l 557 840 l 558 908 l 882 908 l 890 864 q 785 821 857 844 l 514 533 l 854 79 l 936 69 z "},"L":{"ha":794,"x_min":39,"x_max":782,"o":"m 779 299 q 761 0 782 117 l 47 0 l 39 44 l 157 94 l 157 826 l 50 840 l 51 908 l 436 908 l 444 864 q 326 814 410 844 l 326 104 l 633 124 l 679 306 l 779 299 z "},"M":{"ha":1289,"x_min":39,"x_max":1249,"o":"m 1249 65 l 1247 0 l 840 0 l 832 44 q 951 94 882 71 l 946 529 l 965 764 l 694 25 l 694 22 l 554 -10 l 278 757 l 301 529 l 292 85 l 410 65 l 408 0 l 47 0 l 39 44 q 161 96 82 67 l 185 819 l 72 838 l 74 903 l 397 903 l 654 185 l 914 903 l 1203 903 l 1211 858 q 1103 813 1169 835 l 1115 86 l 1249 65 z "},"N":{"ha":1054,"x_min":39,"x_max":1015,"o":"m 897 0 l 729 -17 l 728 -17 l 729 -15 l 263 714 l 285 533 l 285 83 l 407 68 l 406 0 l 47 0 l 39 44 l 157 94 l 157 828 l 63 840 l 64 908 l 343 908 l 794 193 l 772 371 l 772 822 l 636 840 l 638 908 l 1007 908 l 1015 864 q 900 815 974 840 l 897 0 z "},"O":{"ha":922,"x_min":24,"x_max":899,"o":"m 456 936 q 774 799 649 936 q 899 443 899 663 q 778 101 899 231 q 465 -28 657 -28 q 148 103 272 -28 q 24 449 24 235 q 146 800 24 664 q 456 936 268 936 m 319 806 q 237 673 268 765 q 206 471 206 581 q 283 189 206 294 q 490 83 360 83 q 583 96 536 83 q 678 230 642 138 q 714 436 714 322 q 638 719 714 611 q 438 828 563 828 q 319 806 381 828 z "},"P":{"ha":842,"x_min":39,"x_max":818,"o":"m 324 335 l 324 90 l 489 68 l 488 0 l 47 0 l 39 44 q 154 93 89 71 l 154 829 l 54 839 l 56 908 l 474 919 q 722 836 625 919 q 818 625 818 753 q 726 419 818 503 q 492 335 633 336 l 324 335 m 324 804 l 324 443 q 450 432 389 432 q 592 489 544 432 q 639 629 639 546 q 613 747 639 692 q 542 825 588 801 l 324 804 z "},"Q":{"ha":975,"x_min":24,"x_max":1038,"o":"m 964 -239 l 536 -22 l 465 -28 q 148 103 272 -28 q 24 449 24 235 q 146 800 24 664 q 456 936 268 936 q 774 799 649 936 q 899 443 899 663 q 836 181 899 289 q 669 21 774 74 l 1038 -78 l 964 -239 m 206 471 q 283 189 206 294 q 490 83 360 83 q 583 96 536 83 q 678 230 642 138 q 714 436 714 322 q 638 719 714 611 q 438 828 563 828 q 319 806 381 828 q 237 673 268 765 q 206 471 206 581 z "},"R":{"ha":924,"x_min":39,"x_max":907,"o":"m 907 68 l 906 0 l 661 0 l 467 357 l 326 356 l 326 86 l 464 68 l 463 0 l 47 0 l 39 44 l 157 94 l 157 829 l 57 839 l 58 908 l 474 919 q 724 842 628 919 q 821 644 821 764 q 770 489 821 561 q 629 382 719 417 l 815 79 l 907 68 m 326 461 q 432 450 389 450 q 593 506 546 450 q 640 643 640 561 q 544 825 640 774 l 326 804 l 326 461 z "},"S":{"ha":771,"x_min":75,"x_max":713,"o":"m 713 246 q 620 49 713 125 q 388 -28 528 -28 q 217 -3 308 -28 q 75 65 126 22 l 76 69 l 75 118 q 93 311 75 225 l 181 311 l 225 128 q 433 75 313 75 l 464 76 q 542 206 542 115 q 447 338 542 283 l 228 450 q 79 674 79 538 q 175 863 79 790 q 419 936 271 936 q 671 890 533 936 q 653 644 678 774 l 560 644 l 533 789 q 350 835 456 835 l 308 833 q 243 714 243 793 q 343 588 243 640 l 551 485 q 713 246 713 394 z "},"T":{"ha":863,"x_min":13,"x_max":850,"o":"m 849 917 l 850 881 q 831 653 850 772 l 736 653 l 718 810 l 515 821 l 515 88 l 667 68 l 665 0 l 208 0 l 200 44 l 301 83 l 346 99 l 346 821 l 143 810 l 125 653 l 32 653 q 13 872 13 767 l 14 917 l 433 911 q 849 917 654 911 z "},"U":{"ha":997,"x_min":13,"x_max":985,"o":"m 985 864 q 867 814 950 844 l 867 389 q 519 -26 860 -26 q 228 86 335 -26 q 119 396 121 199 l 119 826 l 13 840 l 14 908 l 399 908 l 407 864 q 289 814 372 844 l 289 374 q 353 163 289 236 q 532 90 418 90 q 658 119 600 90 q 740 388 740 186 l 740 825 l 619 840 l 621 908 l 976 908 l 985 864 z "},"V":{"ha":965,"x_min":-1,"x_max":965,"o":"m 565 0 l 567 -1 q 397 -17 488 -17 l 104 826 l -1 840 l 0 908 l 400 908 l 408 864 q 288 813 367 842 l 464 285 l 482 111 l 490 111 l 733 824 l 608 840 l 610 908 l 957 908 l 965 864 q 858 818 933 846 l 565 0 z "},"W":{"ha":1322,"x_min":1,"x_max":1322,"o":"m 1322 864 l 1217 818 l 983 -3 q 808 -17 896 -18 l 658 496 l 629 335 l 525 -3 l 524 -1 l 524 -3 q 351 -17 436 -18 l 101 828 l 1 840 l 3 908 l 392 908 l 400 864 l 282 814 l 426 285 l 440 111 l 446 111 l 608 665 l 553 856 l 719 896 l 878 290 l 894 111 l 899 111 l 1092 822 l 954 840 l 956 908 l 1314 908 l 1322 864 z "},"X":{"ha":950,"x_min":8,"x_max":947,"o":"m 947 68 l 946 0 l 563 0 l 554 44 l 646 85 l 451 376 l 260 83 l 378 68 l 376 0 l 17 0 l 8 44 q 122 93 57 69 l 386 474 l 150 828 l 56 840 l 57 908 l 410 908 l 418 864 l 342 829 l 514 574 l 667 826 l 564 840 l 565 908 l 892 908 l 900 864 q 792 818 865 844 l 575 485 l 849 79 l 947 68 z "},"Y":{"ha":864,"x_min":-1,"x_max":867,"o":"m 511 83 l 626 68 l 625 0 l 243 0 l 235 44 q 344 92 274 65 l 344 347 l 86 829 l -1 840 l 0 908 l 343 908 l 351 864 l 267 826 l 407 561 l 444 446 l 451 446 l 642 826 l 535 840 l 536 908 l 858 908 l 867 864 q 763 819 821 839 l 511 354 l 511 83 z "},"Z":{"ha":838,"x_min":47,"x_max":788,"o":"m 788 275 q 751 0 781 157 l 89 0 l 47 78 l 574 814 l 226 796 l 196 632 l 100 632 q 85 836 85 718 l 88 908 l 739 908 l 738 906 l 740 908 l 778 831 l 263 113 l 631 119 l 685 289 l 788 275 z "},"[":{"ha":514,"x_min":132,"x_max":468,"o":"m 468 908 l 288 872 l 288 -53 l 468 -89 l 460 -169 l 132 -169 l 132 989 l 460 989 l 468 908 z "},"\\":{"ha":549,"x_min":-10,"x_max":539,"o":"m -10 946 l 111 993 l 539 -131 l 417 -175 l -10 946 z "},"]":{"ha":518,"x_min":46,"x_max":382,"o":"m 382 989 l 382 -169 l 54 -169 l 46 -89 l 226 -53 l 226 872 l 46 908 l 54 989 l 382 989 z "},"^":{"ha":729,"x_min":44,"x_max":696,"o":"m 414 901 l 696 513 l 615 456 l 371 800 l 361 800 l 129 450 l 44 504 l 313 901 l 414 901 z "},"_":{"ha":739,"x_min":14,"x_max":725,"o":"m 725 -289 l 14 -289 l 14 -187 l 725 -187 l 725 -289 z "},"`":{"ha":403,"x_min":46,"x_max":367,"o":"m 278 739 q 46 946 143 867 l 164 1046 l 367 810 l 278 739 z "},"a":{"ha":731,"x_min":60,"x_max":713,"o":"m 713 56 l 558 -22 q 497 9 532 -19 q 444 76 463 38 l 292 -19 l 254 -22 q 115 28 169 -22 q 60 149 60 78 q 163 303 60 249 l 431 310 l 431 443 q 364 589 431 554 q 233 567 290 586 l 215 419 l 121 415 q 86 596 83 493 q 259 660 154 631 q 413 689 364 689 q 506 659 460 689 q 578 590 553 629 q 594 485 593 563 l 594 136 q 629 107 594 107 l 696 117 l 713 56 m 258 92 q 431 133 325 92 l 431 233 l 382 235 q 226 154 226 235 q 258 92 226 114 z "},"b":{"ha":747,"x_min":-29,"x_max":715,"o":"m 407 672 l 460 678 q 643 585 571 678 q 715 353 715 492 q 610 81 715 188 q 342 -26 506 -26 q 86 32 225 -26 l 88 33 l 88 907 l -17 910 l -29 976 q 189 1022 67 1015 l 250 965 l 250 567 l 407 672 m 439 82 q 517 181 489 115 q 546 321 546 247 q 501 479 546 413 q 386 546 457 546 q 250 497 332 546 l 250 114 q 389 78 313 78 l 439 82 z "},"c":{"ha":599,"x_min":24,"x_max":585,"o":"m 381 -19 l 354 -21 q 115 77 207 -21 q 24 328 24 175 q 117 583 24 482 q 351 683 210 683 q 585 563 506 683 l 472 461 q 267 583 375 564 q 188 358 188 492 q 244 171 188 243 q 400 99 300 99 q 547 135 468 99 l 574 69 l 381 -19 z "},"d":{"ha":775,"x_min":24,"x_max":764,"o":"m 764 56 l 610 -22 q 545 13 581 -19 q 493 86 510 44 l 339 -22 q 113 76 203 -24 q 24 324 24 175 q 126 581 24 478 q 381 683 228 683 q 483 668 435 683 l 483 907 l 379 910 l 365 976 q 583 1022 461 1015 l 646 965 l 646 136 q 682 107 646 107 l 747 117 l 764 56 m 194 343 q 241 178 194 244 q 365 113 288 113 q 483 147 418 113 l 483 533 q 331 581 414 581 l 286 576 q 194 343 194 496 z "},"e":{"ha":649,"x_min":24,"x_max":622,"o":"m 186 350 q 248 167 186 232 q 406 101 310 101 q 583 149 481 101 l 608 83 l 392 -19 q 127 68 231 -28 q 24 318 24 164 q 120 576 24 468 q 354 683 217 683 q 547 610 471 683 q 621 422 622 538 l 540 344 l 186 350 m 294 589 q 196 433 221 547 l 467 447 q 408 551 456 511 q 294 589 360 590 z "},"f":{"ha":481,"x_min":17,"x_max":536,"o":"m 443 831 q 258 913 358 913 l 233 911 l 282 653 l 432 653 l 435 604 l 368 529 l 278 529 l 278 104 q 404 67 367 88 l 399 0 l 26 0 l 21 47 l 115 85 l 115 531 l 24 529 l 17 600 l 115 640 l 115 776 q 188 967 118 892 q 363 1043 258 1043 q 536 975 463 1043 l 443 831 z "},"g":{"ha":774,"x_min":33,"x_max":753,"o":"m 753 600 q 619 578 676 604 q 660 451 660 522 q 573 281 660 347 q 357 215 486 215 l 310 218 q 226 144 263 183 q 472 117 332 143 q 707 56 611 90 q 717 -15 717 21 q 596 -235 717 -143 q 311 -328 475 -328 q 114 -276 194 -328 q 38 -125 33 -224 l 197 19 l 99 25 l 72 103 q 224 238 144 185 q 102 321 147 265 q 57 451 57 376 q 144 624 57 554 q 360 693 231 693 q 551 642 469 693 q 722 761 600 747 l 753 600 m 439 310 q 499 440 499 358 q 453 556 499 507 q 344 606 407 606 q 264 586 303 606 q 221 460 221 539 q 259 342 221 388 q 364 296 297 296 q 439 310 394 296 m 329 -194 q 492 -161 413 -194 q 607 -68 572 -128 q 279 11 506 -17 q 175 -117 175 -64 q 218 -174 175 -153 q 329 -194 261 -194 z "},"h":{"ha":840,"x_min":17,"x_max":818,"o":"m 718 100 q 818 67 782 86 l 813 0 l 483 0 l 478 47 l 556 79 l 556 406 q 468 549 556 549 q 297 478 410 549 l 297 99 q 383 67 354 83 l 378 0 l 36 0 l 31 47 q 135 88 74 68 l 135 907 l 31 910 l 17 976 q 235 1022 113 1015 l 297 967 l 297 544 q 551 678 460 663 q 635 646 593 672 q 700 582 678 619 q 718 456 717 551 l 718 100 z "},"i":{"ha":422,"x_min":17,"x_max":396,"o":"m 224 786 q 97 883 147 818 q 200 1010 139 967 q 321 907 271 978 q 224 786 289 829 m 297 100 q 396 67 361 89 l 390 0 l 35 0 l 29 47 q 135 88 69 68 l 135 565 l 31 567 l 17 633 q 235 679 113 672 l 297 624 l 297 100 z "},"j":{"ha":404,"x_min":-6,"x_max":325,"o":"m 228 785 q 101 882 151 817 q 204 1008 143 965 q 325 906 275 976 q 228 785 294 832 m 21 633 q 239 679 117 672 l 301 624 l 301 -78 q 224 -212 301 -153 q 15 -296 146 -272 l -6 -235 q 107 -163 75 -208 q 139 -36 139 -118 l 139 565 l 35 567 l 21 633 z "},"k":{"ha":815,"x_min":17,"x_max":778,"o":"m 778 35 l 600 -17 q 526 44 561 -6 l 382 271 l 297 260 l 297 96 q 372 67 343 85 l 367 0 l 36 0 l 31 47 q 135 88 74 68 l 135 907 l 31 910 l 17 976 q 235 1022 113 1015 l 297 967 l 297 332 l 375 378 l 536 572 l 431 567 l 417 633 q 671 679 522 672 l 671 678 l 719 601 l 506 349 l 656 132 q 721 97 682 97 l 761 101 l 778 35 z "},"l":{"ha":439,"x_min":17,"x_max":396,"o":"m 297 100 q 396 67 361 89 l 390 0 l 35 0 l 29 47 q 135 88 69 68 l 135 907 l 31 910 l 17 976 q 235 1022 113 1015 l 297 967 l 297 100 z "},"m":{"ha":1244,"x_min":17,"x_max":1224,"o":"m 1125 100 q 1224 67 1189 86 l 1217 0 l 890 0 l 885 47 l 963 79 l 963 406 q 875 549 963 549 q 708 481 814 549 l 710 99 q 803 67 765 88 l 796 0 l 475 0 l 469 47 l 547 79 l 547 406 q 460 549 547 549 q 297 483 400 549 l 297 99 q 383 67 354 83 l 378 0 l 40 0 l 35 47 q 135 86 68 65 l 135 565 l 31 567 l 17 633 q 235 679 113 672 l 297 621 l 297 550 q 543 678 463 667 q 627 646 585 672 q 692 582 669 619 q 704 544 700 567 q 958 678 867 663 q 1042 646 1000 672 q 1107 582 1085 619 q 1125 456 1124 551 l 1125 100 z "},"n":{"ha":843,"x_min":17,"x_max":821,"o":"m 722 100 q 821 67 786 86 l 814 0 l 488 0 l 482 47 l 560 79 l 560 406 q 472 549 560 549 q 297 475 413 549 l 297 99 q 383 67 354 83 l 378 0 l 40 0 l 35 47 q 135 86 68 65 l 135 565 l 31 567 l 17 633 q 235 679 113 672 l 297 621 l 297 542 q 556 678 467 663 q 640 646 597 672 q 704 582 682 619 q 722 456 721 551 l 722 100 z "},"o":{"ha":699,"x_min":24,"x_max":668,"o":"m 24 331 q 116 585 24 486 q 349 683 208 683 q 578 584 489 683 q 668 324 668 485 q 580 68 668 164 q 353 -28 492 -28 q 117 73 210 -28 q 24 331 24 174 m 424 83 q 500 308 500 135 q 460 505 500 428 q 339 582 421 582 q 250 556 286 582 q 193 340 193 485 q 236 150 193 226 q 365 74 279 74 q 424 83 393 74 z "},"p":{"ha":788,"x_min":17,"x_max":757,"o":"m 400 -21 q 294 -8 349 -21 l 294 -178 q 414 -215 388 -201 l 408 -282 l 46 -282 l 40 -236 l 132 -201 l 132 565 l 31 567 l 17 633 q 235 679 114 674 l 235 678 l 294 624 l 294 568 l 449 672 l 501 678 q 685 585 613 678 q 757 353 757 492 q 656 85 757 192 q 400 -21 556 -21 m 426 546 q 294 499 376 546 l 294 111 q 439 79 364 79 l 479 82 q 556 182 528 115 q 585 321 585 249 q 541 479 585 413 q 426 546 497 546 z "},"q":{"ha":761,"x_min":24,"x_max":719,"o":"m 642 -186 q 719 -215 692 -200 l 714 -282 l 351 -282 l 346 -236 q 479 -186 399 -207 l 479 78 l 340 -19 q 115 79 206 -21 q 24 325 24 179 q 128 583 24 479 q 388 686 233 686 q 575 636 482 686 l 693 654 l 717 588 l 642 533 l 642 -186 m 367 115 q 479 147 417 115 l 479 539 q 329 582 411 582 l 288 579 q 196 344 196 496 q 242 181 196 246 q 367 115 289 115 z "},"r":{"ha":624,"x_min":17,"x_max":614,"o":"m 611 640 q 574 396 614 521 l 483 396 l 461 551 q 297 401 367 489 l 297 104 q 442 67 401 90 l 436 0 l 38 0 l 32 47 q 135 88 76 69 l 135 565 l 31 567 l 17 633 q 235 679 113 672 l 297 624 l 297 506 l 439 660 q 510 674 472 674 q 611 640 569 674 z "},"s":{"ha":600,"x_min":31,"x_max":546,"o":"m 201 519 q 236 452 201 478 q 343 394 271 426 l 436 347 q 546 178 546 285 q 475 30 546 88 q 292 -28 404 -28 q 31 46 164 -28 l 92 188 q 358 69 217 97 q 392 140 392 99 q 363 206 392 179 q 231 281 335 233 q 89 373 126 328 q 51 478 51 418 q 132 628 51 572 q 329 683 213 683 q 519 640 436 683 l 521 640 l 522 607 q 497 456 522 529 l 407 456 l 386 572 q 249 592 313 596 q 201 519 201 567 z "},"t":{"ha":504,"x_min":19,"x_max":476,"o":"m 329 114 q 451 140 367 114 l 469 74 l 274 -22 q 168 17 218 -25 q 118 108 118 58 l 118 532 l 28 531 l 19 600 q 125 649 76 632 l 186 826 l 267 826 l 278 653 l 472 653 l 476 603 l 410 529 l 281 529 l 281 185 q 291 130 281 146 q 329 114 301 114 z "},"u":{"ha":819,"x_min":0,"x_max":808,"o":"m 808 56 l 654 -22 q 589 14 625 -19 q 538 89 553 47 q 283 -22 399 -6 q 197 15 240 -15 q 135 81 153 46 q 117 225 117 117 l 117 565 l 14 567 l 0 633 q 218 679 97 674 l 218 678 l 279 624 l 279 218 q 369 106 283 106 q 528 158 435 106 l 528 565 l 432 568 l 418 635 q 628 679 515 676 l 690 624 l 690 136 q 726 107 690 107 l 792 117 l 808 56 z "},"v":{"ha":721,"x_min":-22,"x_max":733,"o":"m 733 599 l 651 564 q 442 4 524 206 q 335 -10 400 -10 l 258 -4 l 58 563 l -22 585 l -21 656 l 297 656 l 304 599 l 235 569 l 329 268 l 350 133 l 379 133 q 492 569 429 299 l 419 585 l 421 656 l 726 656 l 733 599 z "},"w":{"ha":1046,"x_min":-22,"x_max":1058,"o":"m 1058 599 l 979 565 l 804 8 q 681 -10 747 -10 q 618 -4 642 -10 l 525 264 l 521 244 l 422 8 q 303 -8 375 -8 l 239 -4 l 57 563 l -22 585 l -21 656 l 294 656 l 301 599 l 228 567 l 318 265 l 351 118 l 363 118 l 472 417 l 400 622 l 558 647 l 686 265 l 713 118 l 722 118 l 824 567 l 740 585 l 742 656 l 1051 656 l 1058 599 z "},"x":{"ha":771,"x_min":3,"x_max":754,"o":"m 651 101 q 754 67 714 90 l 749 0 l 432 0 l 426 47 l 493 75 l 356 256 l 256 96 q 331 67 301 85 l 325 0 l 8 0 l 3 47 q 86 81 40 67 l 294 336 l 124 560 l 35 585 l 36 656 l 339 656 l 346 599 l 299 578 l 411 426 l 501 574 l 439 585 l 440 656 l 722 656 l 729 599 l 647 565 l 469 347 l 651 101 z "},"y":{"ha":725,"x_min":-22,"x_max":738,"o":"m 738 599 l 656 565 q 500 90 567 265 q 366 -134 447 -37 q 157 -304 285 -231 l 69 -151 q 339 0 244 -89 q 250 44 288 17 l 63 561 l -22 585 l -21 656 l 308 656 l 315 599 l 239 567 l 332 275 l 351 135 l 376 135 q 492 568 442 321 l 414 585 l 415 656 l 731 656 l 738 599 z "},"z":{"ha":689,"x_min":35,"x_max":657,"o":"m 581 222 l 654 211 q 617 -17 650 89 l 163 28 l 104 -22 l 35 35 l 429 572 l 193 554 l 163 415 l 75 415 q 60 576 60 489 l 64 656 l 557 656 l 600 685 l 657 633 l 274 115 l 543 121 l 581 222 z "},"{":{"ha":633,"x_min":93,"x_max":514,"o":"m 496 -201 q 288 -126 371 -192 q 206 26 206 -60 l 206 222 q 179 338 204 310 q 93 372 154 367 l 101 454 q 182 491 158 460 q 206 610 206 522 l 206 765 q 285 934 206 869 q 506 1013 365 999 l 514 894 l 374 894 l 379 624 q 307 422 382 513 l 307 410 q 379 207 382 318 l 374 -67 l 510 -83 l 496 -201 z "},"|":{"ha":421,"x_min":143,"x_max":274,"o":"m 143 1021 l 274 1021 l 274 -312 l 143 -312 l 143 1021 z "},"}":{"ha":640,"x_min":121,"x_max":542,"o":"m 125 -83 l 261 -67 l 256 207 q 328 410 253 315 l 328 422 q 256 624 253 515 l 261 894 l 121 894 l 129 1013 q 347 936 267 1000 q 429 776 426 872 l 429 596 q 454 489 431 518 q 533 454 478 460 l 542 372 q 456 338 481 367 q 429 222 431 310 l 429 26 q 347 -126 429 -60 q 139 -201 264 -192 l 125 -83 z "},"~":{"ha":835,"x_min":115,"x_max":726,"o":"m 115 315 q 213 444 175 404 q 286 483 250 483 q 375 458 318 483 q 563 364 432 432 l 681 461 l 726 421 q 629 282 663 321 q 565 243 596 243 q 422 300 533 243 q 286 357 310 357 q 174 271 251 357 l 115 315 z "},"¡":{"ha":436,"x_min":111,"x_max":326,"o":"m 114 -249 q 222 -276 154 -276 q 324 -246 296 -276 l 271 351 l 164 351 l 114 -249 m 213 463 q 326 576 310 501 q 231 690 303 656 q 111 594 147 672 q 213 463 125 508 z "},"¢":{"ha":604,"x_min":24,"x_max":585,"o":"m 574 100 l 397 25 l 397 -161 l 294 -161 l 294 22 q 97 127 171 40 q 24 339 24 214 q 99 555 24 467 q 294 663 175 643 l 294 838 l 397 838 l 397 664 q 585 556 518 649 l 472 463 q 267 575 374 557 q 188 367 188 490 q 244 194 188 260 q 400 128 300 128 q 547 161 471 128 l 574 100 z "},"£":{"ha":747,"x_min":17,"x_max":692,"o":"m 688 263 l 692 147 q 683 0 692 54 l 25 0 l 17 44 l 118 89 q 182 319 182 201 l 181 361 l 50 361 l 42 404 l 101 456 l 164 456 l 124 588 q 110 672 110 638 q 197 854 110 778 q 418 931 283 931 q 654 879 525 931 l 653 876 l 656 824 q 638 633 656 718 l 547 636 l 501 799 q 335 829 433 832 q 276 688 276 789 q 304 539 276 647 l 322 472 l 538 472 l 546 429 l 486 378 l 339 378 l 340 343 q 257 106 340 221 l 551 121 l 599 269 l 688 263 z "},"¤":{"ha":708,"x_min":78,"x_max":631,"o":"m 599 497 q 546 331 599 397 l 628 242 l 564 179 l 479 271 q 353 236 424 236 q 229 269 288 236 l 153 176 l 86 236 l 164 328 q 108 494 108 399 q 161 653 108 588 l 78 747 l 146 807 l 228 714 q 361 751 289 751 q 488 717 432 751 l 561 806 l 631 749 l 551 656 q 599 497 599 590 m 429 339 q 467 391 450 349 q 485 482 485 433 q 447 601 485 551 q 325 651 408 651 l 276 646 q 219 500 219 601 q 258 382 219 431 q 376 333 297 333 l 429 339 z "},"¥":{"ha":860,"x_min":-31,"x_max":838,"o":"m 482 329 l 482 246 l 665 246 l 674 203 l 614 163 l 482 163 l 482 83 l 597 68 l 596 0 l 214 0 l 206 44 q 315 92 244 65 l 315 163 l 150 163 l 142 206 l 201 246 l 315 246 l 315 329 l 150 329 l 142 372 l 201 413 l 281 413 l 57 829 l -31 840 l -29 908 l 314 908 l 322 864 l 238 826 l 378 561 l 415 446 l 422 446 l 613 826 l 506 840 l 507 908 l 829 908 l 838 864 q 733 819 792 839 l 514 413 l 665 413 l 674 369 l 614 329 l 482 329 z "},"¦":{"ha":421,"x_min":143,"x_max":274,"o":"m 143 856 l 274 856 l 274 497 l 143 497 l 143 856 m 143 253 l 274 253 l 274 -106 l 143 -106 l 143 253 z "},"§":{"ha":731,"x_min":82,"x_max":674,"o":"m 571 172 q 654 19 654 111 q 575 -141 654 -76 q 378 -206 496 -206 q 233 -185 311 -206 q 96 -122 154 -164 l 161 14 q 306 -58 228 -31 q 450 -86 385 -86 l 483 -83 q 522 -1 522 -46 q 483 70 522 44 q 363 125 443 96 q 155 228 228 174 q 82 369 82 283 q 182 543 82 469 q 94 700 94 608 q 185 866 94 801 q 408 931 275 931 q 639 886 519 931 l 642 836 q 624 658 642 743 l 533 660 l 501 806 q 372 832 442 832 q 297 824 338 832 q 240 717 240 782 q 322 619 240 657 l 514 538 q 674 338 674 461 q 571 172 674 243 m 211 399 q 314 290 211 333 l 411 253 l 494 218 q 540 303 540 256 q 443 421 540 376 l 328 467 l 300 478 l 263 494 q 211 399 211 450 z "},"¨":{"ha":590,"x_min":46,"x_max":539,"o":"m 238 867 q 151 764 217 794 q 46 850 76 786 q 135 969 54 926 q 238 867 221 936 m 539 867 q 451 764 518 794 q 346 850 376 786 q 436 969 357 926 q 539 867 522 936 z "},"©":{"ha":1132,"x_min":72,"x_max":1057,"o":"m 565 -29 q 216 112 360 -29 q 72 460 72 253 q 215 811 72 667 q 563 956 358 956 q 913 810 769 956 q 1057 461 1057 665 q 915 113 1057 256 q 565 -29 772 -29 m 563 64 q 848 181 732 64 q 964 464 964 299 q 847 746 964 629 q 565 863 731 863 q 282 746 399 863 q 165 460 165 629 q 281 178 165 293 q 563 64 397 64 m 597 186 q 388 261 468 185 q 307 457 307 338 q 385 656 307 576 q 582 735 463 735 q 797 618 724 735 l 692 540 q 514 649 618 633 q 438 478 438 581 q 486 349 438 401 q 621 297 535 297 q 758 331 679 297 l 782 271 l 597 186 z "},"ª":{"ha":578,"x_min":42,"x_max":536,"o":"m 317 626 l 317 706 q 272 800 317 778 q 185 790 211 797 l 174 689 l 101 683 q 83 806 81 742 q 192 851 119 832 q 310 871 265 871 q 378 846 346 869 q 428 792 410 822 q 438 719 438 769 l 438 517 q 460 496 438 496 l 506 501 l 515 461 l 407 406 q 362 426 386 407 q 325 472 338 444 l 224 407 q 107 434 149 401 q 65 518 65 467 q 126 621 65 578 l 317 626 m 196 482 q 317 510 242 483 l 317 572 l 314 572 l 281 574 q 178 519 178 574 q 196 482 178 497 m 536 354 l 536 278 l 42 278 l 42 354 l 536 354 z "},"«":{"ha":756,"x_min":81,"x_max":675,"o":"m 282 649 l 372 596 l 247 351 l 379 119 l 288 58 l 81 315 l 81 389 l 282 649 m 578 649 l 668 596 l 543 351 l 675 119 l 583 58 l 376 315 l 376 389 l 578 649 z "},"¬":{"ha":822,"x_min":81,"x_max":742,"o":"m 742 0 l 621 0 l 621 267 l 81 267 l 81 374 l 742 374 l 742 0 z "},"­":{"ha":542,"x_min":43,"x_max":490,"o":"m 43 421 l 61 460 l 438 460 l 490 371 l 472 333 l 97 333 l 43 421 z "},"®":{"ha":793,"x_min":21,"x_max":774,"o":"m 399 1071 q 667 965 561 1071 q 774 700 774 860 q 667 434 774 539 q 394 329 560 329 q 125 434 229 329 q 21 700 21 539 q 128 966 21 861 q 399 1071 235 1071 m 392 394 q 619 479 531 394 q 707 699 707 564 q 620 922 707 835 q 397 1008 533 1008 q 174 920 260 1008 q 88 694 88 832 q 171 477 88 560 q 392 394 254 394 m 558 563 l 603 558 l 601 521 l 482 521 l 399 661 l 338 661 l 338 564 l 400 558 l 399 521 l 200 521 l 194 549 l 250 571 l 250 856 l 200 860 l 200 900 l 400 900 q 524 866 479 900 q 568 782 568 832 q 485 675 568 706 l 558 563 m 338 714 l 368 713 q 475 781 475 713 q 421 851 475 828 l 338 843 l 338 714 z "},"¯":{"ha":586,"x_min":72,"x_max":567,"o":"m 560 893 l 567 836 l 501 783 l 81 783 l 72 858 q 229 893 143 893 l 560 893 z "},"°":{"ha":497,"x_min":42,"x_max":414,"o":"m 42 707 q 95 840 42 786 q 226 894 149 894 q 360 840 306 894 q 414 707 414 786 q 363 573 414 624 q 232 522 313 522 q 97 574 153 522 q 42 707 42 625 m 282 608 q 318 694 318 640 q 290 776 318 740 q 217 811 261 811 q 164 800 194 811 q 135 715 135 765 q 163 635 135 669 q 239 601 190 601 q 282 608 263 601 z "},"±":{"ha":749,"x_min":81,"x_max":668,"o":"m 668 453 l 435 453 l 435 201 l 314 201 l 314 453 l 81 453 l 81 556 l 314 556 l 314 804 l 435 804 l 435 556 l 668 556 l 668 453 m 657 0 l 89 0 l 88 103 l 657 103 l 657 0 z "},"²":{"ha":407,"x_min":31,"x_max":374,"o":"m 374 696 l 356 588 l 53 588 l 31 644 l 146 756 q 246 906 246 851 q 224 962 246 940 q 169 983 201 983 l 143 981 l 113 864 l 49 864 q 38 993 33 921 q 193 1043 114 1043 q 310 1002 267 1043 q 354 907 354 961 q 163 671 354 807 l 167 661 l 374 696 z "},"³":{"ha":419,"x_min":42,"x_max":379,"o":"m 278 819 q 351 781 322 813 q 379 701 379 749 q 329 607 379 640 q 206 574 279 574 q 42 611 122 574 l 71 711 q 247 643 172 646 q 275 694 275 661 q 248 749 275 726 q 172 771 221 771 l 126 771 l 126 832 l 156 832 q 231 860 207 835 q 254 915 254 886 q 231 965 254 946 q 164 985 207 985 l 124 889 l 68 889 q 58 975 58 933 l 60 1001 q 206 1043 121 1043 q 313 1009 269 1043 q 357 925 357 975 q 278 821 357 846 l 278 819 z "},"⁴":{"ha":418,"x_min":4,"x_max":390,"o":"m 390 758 l 390 717 l 369 689 l 313 689 l 313 635 l 368 625 l 367 588 l 132 588 l 128 610 q 208 642 157 626 l 208 689 l 24 689 l 4 739 l 225 1042 l 225 1043 l 226 1043 l 229 1042 l 313 1026 l 313 757 l 390 758 m 208 756 l 208 854 l 224 925 l 108 754 l 208 756 z "},"´":{"ha":403,"x_min":35,"x_max":356,"o":"m 35 810 l 238 1046 l 356 946 q 124 739 258 867 l 35 810 z "},"µ":{"ha":781,"x_min":78,"x_max":768,"o":"m 768 56 l 614 -22 q 550 13 586 -19 q 499 86 514 44 q 247 -21 356 -3 q 178 31 214 -18 l 172 31 l 251 -278 q 117 -317 206 -317 l 78 -314 l 78 653 q 240 681 157 681 l 240 235 q 343 106 240 106 q 488 153 399 107 l 488 653 q 650 681 567 681 l 650 136 q 686 107 650 107 l 751 117 l 768 56 z "},"¶":{"ha":886,"x_min":0,"x_max":839,"o":"m 839 -162 l 838 -229 l 600 -229 l 600 828 l 528 833 l 493 835 l 493 -229 l 229 -229 l 221 -178 q 382 -128 281 -151 l 382 824 q 213 617 213 783 q 283 436 213 533 l 231 385 q 61 497 122 419 q 0 667 0 574 q 103 874 0 793 q 375 954 207 954 l 421 953 l 828 897 l 818 813 l 711 821 l 711 -147 l 839 -162 z "},"·":{"ha":315,"x_min":42,"x_max":242,"o":"m 154 261 q 42 349 79 293 q 133 460 83 432 q 242 372 192 436 q 154 261 217 304 z "},"¸":{"ha":364,"x_min":43,"x_max":322,"o":"m 154 -81 q 277 -116 232 -81 q 322 -199 322 -151 q 255 -308 322 -262 q 64 -371 188 -354 l 43 -324 q 151 -267 113 -301 q 189 -201 189 -233 q 83 -150 189 -142 l 46 -93 l 133 8 l 210 8 l 154 -81 z "},"¹":{"ha":340,"x_min":6,"x_max":303,"o":"m 303 624 l 301 588 l 32 588 l 28 610 q 115 646 63 632 l 115 932 l 28 897 l 6 940 l 172 1039 l 172 1040 l 174 1040 l 174 1039 l 222 1008 l 224 1008 l 224 640 l 303 624 z "},"º":{"ha":585,"x_min":26,"x_max":518,"o":"m 49 635 q 115 807 49 739 q 275 875 181 875 q 430 806 367 875 q 493 631 493 736 q 431 461 493 525 q 272 397 369 397 q 113 465 176 397 q 49 635 49 532 m 325 476 q 353 519 339 483 q 368 611 368 554 q 342 742 368 686 q 254 797 315 797 q 217 789 233 797 q 185 733 197 776 q 172 639 172 690 q 288 472 172 472 l 325 476 m 518 278 l 26 278 l 26 354 l 518 354 l 518 278 z "},"»":{"ha":756,"x_min":81,"x_max":675,"o":"m 172 58 l 81 119 l 214 351 l 89 596 l 179 649 l 379 389 l 379 315 l 172 58 m 468 58 l 376 119 l 510 351 l 385 596 l 475 649 l 675 389 l 675 315 l 468 58 z "},"¼":{"ha":957,"x_min":6,"x_max":928,"o":"m 303 511 l 301 475 l 32 475 l 28 497 q 115 533 63 519 l 115 819 l 28 785 l 6 828 l 172 926 l 172 928 l 174 928 l 174 926 l 222 896 l 224 896 l 224 528 l 303 511 m 835 935 l 906 863 l 104 25 l 31 94 l 835 935 m 928 171 l 928 129 l 907 101 l 850 101 l 850 47 l 906 38 l 904 0 l 669 0 l 665 22 q 746 54 694 39 l 746 101 l 561 101 l 542 151 l 763 454 l 763 456 l 764 456 l 767 454 l 850 439 l 850 169 l 928 171 m 746 168 l 746 267 l 761 338 l 646 167 l 746 168 z "},"½":{"ha":939,"x_min":6,"x_max":913,"o":"m 303 511 l 301 475 l 32 475 l 28 497 q 115 533 63 519 l 115 819 l 28 785 l 6 828 l 172 926 l 172 928 l 174 928 l 174 926 l 222 896 l 224 896 l 224 528 l 303 511 m 835 935 l 906 863 l 104 25 l 31 94 l 835 935 m 913 108 l 894 0 l 592 0 l 569 57 l 685 168 q 785 318 785 264 q 763 374 785 353 q 708 396 740 396 l 682 393 l 651 276 l 588 276 q 576 406 572 333 q 732 456 653 456 q 849 415 806 456 q 893 319 893 374 q 701 83 893 219 l 706 74 l 913 108 z "},"¾":{"ha":1017,"x_min":46,"x_max":989,"o":"m 282 707 q 355 668 326 700 q 383 589 383 636 q 333 494 383 528 q 210 461 283 461 q 46 499 126 461 l 75 599 q 251 531 176 533 q 279 582 279 549 q 252 636 279 614 q 176 658 225 658 l 131 658 l 131 719 l 160 719 q 235 748 211 722 q 258 803 258 774 q 235 853 258 833 q 168 872 211 872 l 128 776 l 72 776 q 63 863 63 821 l 64 889 q 210 931 125 931 q 317 897 274 931 q 361 813 361 863 q 282 708 361 733 l 282 707 m 896 935 l 967 863 l 165 25 l 92 94 l 896 935 m 989 171 l 989 129 l 968 101 l 911 101 l 911 47 l 967 38 l 965 0 l 731 0 l 726 22 q 807 54 756 39 l 807 101 l 622 101 l 603 151 l 824 454 l 824 456 l 825 456 l 828 454 l 911 439 l 911 169 l 989 171 m 807 168 l 807 267 l 822 338 l 707 167 l 807 168 z "},"¿":{"ha":836,"x_min":133,"x_max":688,"o":"m 422 -300 q 215 -226 297 -300 q 133 -44 133 -153 q 159 58 133 13 q 252 158 185 104 q 346 243 319 211 q 375 322 372 275 l 517 322 q 492 212 517 261 q 396 103 467 163 q 307 12 325 43 q 289 -62 289 -19 q 361 -193 289 -150 q 529 -153 442 -196 l 564 11 l 664 11 l 682 -119 l 688 -204 q 422 -300 565 -300 m 429 453 q 315 567 332 492 q 411 681 339 646 q 531 585 494 663 q 429 453 517 499 z "},"À":{"ha":982,"x_min":-28,"x_max":988,"o":"m 988 68 l 986 0 l 582 0 l 574 44 q 701 97 619 69 l 636 265 l 283 265 l 214 86 l 350 68 l 349 0 l -19 0 l -28 44 q 88 93 22 71 l 404 864 l 390 899 l 536 942 l 888 81 l 988 68 m 599 361 l 460 721 l 319 361 l 599 361 m 621 958 q 278 1096 454 1029 l 353 1231 l 675 1049 l 621 958 z "},"Á":{"ha":982,"x_min":-28,"x_max":988,"o":"m 988 68 l 986 0 l 582 0 l 574 44 q 701 97 619 69 l 636 265 l 283 265 l 214 86 l 350 68 l 349 0 l -19 0 l -28 44 q 88 93 22 71 l 404 864 l 390 899 l 536 942 l 888 81 l 988 68 m 599 361 l 460 721 l 319 361 l 599 361 m 628 1231 l 703 1096 l 360 958 l 306 1049 l 628 1231 z "},"Â":{"ha":982,"x_min":-28,"x_max":988,"o":"m 988 68 l 986 0 l 582 0 l 574 44 q 701 97 619 69 l 636 265 l 283 265 l 214 86 l 350 68 l 349 0 l -19 0 l -28 44 q 88 93 22 71 l 404 864 l 390 899 l 536 942 l 888 81 l 988 68 m 599 361 l 460 721 l 319 361 l 599 361 m 403 1238 l 542 1238 l 749 1036 l 682 971 l 474 1121 l 272 971 l 203 1036 l 403 1238 z "},"Ã":{"ha":982,"x_min":-28,"x_max":988,"o":"m 988 68 l 986 0 l 582 0 l 574 44 q 701 97 619 69 l 636 265 l 283 265 l 214 86 l 350 68 l 349 0 l -19 0 l -28 44 q 88 93 22 71 l 404 864 l 390 899 l 536 942 l 888 81 l 988 68 m 599 361 l 460 721 l 319 361 l 599 361 m 179 1047 q 276 1176 239 1136 q 350 1215 314 1215 q 439 1190 382 1215 q 626 1096 496 1164 l 744 1193 l 790 1153 q 693 1014 726 1053 q 629 975 660 975 q 485 1032 597 975 q 350 1089 374 1089 q 238 1003 315 1089 l 179 1047 z "},"Ä":{"ha":982,"x_min":-28,"x_max":988,"o":"m 988 68 l 986 0 l 582 0 l 574 44 q 701 97 619 69 l 636 265 l 283 265 l 214 86 l 350 68 l 349 0 l -19 0 l -28 44 q 88 93 22 71 l 404 864 l 390 899 l 536 942 l 888 81 l 988 68 m 599 361 l 460 721 l 319 361 l 599 361 m 419 1118 q 333 1015 399 1046 q 228 1101 258 1038 q 317 1221 236 1178 q 419 1118 403 1188 m 721 1118 q 633 1015 700 1046 q 528 1101 558 1038 q 618 1221 539 1178 q 721 1118 704 1188 z "},"Å":{"ha":982,"x_min":-28,"x_max":988,"o":"m 988 68 l 986 0 l 582 0 l 574 44 q 701 97 619 69 l 636 265 l 283 265 l 214 86 l 350 68 l 349 0 l -19 0 l -28 44 q 88 93 22 71 l 404 864 l 390 899 l 536 942 l 888 81 l 988 68 m 599 361 l 460 721 l 319 361 l 599 361 m 317 1143 q 362 1256 317 1210 q 474 1301 407 1301 q 586 1256 540 1301 q 632 1140 632 1210 q 589 1030 632 1072 q 479 988 546 988 q 364 1031 411 988 q 317 1143 317 1074 m 393 1126 q 393 1109 393 1126 q 417 1069 393 1092 q 476 1047 442 1047 q 533 1069 511 1047 q 554 1125 554 1090 q 531 1184 554 1161 q 475 1207 508 1207 q 417 1184 440 1207 q 393 1126 393 1161 z "},"Æ":{"ha":1288,"x_min":8,"x_max":1226,"o":"m 1224 263 q 1207 0 1226 124 l 1201 1 l 1201 0 l 521 0 l 513 49 l 603 88 l 631 99 l 631 265 l 351 265 l 258 85 l 386 68 l 385 0 l 17 0 l 8 49 q 140 103 42 68 l 529 831 l 444 839 l 446 908 l 1211 908 l 1213 869 q 1193 663 1213 771 l 1097 663 l 1076 793 l 797 807 l 797 499 l 1108 524 l 1108 393 l 797 406 l 797 106 l 1088 119 l 1129 269 l 1224 263 m 631 361 l 631 806 l 401 361 l 631 361 z "},"Ç":{"ha":789,"x_min":18,"x_max":767,"o":"m 439 -81 q 562 -116 517 -81 q 607 -199 607 -151 q 540 -308 607 -262 q 349 -371 472 -354 l 328 -324 q 435 -267 397 -301 q 474 -201 474 -233 q 368 -150 474 -142 l 331 -93 l 396 -18 q 120 129 222 4 q 18 443 18 254 q 143 797 18 658 q 467 936 268 936 q 743 850 625 936 l 742 846 l 743 807 q 715 617 743 703 l 610 617 l 588 776 q 381 825 493 825 l 347 824 q 233 678 269 774 q 197 476 197 583 q 284 203 197 306 q 515 110 371 101 l 736 185 l 767 101 l 488 -22 l 475 -22 l 439 -81 z "},"È":{"ha":819,"x_min":39,"x_max":753,"o":"m 750 263 q 733 0 753 124 l 47 0 l 39 44 l 157 94 l 157 829 l 57 839 l 58 908 l 738 908 l 739 869 q 719 663 739 771 l 624 663 l 603 796 l 326 814 l 326 499 l 636 524 l 636 393 l 326 406 l 326 103 l 614 119 l 656 269 l 750 263 m 565 958 q 222 1096 399 1029 l 297 1231 l 619 1049 l 565 958 z "},"É":{"ha":819,"x_min":39,"x_max":753,"o":"m 750 263 q 733 0 753 124 l 47 0 l 39 44 l 157 94 l 157 829 l 57 839 l 58 908 l 738 908 l 739 869 q 719 663 739 771 l 624 663 l 603 796 l 326 814 l 326 499 l 636 524 l 636 393 l 326 406 l 326 103 l 614 119 l 656 269 l 750 263 m 572 1231 l 647 1096 l 304 958 l 250 1049 l 572 1231 z "},"Ê":{"ha":819,"x_min":39,"x_max":753,"o":"m 750 263 q 733 0 753 124 l 47 0 l 39 44 l 157 94 l 157 829 l 57 839 l 58 908 l 738 908 l 739 869 q 719 663 739 771 l 624 663 l 603 796 l 326 814 l 326 499 l 636 524 l 636 393 l 326 406 l 326 103 l 614 119 l 656 269 l 750 263 m 347 1238 l 486 1238 l 693 1036 l 626 971 l 418 1121 l 217 971 l 147 1036 l 347 1238 z "},"Ë":{"ha":819,"x_min":39,"x_max":753,"o":"m 750 263 q 733 0 753 124 l 47 0 l 39 44 l 157 94 l 157 829 l 57 839 l 58 908 l 738 908 l 739 869 q 719 663 739 771 l 624 663 l 603 796 l 326 814 l 326 499 l 636 524 l 636 393 l 326 406 l 326 103 l 614 119 l 656 269 l 750 263 m 364 1118 q 278 1015 343 1046 q 172 1101 203 1038 q 261 1221 181 1178 q 364 1118 347 1188 m 665 1118 q 578 1015 644 1046 q 472 1101 503 1038 q 563 1221 483 1178 q 665 1118 649 1188 z "},"Ì":{"ha":497,"x_min":39,"x_max":458,"o":"m 458 68 l 457 0 l 47 0 l 39 44 l 157 94 l 157 826 l 50 840 l 51 908 l 436 908 l 444 864 q 326 814 410 844 l 326 85 l 458 68 m 390 958 q 47 1096 224 1029 l 122 1231 l 444 1049 l 390 958 z "},"Í":{"ha":497,"x_min":39,"x_max":472,"o":"m 458 68 l 457 0 l 47 0 l 39 44 l 157 94 l 157 826 l 50 840 l 51 908 l 436 908 l 444 864 q 326 814 410 844 l 326 85 l 458 68 m 397 1231 l 472 1096 l 129 958 l 75 1049 l 397 1231 z "},"Î":{"ha":497,"x_min":-26,"x_max":519,"o":"m 458 68 l 457 0 l 47 0 l 39 44 l 157 94 l 157 826 l 50 840 l 51 908 l 436 908 l 444 864 q 326 814 410 844 l 326 85 l 458 68 m 174 1238 l 313 1238 l 519 1036 l 453 971 l 244 1121 l 43 971 l -26 1036 l 174 1238 z "},"Ï":{"ha":497,"x_min":-3,"x_max":490,"o":"m 458 68 l 457 0 l 47 0 l 39 44 l 157 94 l 157 826 l 50 840 l 51 908 l 436 908 l 444 864 q 326 814 410 844 l 326 85 l 458 68 m 189 1118 q 103 1015 168 1046 q -3 1101 28 1038 q 86 1221 6 1178 q 189 1118 172 1188 m 490 1118 q 403 1015 469 1046 q 297 1101 328 1038 q 388 1221 308 1178 q 490 1118 474 1188 z "},"Ð":{"ha":974,"x_min":22,"x_max":922,"o":"m 489 919 q 799 786 676 919 q 922 461 922 653 q 797 130 922 257 q 461 0 671 3 l 47 0 l 39 44 l 157 94 l 157 389 l 31 389 l 22 432 l 82 492 l 157 492 l 157 829 l 58 839 l 60 908 q 489 919 290 919 m 444 104 q 657 203 576 104 q 738 457 738 303 q 687 678 738 576 q 556 825 636 779 l 326 804 l 326 492 l 529 492 l 538 449 l 478 389 l 326 389 l 326 121 q 444 104 383 104 z "},"Ñ":{"ha":1054,"x_min":39,"x_max":1015,"o":"m 897 0 l 729 -17 l 728 -17 l 729 -15 l 263 714 l 285 533 l 285 83 l 407 68 l 406 0 l 47 0 l 39 44 l 157 94 l 157 828 l 63 840 l 64 908 l 343 908 l 794 193 l 772 371 l 772 822 l 636 840 l 638 908 l 1007 908 l 1015 864 q 900 815 974 840 l 897 0 m 207 1047 q 304 1176 267 1136 q 378 1215 342 1215 q 467 1190 410 1215 q 654 1096 524 1164 l 772 1193 l 818 1153 q 721 1014 754 1053 q 657 975 688 975 q 513 1032 625 975 q 378 1089 401 1089 q 265 1003 343 1089 l 207 1047 z "},"Ò":{"ha":922,"x_min":24,"x_max":899,"o":"m 456 936 q 774 799 649 936 q 899 443 899 663 q 778 101 899 231 q 465 -28 657 -28 q 148 103 272 -28 q 24 449 24 235 q 146 800 24 664 q 456 936 268 936 m 319 806 q 237 673 268 765 q 206 471 206 581 q 283 189 206 294 q 490 83 360 83 q 583 96 536 83 q 678 230 642 138 q 714 436 714 322 q 638 719 714 611 q 438 828 563 828 q 319 806 381 828 m 607 958 q 264 1096 440 1029 l 339 1231 l 661 1049 l 607 958 z "},"Ó":{"ha":922,"x_min":24,"x_max":899,"o":"m 456 936 q 774 799 649 936 q 899 443 899 663 q 778 101 899 231 q 465 -28 657 -28 q 148 103 272 -28 q 24 449 24 235 q 146 800 24 664 q 456 936 268 936 m 319 806 q 237 673 268 765 q 206 471 206 581 q 283 189 206 294 q 490 83 360 83 q 583 96 536 83 q 678 230 642 138 q 714 436 714 322 q 638 719 714 611 q 438 828 563 828 q 319 806 381 828 m 614 1231 l 689 1096 l 346 958 l 292 1049 l 614 1231 z "},"Ô":{"ha":922,"x_min":24,"x_max":899,"o":"m 456 936 q 774 799 649 936 q 899 443 899 663 q 778 101 899 231 q 465 -28 657 -28 q 148 103 272 -28 q 24 449 24 235 q 146 800 24 664 q 456 936 268 936 m 319 806 q 237 673 268 765 q 206 471 206 581 q 283 189 206 294 q 490 83 360 83 q 583 96 536 83 q 678 230 642 138 q 714 436 714 322 q 638 719 714 611 q 438 828 563 828 q 319 806 381 828 m 389 1238 l 528 1238 l 735 1036 l 668 971 l 460 1121 l 258 971 l 189 1036 l 389 1238 z "},"Õ":{"ha":922,"x_min":24,"x_max":899,"o":"m 456 936 q 774 799 649 936 q 899 443 899 663 q 778 101 899 231 q 465 -28 657 -28 q 148 103 272 -28 q 24 449 24 235 q 146 800 24 664 q 456 936 268 936 m 319 806 q 237 673 268 765 q 206 471 206 581 q 283 189 206 294 q 490 83 360 83 q 583 96 536 83 q 678 230 642 138 q 714 436 714 322 q 638 719 714 611 q 438 828 563 828 q 319 806 381 828 m 165 1047 q 263 1176 225 1136 q 336 1215 300 1215 q 425 1190 368 1215 q 613 1096 482 1164 l 731 1193 l 776 1153 q 679 1014 713 1053 q 615 975 646 975 q 472 1032 583 975 q 336 1089 360 1089 q 224 1003 301 1089 l 165 1047 z "},"Ö":{"ha":922,"x_min":24,"x_max":899,"o":"m 456 936 q 774 799 649 936 q 899 443 899 663 q 778 101 899 231 q 465 -28 657 -28 q 148 103 272 -28 q 24 449 24 235 q 146 800 24 664 q 456 936 268 936 m 319 806 q 237 673 268 765 q 206 471 206 581 q 283 189 206 294 q 490 83 360 83 q 583 96 536 83 q 678 230 642 138 q 714 436 714 322 q 638 719 714 611 q 438 828 563 828 q 319 806 381 828 m 406 1118 q 319 1015 385 1046 q 214 1101 244 1038 q 303 1221 222 1178 q 406 1118 389 1188 m 707 1118 q 619 1015 686 1046 q 514 1101 544 1038 q 604 1221 525 1178 q 707 1118 690 1188 z "},"×":{"ha":786,"x_min":97,"x_max":689,"o":"m 689 560 l 468 332 l 686 107 l 606 29 l 393 254 l 179 29 l 100 107 l 317 331 l 97 558 l 181 633 l 394 408 l 607 635 l 689 560 z "},"Ø":{"ha":968,"x_min":24,"x_max":899,"o":"m 746 826 q 899 443 899 689 q 778 101 899 231 q 465 -28 657 -28 q 308 0 385 -28 l 247 -117 l 156 -67 l 215 47 q 24 449 24 176 q 146 800 24 664 q 456 936 268 936 q 658 888 565 936 l 729 1021 l 819 967 l 746 826 m 206 471 q 286 182 206 288 l 596 768 q 438 828 529 828 q 319 806 381 828 q 237 673 268 765 q 206 471 206 581 m 583 96 q 678 230 642 138 q 714 436 714 322 q 665 674 714 575 l 368 113 q 490 83 421 83 q 583 96 536 83 z "},"Ù":{"ha":997,"x_min":13,"x_max":985,"o":"m 985 864 q 867 814 950 844 l 867 389 q 519 -26 860 -26 q 228 86 335 -26 q 119 396 121 199 l 119 826 l 13 840 l 14 908 l 399 908 l 407 864 q 289 814 372 844 l 289 374 q 353 163 289 236 q 532 90 418 90 q 658 119 600 90 q 740 388 740 186 l 740 825 l 619 840 l 621 908 l 976 908 l 985 864 m 651 958 q 308 1096 485 1029 l 383 1231 l 706 1049 l 651 958 z "},"Ú":{"ha":997,"x_min":13,"x_max":985,"o":"m 985 864 q 867 814 950 844 l 867 389 q 519 -26 860 -26 q 228 86 335 -26 q 119 396 121 199 l 119 826 l 13 840 l 14 908 l 399 908 l 407 864 q 289 814 372 844 l 289 374 q 353 163 289 236 q 532 90 418 90 q 658 119 600 90 q 740 388 740 186 l 740 825 l 619 840 l 621 908 l 976 908 l 985 864 m 658 1231 l 733 1096 l 390 958 l 336 1049 l 658 1231 z "},"Û":{"ha":997,"x_min":13,"x_max":985,"o":"m 985 864 q 867 814 950 844 l 867 389 q 519 -26 860 -26 q 228 86 335 -26 q 119 396 121 199 l 119 826 l 13 840 l 14 908 l 399 908 l 407 864 q 289 814 372 844 l 289 374 q 353 163 289 236 q 532 90 418 90 q 658 119 600 90 q 740 388 740 186 l 740 825 l 619 840 l 621 908 l 976 908 l 985 864 m 433 1238 l 572 1238 l 779 1036 l 713 971 l 504 1121 l 303 971 l 233 1036 l 433 1238 z "},"Ü":{"ha":997,"x_min":13,"x_max":985,"o":"m 985 864 q 867 814 950 844 l 867 389 q 519 -26 860 -26 q 228 86 335 -26 q 119 396 121 199 l 119 826 l 13 840 l 14 908 l 399 908 l 407 864 q 289 814 372 844 l 289 374 q 353 163 289 236 q 532 90 418 90 q 658 119 600 90 q 740 388 740 186 l 740 825 l 619 840 l 621 908 l 976 908 l 985 864 m 450 1118 q 364 1015 429 1046 q 258 1101 289 1038 q 347 1221 267 1178 q 450 1118 433 1188 m 751 1118 q 664 1015 731 1046 q 558 1101 589 1038 q 649 1221 569 1178 q 751 1118 735 1188 z "},"Ý":{"ha":864,"x_min":-1,"x_max":867,"o":"m 511 83 l 626 68 l 625 0 l 243 0 l 235 44 q 344 92 274 65 l 344 347 l 86 829 l -1 840 l 0 908 l 343 908 l 351 864 l 267 826 l 407 561 l 444 446 l 451 446 l 642 826 l 535 840 l 536 908 l 858 908 l 867 864 q 763 819 821 839 l 511 354 l 511 83 m 600 1231 l 675 1096 l 332 958 l 278 1049 l 600 1231 z "},"Þ":{"ha":846,"x_min":40,"x_max":797,"o":"m 333 210 l 333 85 l 465 68 l 464 0 l 49 0 l 40 49 q 164 100 78 71 l 164 819 l 51 835 l 53 903 l 449 903 l 457 856 q 333 804 419 833 l 333 721 l 472 721 q 707 649 617 721 q 797 464 797 576 q 706 284 797 356 q 467 210 614 213 l 333 210 m 333 599 l 333 314 l 408 308 q 570 352 519 308 q 621 465 621 396 q 521 629 621 574 l 333 599 z "},"ß":{"ha":803,"x_min":14,"x_max":774,"o":"m 504 500 q 614 395 517 460 q 742 281 711 331 q 774 175 774 232 q 706 30 774 83 q 538 -24 639 -24 q 344 24 443 -24 l 399 168 q 590 82 496 97 q 618 157 618 121 q 588 230 618 199 q 493 306 558 261 q 400 383 428 351 q 371 458 372 415 l 414 526 q 483 641 460 594 q 506 736 506 688 q 472 832 506 788 q 400 842 438 842 q 261 804 317 842 l 275 604 l 275 0 l 24 0 l 18 47 q 115 86 56 67 l 115 528 l 21 526 l 14 597 q 115 642 57 622 l 115 672 q 194 874 117 796 q 392 953 271 953 q 581 883 503 953 q 660 718 660 813 q 504 500 660 596 z "},"à":{"ha":731,"x_min":60,"x_max":713,"o":"m 713 56 l 558 -22 q 497 9 532 -19 q 444 76 463 38 l 292 -19 l 254 -22 q 115 28 169 -22 q 60 149 60 78 q 163 303 60 249 l 431 310 l 431 443 q 364 589 431 554 q 233 567 290 586 l 215 419 l 121 415 q 86 596 83 493 q 259 660 154 631 q 413 689 364 689 q 506 659 460 689 q 578 590 553 629 q 594 485 593 563 l 594 136 q 629 107 594 107 l 696 117 l 713 56 m 258 92 q 431 133 325 92 l 431 233 l 382 235 q 226 154 226 235 q 258 92 226 114 m 388 736 q 156 943 253 864 l 274 1043 l 476 807 l 388 736 z "},"á":{"ha":731,"x_min":60,"x_max":713,"o":"m 713 56 l 558 -22 q 497 9 532 -19 q 444 76 463 38 l 292 -19 l 254 -22 q 115 28 169 -22 q 60 149 60 78 q 163 303 60 249 l 431 310 l 431 443 q 364 589 431 554 q 233 567 290 586 l 215 419 l 121 415 q 86 596 83 493 q 259 660 154 631 q 413 689 364 689 q 506 659 460 689 q 578 590 553 629 q 594 485 593 563 l 594 136 q 629 107 594 107 l 696 117 l 713 56 m 258 92 q 431 133 325 92 l 431 233 l 382 235 q 226 154 226 235 q 258 92 226 114 m 226 807 l 429 1043 l 547 943 q 315 736 450 864 l 226 807 z "},"â":{"ha":731,"x_min":60,"x_max":713,"o":"m 713 56 l 558 -22 q 497 9 532 -19 q 444 76 463 38 l 292 -19 l 254 -22 q 115 28 169 -22 q 60 149 60 78 q 163 303 60 249 l 431 310 l 431 443 q 364 589 431 554 q 233 567 290 586 l 215 419 l 121 415 q 86 596 83 493 q 259 660 154 631 q 413 689 364 689 q 506 659 460 689 q 578 590 553 629 q 594 485 593 563 l 594 136 q 629 107 594 107 l 696 117 l 713 56 m 258 92 q 431 133 325 92 l 431 233 l 382 235 q 226 154 226 235 q 258 92 226 114 m 292 1006 l 421 1006 l 597 806 l 532 743 l 351 892 l 188 738 l 114 796 l 292 1006 z "},"ã":{"ha":731,"x_min":60,"x_max":713,"o":"m 713 56 l 558 -22 q 497 9 532 -19 q 444 76 463 38 l 292 -19 l 254 -22 q 115 28 169 -22 q 60 149 60 78 q 163 303 60 249 l 431 310 l 431 443 q 364 589 431 554 q 233 567 290 586 l 215 419 l 121 415 q 86 596 83 493 q 259 660 154 631 q 413 689 364 689 q 506 659 460 689 q 578 590 553 629 q 594 485 593 563 l 594 136 q 629 107 594 107 l 696 117 l 713 56 m 258 92 q 431 133 325 92 l 431 233 l 382 235 q 226 154 226 235 q 258 92 226 114 m 83 813 q 186 951 146 910 q 267 993 226 993 q 478 871 313 993 l 583 981 l 642 938 q 478 753 539 753 q 353 818 444 753 l 328 835 q 261 868 279 868 q 143 765 233 868 l 83 813 z "},"ä":{"ha":731,"x_min":60,"x_max":713,"o":"m 713 56 l 558 -22 q 497 9 532 -19 q 444 76 463 38 l 292 -19 l 254 -22 q 115 28 169 -22 q 60 149 60 78 q 163 303 60 249 l 431 310 l 431 443 q 364 589 431 554 q 233 567 290 586 l 215 419 l 121 415 q 86 596 83 493 q 259 660 154 631 q 413 689 364 689 q 506 659 460 689 q 578 590 553 629 q 594 485 593 563 l 594 136 q 629 107 594 107 l 696 117 l 713 56 m 258 92 q 431 133 325 92 l 431 233 l 382 235 q 226 154 226 235 q 258 92 226 114 m 296 864 q 210 761 275 792 q 104 847 135 783 q 193 967 113 924 q 296 864 279 933 m 597 864 q 510 761 576 792 q 404 847 435 783 q 494 967 415 924 q 597 864 581 933 z "},"å":{"ha":731,"x_min":60,"x_max":713,"o":"m 713 56 l 558 -22 q 497 9 532 -19 q 444 76 463 38 l 292 -19 l 254 -22 q 115 28 169 -22 q 60 149 60 78 q 163 303 60 249 l 431 310 l 431 443 q 364 589 431 554 q 233 567 290 586 l 215 419 l 121 415 q 86 596 83 493 q 259 660 154 631 q 413 689 364 689 q 506 659 460 689 q 578 590 553 629 q 594 485 593 563 l 594 136 q 629 107 594 107 l 696 117 l 713 56 m 258 92 q 431 133 325 92 l 431 233 l 382 235 q 226 154 226 235 q 258 92 226 114 m 193 890 q 238 1003 193 957 q 350 1049 283 1049 q 463 1003 417 1049 q 508 888 508 957 q 465 777 508 819 q 356 735 422 735 q 240 778 288 735 q 193 890 193 821 m 269 874 q 269 856 269 874 q 294 817 269 839 q 353 794 318 794 q 409 816 388 794 q 431 872 431 838 q 408 931 431 908 q 351 954 385 954 q 293 931 317 954 q 269 874 269 908 z "},"æ":{"ha":1058,"x_min":60,"x_max":1031,"o":"m 589 350 q 650 161 589 221 q 810 101 711 101 q 992 149 889 101 l 1017 83 l 800 -19 q 510 96 613 -28 l 292 -19 l 254 -22 q 115 28 169 -22 q 60 149 60 78 q 163 303 60 249 l 432 310 l 432 440 q 416 536 432 504 q 365 586 400 568 q 235 565 288 583 l 217 418 l 119 415 q 88 594 85 490 q 263 658 160 629 q 419 688 365 688 q 554 601 490 685 q 763 683 642 683 q 955 610 879 683 q 1029 422 1031 538 l 1025 421 l 946 344 l 589 350 m 703 589 q 597 433 619 542 l 875 447 q 816 551 864 511 q 703 589 768 590 m 258 92 q 472 150 322 92 q 442 233 453 188 l 436 233 l 385 235 q 226 154 226 235 q 258 92 226 114 z "},"ç":{"ha":599,"x_min":24,"x_max":585,"o":"m 381 -19 l 365 -21 l 328 -81 q 451 -116 406 -81 q 496 -199 496 -151 q 428 -308 496 -262 q 238 -371 361 -354 l 217 -324 q 324 -267 286 -301 q 363 -201 363 -233 q 257 -150 363 -142 l 219 -93 l 288 -14 q 95 102 167 8 q 24 328 24 196 q 117 583 24 482 q 351 683 210 683 q 585 563 506 683 l 472 461 q 267 583 375 564 q 188 358 188 492 q 244 171 188 243 q 400 99 300 99 q 547 135 468 99 l 574 69 l 381 -19 z "},"è":{"ha":649,"x_min":24,"x_max":622,"o":"m 186 350 q 248 167 186 232 q 406 101 310 101 q 583 149 481 101 l 608 83 l 392 -19 q 127 68 231 -28 q 24 318 24 164 q 120 576 24 468 q 354 683 217 683 q 547 610 471 683 q 621 422 622 538 l 540 344 l 186 350 m 294 589 q 196 433 221 547 l 467 447 q 408 551 456 511 q 294 589 360 590 m 382 736 q 150 943 247 864 l 268 1043 l 471 807 l 382 736 z "},"é":{"ha":649,"x_min":24,"x_max":622,"o":"m 186 350 q 248 167 186 232 q 406 101 310 101 q 583 149 481 101 l 608 83 l 392 -19 q 127 68 231 -28 q 24 318 24 164 q 120 576 24 468 q 354 683 217 683 q 547 610 471 683 q 621 422 622 538 l 540 344 l 186 350 m 294 589 q 196 433 221 547 l 467 447 q 408 551 456 511 q 294 589 360 590 m 221 807 l 424 1043 l 542 943 q 310 736 444 864 l 221 807 z "},"ê":{"ha":649,"x_min":24,"x_max":622,"o":"m 186 350 q 248 167 186 232 q 406 101 310 101 q 583 149 481 101 l 608 83 l 392 -19 q 127 68 231 -28 q 24 318 24 164 q 120 576 24 468 q 354 683 217 683 q 547 610 471 683 q 621 422 622 538 l 540 344 l 186 350 m 294 589 q 196 433 221 547 l 467 447 q 408 551 456 511 q 294 589 360 590 m 286 1006 l 415 1006 l 592 806 l 526 743 l 346 892 l 182 738 l 108 796 l 286 1006 z "},"ë":{"ha":649,"x_min":24,"x_max":622,"o":"m 186 350 q 248 167 186 232 q 406 101 310 101 q 583 149 481 101 l 608 83 l 392 -19 q 127 68 231 -28 q 24 318 24 164 q 120 576 24 468 q 354 683 217 683 q 547 610 471 683 q 621 422 622 538 l 540 344 l 186 350 m 294 589 q 196 433 221 547 l 467 447 q 408 551 456 511 q 294 589 360 590 m 290 864 q 204 761 269 792 q 99 847 129 783 q 188 967 107 924 q 290 864 274 933 m 592 864 q 504 761 571 792 q 399 847 429 783 q 489 967 410 924 q 592 864 575 933 z "},"ì":{"ha":408,"x_min":-1,"x_max":383,"o":"m 297 99 q 383 67 354 83 l 378 0 l 40 0 l 35 47 q 135 86 68 65 l 135 563 l 31 564 l 17 631 q 235 676 113 669 l 297 621 l 297 99 m 231 736 q -1 943 96 864 l 117 1043 l 319 807 l 231 736 z "},"í":{"ha":408,"x_min":17,"x_max":390,"o":"m 297 99 q 383 67 354 83 l 378 0 l 40 0 l 35 47 q 135 86 68 65 l 135 563 l 31 564 l 17 631 q 235 676 113 669 l 297 621 l 297 99 m 69 807 l 272 1043 l 390 943 q 158 736 293 864 l 69 807 z "},"î":{"ha":408,"x_min":-43,"x_max":440,"o":"m 297 99 q 383 67 354 83 l 378 0 l 40 0 l 35 47 q 135 86 68 65 l 135 563 l 31 564 l 17 631 q 235 676 113 669 l 297 621 l 297 99 m 135 1006 l 264 1006 l 440 806 l 375 743 l 194 892 l 31 738 l -43 796 l 135 1006 z "},"ï":{"ha":408,"x_min":-53,"x_max":440,"o":"m 297 99 q 383 67 354 83 l 378 0 l 40 0 l 35 47 q 135 86 68 65 l 135 563 l 31 564 l 17 631 q 235 676 113 669 l 297 621 l 297 99 m 139 864 q 53 761 118 792 q -53 847 -22 783 q 36 967 -44 924 q 139 864 122 933 m 440 864 q 353 761 419 792 q 247 847 278 783 q 338 967 258 924 q 440 864 424 933 z "},"ð":{"ha":706,"x_min":26,"x_max":676,"o":"m 526 867 q 639 606 601 739 q 676 361 676 472 q 588 74 676 183 q 357 -35 499 -35 q 122 69 218 -35 q 26 324 26 172 q 117 569 26 471 q 339 668 207 668 q 479 622 415 668 q 399 803 435 739 l 283 746 l 215 782 l 200 825 l 342 896 l 265 999 l 385 1064 l 467 960 l 597 1025 l 649 928 l 526 867 m 422 76 q 517 356 517 165 q 506 476 517 413 q 296 567 404 564 q 218 465 247 535 q 189 321 189 396 q 246 144 189 213 q 397 75 303 75 l 422 76 z "},"ñ":{"ha":843,"x_min":17,"x_max":821,"o":"m 722 100 q 821 67 786 86 l 814 0 l 488 0 l 482 47 l 560 79 l 560 406 q 472 549 560 549 q 297 475 413 549 l 297 99 q 383 67 354 83 l 378 0 l 40 0 l 35 47 q 135 86 68 65 l 135 565 l 31 567 l 17 633 q 235 679 113 672 l 297 621 l 297 542 q 556 678 467 663 q 640 646 597 672 q 704 582 682 619 q 722 456 721 551 l 722 100 m 151 813 q 254 951 214 910 q 335 993 294 993 q 546 871 381 993 l 651 981 l 710 938 q 546 753 607 753 q 421 818 513 753 l 396 835 q 329 868 347 868 q 211 765 301 868 l 151 813 z "},"ò":{"ha":699,"x_min":24,"x_max":668,"o":"m 24 331 q 116 585 24 486 q 349 683 208 683 q 578 584 489 683 q 668 324 668 485 q 580 68 668 164 q 353 -28 492 -28 q 117 73 210 -28 q 24 331 24 174 m 424 83 q 500 308 500 135 q 460 505 500 428 q 339 582 421 582 q 250 556 286 582 q 193 340 193 485 q 236 150 193 226 q 365 74 279 74 q 424 83 393 74 m 382 736 q 150 943 247 864 l 268 1043 l 471 807 l 382 736 z "},"ó":{"ha":699,"x_min":24,"x_max":668,"o":"m 24 331 q 116 585 24 486 q 349 683 208 683 q 578 584 489 683 q 668 324 668 485 q 580 68 668 164 q 353 -28 492 -28 q 117 73 210 -28 q 24 331 24 174 m 424 83 q 500 308 500 135 q 460 505 500 428 q 339 582 421 582 q 250 556 286 582 q 193 340 193 485 q 236 150 193 226 q 365 74 279 74 q 424 83 393 74 m 221 807 l 424 1043 l 542 943 q 310 736 444 864 l 221 807 z "},"ô":{"ha":699,"x_min":24,"x_max":668,"o":"m 24 331 q 116 585 24 486 q 349 683 208 683 q 578 584 489 683 q 668 324 668 485 q 580 68 668 164 q 353 -28 492 -28 q 117 73 210 -28 q 24 331 24 174 m 424 83 q 500 308 500 135 q 460 505 500 428 q 339 582 421 582 q 250 556 286 582 q 193 340 193 485 q 236 150 193 226 q 365 74 279 74 q 424 83 393 74 m 286 1006 l 415 1006 l 592 806 l 526 743 l 346 892 l 182 738 l 108 796 l 286 1006 z "},"õ":{"ha":699,"x_min":24,"x_max":668,"o":"m 24 331 q 116 585 24 486 q 349 683 208 683 q 578 584 489 683 q 668 324 668 485 q 580 68 668 164 q 353 -28 492 -28 q 117 73 210 -28 q 24 331 24 174 m 424 83 q 500 308 500 135 q 460 505 500 428 q 339 582 421 582 q 250 556 286 582 q 193 340 193 485 q 236 150 193 226 q 365 74 279 74 q 424 83 393 74 m 78 813 q 181 951 140 910 q 261 993 221 993 q 472 871 307 993 l 578 981 l 636 938 q 472 753 533 753 q 347 818 439 753 l 322 835 q 256 868 274 868 q 138 765 228 868 l 78 813 z "},"ö":{"ha":699,"x_min":24,"x_max":668,"o":"m 24 331 q 116 585 24 486 q 349 683 208 683 q 578 584 489 683 q 668 324 668 485 q 580 68 668 164 q 353 -28 492 -28 q 117 73 210 -28 q 24 331 24 174 m 424 83 q 500 308 500 135 q 460 505 500 428 q 339 582 421 582 q 250 556 286 582 q 193 340 193 485 q 236 150 193 226 q 365 74 279 74 q 424 83 393 74 m 290 864 q 204 761 269 792 q 99 847 129 783 q 188 967 107 924 q 290 864 274 933 m 592 864 q 504 761 571 792 q 399 847 429 783 q 489 967 410 924 q 592 864 575 933 z "},"÷":{"ha":833,"x_min":81,"x_max":753,"o":"m 522 585 q 433 479 497 508 q 360 515 383 490 q 321 569 338 539 q 355 646 326 619 q 415 692 383 672 q 522 585 499 657 m 753 279 l 81 279 l 81 386 l 753 386 l 753 279 m 521 78 q 432 -29 494 0 q 341 23 361 -14 q 319 61 321 60 q 414 183 328 140 q 521 78 497 150 z "},"ø":{"ha":703,"x_min":24,"x_max":668,"o":"m 582 581 q 668 324 668 483 q 580 68 668 164 q 353 -28 492 -28 q 215 1 281 -28 l 147 -107 l 60 -49 l 129 61 q 24 331 24 161 q 116 585 24 486 q 349 683 208 683 q 501 646 432 683 l 556 732 l 644 678 l 582 581 m 193 340 q 215 196 193 258 l 435 542 q 339 582 394 582 q 250 556 286 582 q 193 340 193 485 m 424 83 q 500 308 500 135 q 488 431 500 375 l 279 101 q 365 74 315 74 q 424 83 393 74 z "},"ù":{"ha":819,"x_min":0,"x_max":808,"o":"m 808 56 l 654 -22 q 589 14 625 -19 q 538 89 553 47 q 283 -22 399 -6 q 197 15 240 -15 q 135 81 153 46 q 117 225 117 117 l 117 565 l 14 567 l 0 633 q 218 679 97 674 l 218 678 l 279 624 l 279 218 q 369 106 283 106 q 528 158 435 106 l 528 565 l 432 568 l 418 635 q 628 679 515 676 l 690 624 l 690 136 q 726 107 690 107 l 792 117 l 808 56 m 411 736 q 179 943 276 864 l 297 1043 l 500 807 l 411 736 z "},"ú":{"ha":819,"x_min":0,"x_max":808,"o":"m 808 56 l 654 -22 q 589 14 625 -19 q 538 89 553 47 q 283 -22 399 -6 q 197 15 240 -15 q 135 81 153 46 q 117 225 117 117 l 117 565 l 14 567 l 0 633 q 218 679 97 674 l 218 678 l 279 624 l 279 218 q 369 106 283 106 q 528 158 435 106 l 528 565 l 432 568 l 418 635 q 628 679 515 676 l 690 624 l 690 136 q 726 107 690 107 l 792 117 l 808 56 m 250 807 l 453 1043 l 571 943 q 339 736 474 864 l 250 807 z "},"û":{"ha":819,"x_min":0,"x_max":808,"o":"m 808 56 l 654 -22 q 589 14 625 -19 q 538 89 553 47 q 283 -22 399 -6 q 197 15 240 -15 q 135 81 153 46 q 117 225 117 117 l 117 565 l 14 567 l 0 633 q 218 679 97 674 l 218 678 l 279 624 l 279 218 q 369 106 283 106 q 528 158 435 106 l 528 565 l 432 568 l 418 635 q 628 679 515 676 l 690 624 l 690 136 q 726 107 690 107 l 792 117 l 808 56 m 315 1006 l 444 1006 l 621 806 l 556 743 l 375 892 l 211 738 l 138 796 l 315 1006 z "},"ü":{"ha":819,"x_min":0,"x_max":808,"o":"m 808 56 l 654 -22 q 589 14 625 -19 q 538 89 553 47 q 283 -22 399 -6 q 197 15 240 -15 q 135 81 153 46 q 117 225 117 117 l 117 565 l 14 567 l 0 633 q 218 679 97 674 l 218 678 l 279 624 l 279 218 q 369 106 283 106 q 528 158 435 106 l 528 565 l 432 568 l 418 635 q 628 679 515 676 l 690 624 l 690 136 q 726 107 690 107 l 792 117 l 808 56 m 319 864 q 233 761 299 792 q 128 847 158 783 q 217 967 136 924 q 319 864 303 933 m 621 864 q 533 761 600 792 q 428 847 458 783 q 518 967 439 924 q 621 864 604 933 z "},"ý":{"ha":725,"x_min":-22,"x_max":738,"o":"m 738 599 l 656 565 q 500 90 567 265 q 366 -134 447 -37 q 157 -304 285 -231 l 69 -151 q 339 0 244 -89 q 250 44 288 17 l 63 561 l -22 585 l -21 656 l 308 656 l 315 599 l 239 567 l 332 275 l 351 135 l 376 135 q 492 568 442 321 l 414 585 l 415 656 l 731 656 l 738 599 m 243 807 l 446 1043 l 564 943 q 332 736 467 864 l 243 807 z "},"þ":{"ha":756,"x_min":-29,"x_max":725,"o":"m 351 -26 q 256 -17 303 -26 l 256 -179 q 374 -215 339 -199 l 368 -282 l 7 -282 l 1 -236 l 93 -201 l 93 29 l 92 29 l 92 903 l -17 908 l -29 975 q 194 1022 85 1019 l 194 1021 l 256 965 l 256 564 l 417 672 l 469 678 q 653 585 581 678 q 725 353 725 492 q 620 81 725 188 q 351 -26 515 -26 m 396 546 q 256 494 342 546 l 256 115 q 399 78 321 78 l 449 82 q 527 181 499 115 q 556 321 556 247 q 511 479 556 413 q 396 546 467 546 z "},"ÿ":{"ha":725,"x_min":-22,"x_max":738,"o":"m 738 599 l 656 565 q 500 90 567 265 q 366 -134 447 -37 q 157 -304 285 -231 l 69 -151 q 339 0 244 -89 q 250 44 288 17 l 63 561 l -22 585 l -21 656 l 308 656 l 315 599 l 239 567 l 332 275 l 351 135 l 376 135 q 492 568 442 321 l 414 585 l 415 656 l 731 656 l 738 599 m 313 864 q 226 761 292 792 q 121 847 151 783 q 210 967 129 924 q 313 864 296 933 m 614 864 q 526 761 593 792 q 421 847 451 783 q 511 967 432 924 q 614 864 597 933 z "},"Ā":{"ha":982,"x_min":-28,"x_max":988,"o":"m 988 68 l 986 0 l 582 0 l 574 44 q 701 97 619 69 l 636 265 l 283 265 l 214 86 l 350 68 l 349 0 l -19 0 l -28 44 q 88 93 22 71 l 404 864 l 390 899 l 536 942 l 888 81 l 988 68 m 599 361 l 460 721 l 319 361 l 599 361 m 757 1140 l 764 1083 l 699 1031 l 217 1031 l 208 1106 q 365 1140 276 1140 l 757 1140 z "},"ā":{"ha":731,"x_min":60,"x_max":713,"o":"m 713 56 l 558 -22 q 497 9 532 -19 q 444 76 463 38 l 292 -19 l 254 -22 q 115 28 169 -22 q 60 149 60 78 q 163 303 60 249 l 431 310 l 431 443 q 364 589 431 554 q 233 567 290 586 l 215 419 l 121 415 q 86 596 83 493 q 259 660 154 631 q 413 689 364 689 q 506 659 460 689 q 578 590 553 629 q 594 485 593 563 l 594 136 q 629 107 594 107 l 696 117 l 713 56 m 258 92 q 431 133 325 92 l 431 233 l 382 235 q 226 154 226 235 q 258 92 226 114 m 611 890 l 618 833 l 553 781 l 132 781 l 124 856 q 281 890 194 890 l 611 890 z "},"Ă":{"ha":982,"x_min":-28,"x_max":988,"o":"m 988 68 l 986 0 l 582 0 l 574 44 q 701 97 619 69 l 636 265 l 283 265 l 214 86 l 350 68 l 349 0 l -19 0 l -28 44 q 88 93 22 71 l 404 864 l 390 899 l 536 942 l 888 81 l 988 68 m 599 361 l 460 721 l 319 361 l 599 361 m 689 1189 q 622 1038 681 1092 q 481 985 564 985 q 337 1038 397 985 q 263 1185 276 1090 l 372 1200 q 471 1089 388 1089 q 568 1197 560 1089 l 689 1189 z "},"ă":{"ha":731,"x_min":60,"x_max":713,"o":"m 713 56 l 558 -22 q 497 9 532 -19 q 444 76 463 38 l 292 -19 l 254 -22 q 115 28 169 -22 q 60 149 60 78 q 163 303 60 249 l 431 310 l 431 443 q 364 589 431 554 q 233 567 290 586 l 215 419 l 121 415 q 86 596 83 493 q 259 660 154 631 q 413 689 364 689 q 506 659 460 689 q 578 590 553 629 q 594 485 593 563 l 594 136 q 629 107 594 107 l 696 117 l 713 56 m 258 92 q 431 133 325 92 l 431 233 l 382 235 q 226 154 226 235 q 258 92 226 114 m 565 981 q 504 819 563 876 q 358 763 446 763 q 213 817 275 763 q 140 979 150 872 l 247 993 q 350 868 264 868 q 418 901 393 868 q 444 989 443 933 l 565 981 z "},"Ą":{"ha":982,"x_min":-28,"x_max":988,"o":"m 890 0 q 722 -185 722 -92 q 744 -241 722 -219 q 804 -262 765 -262 q 917 -226 853 -262 l 944 -286 l 778 -367 q 650 -330 701 -372 q 599 -221 599 -287 q 648 -104 599 -162 q 788 0 697 -46 l 582 0 l 574 44 q 701 97 619 69 l 636 265 l 283 265 l 214 86 l 350 68 l 349 0 l -19 0 l -28 44 q 88 93 22 71 l 404 864 l 390 899 l 536 942 l 888 81 l 988 68 l 986 0 l 890 0 m 599 361 l 460 721 l 319 361 l 599 361 z "},"ą":{"ha":710,"x_min":60,"x_max":713,"o":"m 481 -158 q 503 -215 481 -193 q 564 -236 525 -236 q 676 -201 615 -236 l 703 -261 l 536 -342 q 409 -304 461 -347 q 357 -194 357 -261 q 506 3 357 -86 q 444 76 464 35 l 292 -19 l 254 -22 q 115 28 169 -22 q 60 149 60 78 q 163 303 60 249 l 431 310 l 431 443 q 364 589 431 554 q 233 567 290 586 l 215 419 l 121 415 q 86 596 83 493 q 259 660 154 631 q 413 689 364 689 q 506 659 460 689 q 578 590 553 629 q 594 485 593 563 l 594 136 q 629 107 594 107 l 696 117 l 713 56 l 619 8 q 481 -158 481 -72 m 258 92 q 431 133 325 92 l 431 233 l 382 235 q 226 154 226 235 q 258 92 226 114 z "},"Ć":{"ha":789,"x_min":18,"x_max":767,"o":"m 767 101 l 488 -22 q 145 101 272 -26 q 18 443 18 229 q 143 797 18 658 q 467 936 268 936 q 743 850 625 936 l 742 846 l 743 807 q 715 617 743 703 l 610 617 l 588 776 q 381 825 493 825 l 347 824 q 233 678 269 774 q 197 476 197 583 q 284 203 197 306 q 515 110 371 101 l 736 185 l 767 101 m 600 1231 l 675 1096 l 332 958 l 278 1049 l 600 1231 z "},"ć":{"ha":599,"x_min":24,"x_max":585,"o":"m 381 -19 l 354 -21 q 115 77 207 -21 q 24 328 24 175 q 117 583 24 482 q 351 683 210 683 q 585 563 506 683 l 472 461 q 267 583 375 564 q 188 358 188 492 q 244 171 188 243 q 400 99 300 99 q 547 135 468 99 l 574 69 l 381 -19 m 217 807 l 419 1043 l 538 943 q 306 736 440 864 l 217 807 z "},"Č":{"ha":789,"x_min":18,"x_max":767,"o":"m 767 101 l 488 -22 q 145 101 272 -26 q 18 443 18 229 q 143 797 18 658 q 467 936 268 936 q 743 850 625 936 l 742 846 l 743 807 q 715 617 743 703 l 610 617 l 588 776 q 381 825 493 825 l 347 824 q 233 678 269 774 q 197 476 197 583 q 284 203 197 306 q 515 110 371 101 l 736 185 l 767 101 m 449 1083 l 633 1239 l 701 1163 l 508 983 l 378 981 l 183 1143 l 272 1233 l 449 1083 z "},"č":{"ha":599,"x_min":24,"x_max":585,"o":"m 381 -19 l 354 -21 q 115 77 207 -21 q 24 328 24 175 q 117 583 24 482 q 351 683 210 683 q 585 563 506 683 l 472 461 q 267 583 375 564 q 188 358 188 492 q 244 171 188 243 q 400 99 300 99 q 547 135 468 99 l 574 69 l 381 -19 m 342 853 l 494 1044 l 576 976 l 404 751 l 271 749 l 79 953 l 179 1043 l 342 853 z "},"Ď":{"ha":946,"x_min":39,"x_max":922,"o":"m 489 919 q 799 786 676 919 q 922 461 922 653 q 797 130 922 257 q 461 0 671 3 l 47 0 l 39 44 l 157 94 l 157 829 l 58 839 l 60 908 q 489 919 290 919 m 444 104 q 657 203 576 104 q 738 457 738 303 q 687 678 738 576 q 556 825 636 779 l 326 804 l 326 121 q 444 104 383 104 m 450 1083 l 635 1239 l 703 1163 l 510 983 l 379 981 l 185 1143 l 274 1233 l 450 1083 z "},"ď":{"ha":925,"x_min":24,"x_max":936,"o":"m 764 56 l 610 -22 q 545 13 581 -19 q 493 86 510 44 l 339 -22 q 113 76 203 -24 q 24 324 24 175 q 126 581 24 478 q 381 683 228 683 q 483 668 435 683 l 483 907 l 379 910 l 365 976 q 583 1022 461 1015 l 646 965 l 646 136 q 682 107 646 107 l 747 117 l 764 56 m 194 343 q 241 178 194 244 q 365 113 288 113 q 483 147 418 113 l 483 533 q 331 581 414 581 l 286 576 q 194 343 194 496 m 893 1118 q 936 1004 936 1071 q 897 871 936 940 q 793 744 857 801 l 736 794 q 800 942 800 881 q 760 1006 800 986 l 757 1053 l 893 1118 z "},"Đ":{"ha":974,"x_min":22,"x_max":922,"o":"m 489 919 q 799 786 676 919 q 922 461 922 653 q 797 130 922 257 q 461 0 671 3 l 47 0 l 39 44 l 157 94 l 157 389 l 31 389 l 22 432 l 82 492 l 157 492 l 157 829 l 58 839 l 60 908 q 489 919 290 919 m 444 104 q 657 203 576 104 q 738 457 738 303 q 687 678 738 576 q 556 825 636 779 l 326 804 l 326 492 l 529 492 l 538 449 l 478 389 l 326 389 l 326 121 q 444 104 383 104 z "},"đ":{"ha":785,"x_min":24,"x_max":782,"o":"m 682 107 l 747 117 l 764 56 l 610 -22 q 545 13 581 -19 q 493 86 510 44 l 339 -22 q 113 76 203 -24 q 24 324 24 175 q 126 581 24 478 q 381 683 228 683 q 483 668 435 683 l 483 754 l 315 754 l 307 797 l 367 836 l 483 836 l 483 907 l 379 910 l 365 976 q 583 1022 461 1015 l 646 965 l 646 836 l 774 836 l 782 793 l 722 754 l 646 754 l 646 136 q 682 107 646 107 m 194 343 q 241 178 194 244 q 365 113 288 113 q 483 147 418 113 l 483 533 q 331 581 414 581 l 286 576 q 194 343 194 496 z "},"Ē":{"ha":819,"x_min":39,"x_max":753,"o":"m 750 263 q 733 0 753 124 l 47 0 l 39 44 l 157 94 l 157 829 l 57 839 l 58 908 l 738 908 l 739 869 q 719 663 739 771 l 624 663 l 603 796 l 326 814 l 326 499 l 636 524 l 636 393 l 326 406 l 326 103 l 614 119 l 656 269 l 750 263 m 701 1140 l 708 1083 l 643 1031 l 161 1031 l 153 1106 q 310 1140 221 1140 l 701 1140 z "},"ē":{"ha":649,"x_min":24,"x_max":622,"o":"m 186 350 q 248 167 186 232 q 406 101 310 101 q 583 149 481 101 l 608 83 l 392 -19 q 127 68 231 -28 q 24 318 24 164 q 120 576 24 468 q 354 683 217 683 q 547 610 471 683 q 621 422 622 538 l 540 344 l 186 350 m 294 589 q 196 433 221 547 l 467 447 q 408 551 456 511 q 294 589 360 590 m 606 890 l 613 833 l 547 781 l 126 781 l 118 856 q 275 890 189 890 l 606 890 z "},"Ė":{"ha":819,"x_min":39,"x_max":753,"o":"m 750 263 q 733 0 753 124 l 47 0 l 39 44 l 157 94 l 157 829 l 57 839 l 58 908 l 738 908 l 739 869 q 719 663 739 771 l 624 663 l 603 796 l 326 814 l 326 499 l 636 524 l 636 393 l 326 406 l 326 103 l 614 119 l 656 269 l 750 263 m 515 1118 q 431 1015 497 1050 q 322 1101 353 1036 q 413 1221 333 1178 q 515 1118 503 1185 z "},"ė":{"ha":649,"x_min":24,"x_max":622,"o":"m 186 350 q 248 167 186 232 q 406 101 310 101 q 583 149 481 101 l 608 83 l 392 -19 q 127 68 231 -28 q 24 318 24 164 q 120 576 24 468 q 354 683 217 683 q 547 610 471 683 q 621 422 622 538 l 540 344 l 186 350 m 294 589 q 196 433 221 547 l 467 447 q 408 551 456 511 q 294 589 360 590 m 442 864 q 357 761 424 796 q 249 847 279 782 q 339 967 260 924 q 442 864 429 931 z "},"Ę":{"ha":821,"x_min":39,"x_max":788,"o":"m 788 -287 l 621 -368 q 493 -331 544 -374 q 442 -222 442 -289 q 492 -105 442 -164 q 633 0 543 -46 l 47 0 l 39 44 l 157 94 l 157 829 l 57 839 l 58 908 l 738 908 l 739 869 q 719 663 739 771 l 624 663 l 603 796 l 326 814 l 326 499 l 636 524 l 636 393 l 326 406 l 326 103 l 614 119 l 656 269 l 750 263 q 733 1 753 125 l 736 0 q 565 -186 565 -93 q 587 -242 565 -221 q 647 -264 608 -264 q 760 -228 696 -264 l 788 -287 z "},"ę":{"ha":674,"x_min":24,"x_max":622,"o":"m 186 350 q 248 167 186 232 q 406 101 310 101 q 583 149 481 101 l 608 83 l 531 42 q 374 -135 374 -44 q 396 -191 374 -169 q 457 -212 418 -212 q 569 -178 508 -212 l 596 -236 l 431 -318 q 303 -281 356 -324 q 251 -171 251 -237 q 335 -18 251 -93 q 110 85 196 -8 q 24 318 24 178 q 120 576 24 468 q 354 683 217 683 q 547 610 471 683 q 621 422 622 538 l 540 344 l 186 350 m 294 589 q 196 433 221 547 l 467 447 q 408 551 456 511 q 294 589 360 590 z "},"Ě":{"ha":819,"x_min":39,"x_max":753,"o":"m 750 263 q 733 0 753 124 l 47 0 l 39 44 l 157 94 l 157 829 l 57 839 l 58 908 l 738 908 l 739 869 q 719 663 739 771 l 624 663 l 603 796 l 326 814 l 326 499 l 636 524 l 636 393 l 326 406 l 326 103 l 614 119 l 656 269 l 750 263 m 419 1083 l 604 1239 l 672 1163 l 479 983 l 349 981 l 154 1143 l 243 1233 l 419 1083 z "},"ě":{"ha":649,"x_min":24,"x_max":622,"o":"m 186 350 q 248 167 186 232 q 406 101 310 101 q 583 149 481 101 l 608 83 l 392 -19 q 127 68 231 -28 q 24 318 24 164 q 120 576 24 468 q 354 683 217 683 q 547 610 471 683 q 621 422 622 538 l 540 344 l 186 350 m 294 589 q 196 433 221 547 l 467 447 q 408 551 456 511 q 294 589 360 590 m 346 853 l 499 1044 l 581 976 l 408 751 l 275 749 l 83 953 l 183 1043 l 346 853 z "},"Ğ":{"ha":949,"x_min":18,"x_max":913,"o":"m 806 99 l 807 97 l 524 -28 l 485 -29 q 224 38 329 -29 q 69 210 119 104 q 18 436 18 317 q 155 795 18 654 q 511 936 292 936 q 797 851 681 936 l 796 847 l 797 814 q 771 633 797 726 l 667 633 l 643 774 q 410 826 532 826 l 357 824 q 236 674 276 774 q 196 456 196 575 q 278 195 196 297 q 494 92 361 93 q 644 111 554 90 l 644 314 q 499 372 553 344 l 507 419 l 911 419 l 913 353 l 806 335 l 806 99 m 693 1189 q 626 1038 685 1092 q 485 985 568 985 q 341 1038 401 985 q 267 1185 281 1090 l 376 1200 q 475 1089 392 1089 q 572 1197 564 1089 l 693 1189 z "},"ğ":{"ha":774,"x_min":33,"x_max":753,"o":"m 753 600 q 619 578 676 604 q 660 451 660 522 q 573 281 660 347 q 357 215 486 215 l 310 218 q 226 144 263 183 q 472 117 332 143 q 707 56 611 90 q 717 -15 717 21 q 596 -235 717 -143 q 311 -328 475 -328 q 114 -276 194 -328 q 38 -125 33 -224 l 197 19 l 99 25 l 72 103 q 224 238 144 185 q 102 321 147 265 q 57 451 57 376 q 144 624 57 554 q 360 693 231 693 q 551 642 469 693 q 722 761 600 747 l 753 600 m 439 310 q 499 440 499 358 q 453 556 499 507 q 344 606 407 606 q 264 586 303 606 q 221 460 221 539 q 259 342 221 388 q 364 296 297 296 q 439 310 394 296 m 329 -194 q 492 -161 413 -194 q 607 -68 572 -128 q 279 11 506 -17 q 175 -117 175 -64 q 218 -174 175 -153 q 329 -194 261 -194 m 572 981 q 511 819 569 876 q 365 763 453 763 q 219 817 282 763 q 147 979 157 872 l 254 993 q 357 868 271 868 q 425 901 400 868 q 451 989 450 933 l 572 981 z "},"Ģ":{"ha":949,"x_min":18,"x_max":913,"o":"m 806 99 l 807 97 l 524 -28 l 485 -29 q 224 38 329 -29 q 69 210 119 104 q 18 436 18 317 q 155 795 18 654 q 511 936 292 936 q 797 851 681 936 l 796 847 l 797 814 q 771 633 797 726 l 667 633 l 643 774 q 410 826 532 826 l 357 824 q 236 674 276 774 q 196 456 196 575 q 278 195 196 297 q 494 92 361 93 q 644 111 554 90 l 644 314 q 499 372 553 344 l 507 419 l 911 419 l 913 353 l 806 335 l 806 99 m 493 -86 q 556 -186 556 -121 q 521 -295 556 -237 q 444 -390 486 -353 l 382 -350 q 428 -246 428 -289 q 393 -183 428 -208 l 390 -143 l 493 -86 z "},"ģ":{"ha":774,"x_min":33,"x_max":753,"o":"m 753 600 q 619 578 676 604 q 660 451 660 522 q 573 281 660 347 q 357 215 486 215 l 310 218 q 226 144 263 183 q 472 117 332 143 q 707 56 611 90 q 717 -15 717 21 q 596 -235 717 -143 q 311 -328 475 -328 q 114 -276 194 -328 q 38 -125 33 -224 l 197 19 l 99 25 l 72 103 q 224 238 144 185 q 102 321 147 265 q 57 451 57 376 q 144 624 57 554 q 360 693 231 693 q 551 642 469 693 q 722 761 600 747 l 753 600 m 439 310 q 499 440 499 358 q 453 556 499 507 q 344 606 407 606 q 264 586 303 606 q 221 460 221 539 q 259 342 221 388 q 364 296 297 296 q 439 310 394 296 m 329 -194 q 492 -161 413 -194 q 607 -68 572 -128 q 279 11 506 -17 q 175 -117 175 -64 q 218 -174 175 -153 q 329 -194 261 -194 m 440 1035 q 503 935 503 1000 q 468 826 503 883 q 392 731 433 768 l 329 771 q 375 875 375 832 q 340 938 375 913 l 338 978 l 440 1035 z "},"Ī":{"ha":529,"x_min":43,"x_max":489,"o":"m 424 1001 l 51 1001 l 43 1076 q 200 1111 111 1111 l 482 1111 l 489 1054 l 424 1001 m 342 85 l 474 68 l 472 0 l 63 0 l 54 44 l 172 94 l 172 826 l 65 840 l 67 908 l 451 908 l 460 864 q 342 814 425 844 l 342 85 z "},"ī":{"ha":457,"x_min":19,"x_max":431,"o":"m 365 803 l 28 803 l 19 878 q 176 913 90 913 l 424 913 l 431 856 l 365 803 m 326 99 q 413 67 383 83 l 407 0 l 69 0 l 64 47 q 164 86 97 65 l 164 563 l 60 564 l 46 631 q 264 676 142 669 l 326 621 l 326 99 z "},"Į":{"ha":497,"x_min":39,"x_max":458,"o":"m 350 0 q 182 -185 182 -92 q 203 -241 182 -219 q 264 -262 225 -262 q 376 -226 313 -262 l 404 -286 l 238 -367 q 110 -330 161 -372 q 58 -221 58 -287 q 108 -104 58 -162 q 247 0 157 -46 l 47 0 l 39 44 l 157 94 l 157 826 l 50 840 l 51 908 l 436 908 l 444 864 q 326 814 410 844 l 326 85 l 458 68 l 457 0 l 350 0 z "},"į":{"ha":440,"x_min":17,"x_max":411,"o":"m 224 786 q 97 883 147 818 q 200 1010 139 967 q 321 907 271 978 q 224 786 289 829 m 411 -283 l 244 -364 q 117 -326 169 -369 q 65 -217 65 -283 q 249 0 65 -96 l 35 0 l 29 47 q 135 88 69 68 l 135 565 l 31 567 l 17 633 q 235 679 113 672 l 297 624 l 297 100 q 396 67 361 89 l 390 0 l 351 0 q 189 -181 189 -87 q 211 -237 189 -215 q 272 -258 233 -258 q 385 -224 324 -258 l 411 -283 z "},"İ":{"ha":497,"x_min":39,"x_max":458,"o":"m 458 68 l 457 0 l 47 0 l 39 44 l 157 94 l 157 826 l 50 840 l 51 908 l 436 908 l 444 864 q 326 814 410 844 l 326 85 l 458 68 m 340 1118 q 256 1015 322 1050 q 147 1101 178 1036 q 238 1221 158 1178 q 340 1118 328 1185 z "},"ı":{"ha":408,"x_min":17,"x_max":383,"o":"m 297 99 q 383 67 354 83 l 378 0 l 40 0 l 35 47 q 135 86 68 65 l 135 563 l 31 564 l 17 631 q 235 676 113 669 l 297 621 l 297 99 z "},"Ķ":{"ha":951,"x_min":39,"x_max":936,"o":"m 936 69 l 935 0 l 700 0 l 401 413 l 326 333 l 326 85 l 453 68 l 451 0 l 47 0 l 39 44 l 157 94 l 157 826 l 49 840 l 50 908 l 436 908 l 444 864 q 326 814 410 844 l 326 479 l 651 828 l 557 840 l 558 908 l 882 908 l 890 864 q 785 821 857 844 l 514 533 l 854 79 l 936 69 m 538 -86 q 600 -186 600 -121 q 565 -295 600 -237 q 489 -390 531 -353 l 426 -350 q 472 -246 472 -289 q 438 -183 472 -208 l 435 -143 l 538 -86 z "},"ķ":{"ha":815,"x_min":17,"x_max":778,"o":"m 778 35 l 600 -17 q 526 44 561 -6 l 382 271 l 297 260 l 297 96 q 372 67 343 85 l 367 0 l 36 0 l 31 47 q 135 88 74 68 l 135 907 l 31 910 l 17 976 q 235 1022 113 1015 l 297 967 l 297 332 l 375 378 l 536 572 l 431 567 l 417 633 q 671 679 522 672 l 671 678 l 719 601 l 506 349 l 656 132 q 721 97 682 97 l 761 101 l 778 35 m 419 -86 q 482 -186 482 -121 q 447 -295 482 -237 q 371 -390 413 -353 l 308 -350 q 354 -246 354 -289 q 319 -183 354 -208 l 317 -143 l 419 -86 z "},"Ĺ":{"ha":794,"x_min":39,"x_max":782,"o":"m 779 299 q 761 0 782 117 l 47 0 l 39 44 l 157 94 l 157 826 l 50 840 l 51 908 l 436 908 l 444 864 q 326 814 410 844 l 326 104 l 633 124 l 679 306 l 779 299 m 401 1231 l 476 1096 l 133 958 l 79 1049 l 401 1231 z "},"ĺ":{"ha":439,"x_min":17,"x_max":438,"o":"m 297 100 q 396 67 361 89 l 390 0 l 35 0 l 29 47 q 135 88 69 68 l 135 907 l 31 910 l 17 976 q 235 1022 113 1015 l 297 967 l 297 100 m 363 1349 l 438 1214 l 94 1076 l 40 1167 l 363 1349 z "},"Ļ":{"ha":794,"x_min":39,"x_max":782,"o":"m 779 299 q 761 0 782 117 l 47 0 l 39 44 l 157 94 l 157 826 l 50 840 l 51 908 l 436 908 l 444 864 q 326 814 410 844 l 326 104 l 633 124 l 679 306 l 779 299 m 414 -86 q 476 -186 476 -121 q 442 -295 476 -237 q 365 -390 407 -353 l 303 -350 q 349 -246 349 -289 q 314 -183 349 -208 l 311 -143 l 414 -86 z "},"ļ":{"ha":439,"x_min":17,"x_max":396,"o":"m 297 100 q 396 67 361 89 l 390 0 l 35 0 l 29 47 q 135 88 69 68 l 135 907 l 31 910 l 17 976 q 235 1022 113 1015 l 297 967 l 297 100 m 239 -86 q 301 -186 301 -121 q 267 -295 301 -237 q 190 -390 232 -353 l 128 -350 q 174 -246 174 -289 q 139 -183 174 -208 l 136 -143 l 239 -86 z "},"Ľ":{"ha":800,"x_min":39,"x_max":782,"o":"m 779 299 q 761 0 782 117 l 47 0 l 39 44 l 157 94 l 157 826 l 50 840 l 51 908 l 436 908 l 444 864 q 326 814 410 844 l 326 104 l 633 124 l 679 306 l 779 299 m 722 1057 q 765 943 765 1010 q 726 810 765 879 q 622 683 686 740 l 565 733 q 629 881 629 819 q 589 944 629 925 l 586 992 l 722 1057 z "},"ľ":{"ha":596,"x_min":17,"x_max":590,"o":"m 297 100 q 396 67 361 89 l 390 0 l 35 0 l 29 47 q 135 88 69 68 l 135 907 l 31 910 l 17 976 q 235 1022 113 1015 l 297 967 l 297 100 m 547 1104 q 590 990 590 1057 q 551 857 590 926 q 447 731 511 788 l 390 781 q 454 928 454 867 q 414 992 454 972 l 411 1039 l 547 1104 z "},"Ł":{"ha":817,"x_min":40,"x_max":806,"o":"m 803 299 q 785 0 806 117 l 71 0 l 63 44 l 181 94 l 181 336 l 85 285 l 40 367 l 181 443 l 181 826 l 74 840 l 75 908 l 460 908 l 468 864 q 350 814 433 844 l 350 536 l 535 636 l 558 604 l 542 531 l 350 428 l 350 104 l 657 124 l 703 306 l 803 299 z "},"ł":{"ha":532,"x_min":17,"x_max":463,"o":"m 326 508 l 326 100 q 425 67 390 89 l 419 0 l 64 0 l 58 47 q 164 88 99 68 l 164 421 l 61 365 l 17 444 l 164 525 l 164 907 l 60 910 l 46 976 q 264 1022 142 1015 l 326 967 l 326 614 l 431 671 l 463 647 l 463 582 l 326 508 z "},"Ń":{"ha":1054,"x_min":39,"x_max":1015,"o":"m 897 0 l 729 -17 l 728 -17 l 729 -15 l 263 714 l 285 533 l 285 83 l 407 68 l 406 0 l 47 0 l 39 44 l 157 94 l 157 828 l 63 840 l 64 908 l 343 908 l 794 193 l 772 371 l 772 822 l 636 840 l 638 908 l 1007 908 l 1015 864 q 900 815 974 840 l 897 0 m 654 1231 l 729 1096 l 386 958 l 332 1049 l 654 1231 z "},"ń":{"ha":843,"x_min":17,"x_max":821,"o":"m 722 100 q 821 67 786 86 l 814 0 l 488 0 l 482 47 l 560 79 l 560 406 q 472 549 560 549 q 297 475 413 549 l 297 99 q 383 67 354 83 l 378 0 l 40 0 l 35 47 q 135 86 68 65 l 135 565 l 31 567 l 17 633 q 235 679 113 672 l 297 621 l 297 542 q 556 678 467 663 q 640 646 597 672 q 704 582 682 619 q 722 456 721 551 l 722 100 m 294 807 l 497 1043 l 615 943 q 383 736 518 864 l 294 807 z "},"Ņ":{"ha":1054,"x_min":39,"x_max":1015,"o":"m 897 0 l 729 -17 l 728 -17 l 729 -15 l 263 714 l 285 533 l 285 83 l 407 68 l 406 0 l 47 0 l 39 44 l 157 94 l 157 828 l 63 840 l 64 908 l 343 908 l 794 193 l 772 371 l 772 822 l 636 840 l 638 908 l 1007 908 l 1015 864 q 900 815 974 840 l 897 0 m 551 -86 q 614 -186 614 -121 q 579 -295 614 -237 q 503 -390 544 -353 l 440 -350 q 486 -246 486 -289 q 451 -183 486 -208 l 449 -143 l 551 -86 z "},"ņ":{"ha":843,"x_min":17,"x_max":821,"o":"m 722 100 q 821 67 786 86 l 814 0 l 488 0 l 482 47 l 560 79 l 560 406 q 472 549 560 549 q 297 475 413 549 l 297 99 q 383 67 354 83 l 378 0 l 40 0 l 35 47 q 135 86 68 65 l 135 565 l 31 567 l 17 633 q 235 679 113 672 l 297 621 l 297 542 q 556 678 467 663 q 640 646 597 672 q 704 582 682 619 q 722 456 721 551 l 722 100 m 456 -86 q 518 -186 518 -121 q 483 -295 518 -237 q 407 -390 449 -353 l 344 -350 q 390 -246 390 -289 q 356 -183 390 -208 l 353 -143 l 456 -86 z "},"Ň":{"ha":1054,"x_min":39,"x_max":1015,"o":"m 897 0 l 729 -17 l 728 -17 l 729 -15 l 263 714 l 285 533 l 285 83 l 407 68 l 406 0 l 47 0 l 39 44 l 157 94 l 157 828 l 63 840 l 64 908 l 343 908 l 794 193 l 772 371 l 772 822 l 636 840 l 638 908 l 1007 908 l 1015 864 q 900 815 974 840 l 897 0 m 503 1083 l 688 1239 l 756 1163 l 563 983 l 432 981 l 238 1143 l 326 1233 l 503 1083 z "},"ň":{"ha":843,"x_min":17,"x_max":821,"o":"m 722 100 q 821 67 786 86 l 814 0 l 488 0 l 482 47 l 560 79 l 560 406 q 472 549 560 549 q 297 475 413 549 l 297 99 q 383 67 354 83 l 378 0 l 40 0 l 35 47 q 135 86 68 65 l 135 565 l 31 567 l 17 633 q 235 679 113 672 l 297 621 l 297 542 q 556 678 467 663 q 640 646 597 672 q 704 582 682 619 q 722 456 721 551 l 722 100 m 419 853 l 572 1044 l 654 976 l 482 751 l 349 749 l 157 953 l 257 1043 l 419 853 z "},"Ō":{"ha":922,"x_min":24,"x_max":899,"o":"m 456 936 q 774 799 649 936 q 899 443 899 663 q 778 101 899 231 q 465 -28 657 -28 q 148 103 272 -28 q 24 449 24 235 q 146 800 24 664 q 456 936 268 936 m 319 806 q 237 673 268 765 q 206 471 206 581 q 283 189 206 294 q 490 83 360 83 q 583 96 536 83 q 678 230 642 138 q 714 436 714 322 q 638 719 714 611 q 438 828 563 828 q 319 806 381 828 m 743 1140 l 750 1083 l 685 1031 l 203 1031 l 194 1106 q 351 1140 263 1140 l 743 1140 z "},"ō":{"ha":699,"x_min":24,"x_max":668,"o":"m 24 331 q 116 585 24 486 q 349 683 208 683 q 578 584 489 683 q 668 324 668 485 q 580 68 668 164 q 353 -28 492 -28 q 117 73 210 -28 q 24 331 24 174 m 424 83 q 500 308 500 135 q 460 505 500 428 q 339 582 421 582 q 250 556 286 582 q 193 340 193 485 q 236 150 193 226 q 365 74 279 74 q 424 83 393 74 m 606 890 l 613 833 l 547 781 l 126 781 l 118 856 q 275 890 189 890 l 606 890 z "},"Ő":{"ha":922,"x_min":24,"x_max":899,"o":"m 456 936 q 774 799 649 936 q 899 443 899 663 q 778 101 899 231 q 465 -28 657 -28 q 148 103 272 -28 q 24 449 24 235 q 146 800 24 664 q 456 936 268 936 m 319 806 q 237 673 268 765 q 206 471 206 581 q 283 189 206 294 q 490 83 360 83 q 583 96 536 83 q 678 230 642 138 q 714 436 714 322 q 638 719 714 611 q 438 828 563 828 q 319 806 381 828 m 451 1281 l 572 1196 q 329 989 465 1110 l 247 1060 l 451 1281 m 715 1275 l 835 1189 q 592 983 714 1092 l 511 1054 l 715 1275 z "},"ő":{"ha":699,"x_min":24,"x_max":706,"o":"m 24 331 q 116 585 24 486 q 349 683 208 683 q 578 584 489 683 q 668 324 668 485 q 580 68 668 164 q 353 -28 492 -28 q 117 73 210 -28 q 24 331 24 174 m 424 83 q 500 308 500 135 q 460 505 500 428 q 339 582 421 582 q 250 556 286 582 q 193 340 193 485 q 236 150 193 226 q 365 74 279 74 q 424 83 393 74 m 311 1043 l 440 968 q 215 738 351 883 l 128 799 l 311 1043 m 576 1043 l 706 968 q 481 738 617 883 l 393 799 l 576 1043 z "},"Œ":{"ha":1290,"x_min":53,"x_max":1233,"o":"m 1231 263 q 1214 0 1233 124 l 644 0 q 497 -18 583 -18 q 281 34 382 -18 q 116 194 179 86 q 53 463 53 301 q 122 722 53 617 q 299 878 192 828 q 524 929 407 929 q 669 908 599 929 l 1218 908 l 1219 869 q 1200 663 1219 771 l 1104 663 l 1083 793 l 808 806 l 808 500 l 1108 524 l 1108 393 l 808 406 l 808 107 l 1094 121 l 1136 269 l 1231 263 m 231 458 q 308 192 231 293 q 514 92 385 92 q 639 113 594 92 l 639 794 q 499 818 581 818 q 361 796 422 818 q 266 657 301 750 q 231 458 231 564 z "},"œ":{"ha":1122,"x_min":24,"x_max":1093,"o":"m 653 350 q 715 163 653 224 q 876 101 778 101 q 1056 149 953 101 l 1081 83 l 864 -19 q 592 85 696 -26 q 353 -28 503 -28 q 117 73 210 -28 q 24 331 24 174 q 116 585 24 486 q 349 683 208 683 q 588 571 496 683 q 826 683 685 683 q 1018 610 943 683 q 1093 422 1093 538 l 1013 344 l 653 350 m 767 589 q 664 433 692 546 l 939 447 q 880 551 928 511 q 767 589 832 590 m 424 83 q 501 308 501 136 q 461 505 501 428 q 339 582 421 582 q 250 556 286 582 q 193 340 193 485 q 236 150 193 226 q 365 74 279 74 q 424 83 393 74 z "},"Ŕ":{"ha":924,"x_min":39,"x_max":907,"o":"m 907 68 l 906 0 l 661 0 l 467 357 l 326 356 l 326 86 l 464 68 l 463 0 l 47 0 l 39 44 l 157 94 l 157 829 l 57 839 l 58 908 l 474 919 q 724 842 628 919 q 821 644 821 764 q 770 489 821 561 q 629 382 719 417 l 815 79 l 907 68 m 326 461 q 432 450 389 450 q 593 506 546 450 q 640 643 640 561 q 544 825 640 774 l 326 804 l 326 461 m 569 1231 l 644 1096 l 301 958 l 247 1049 l 569 1231 z "},"ŕ":{"ha":624,"x_min":17,"x_max":614,"o":"m 611 640 q 574 396 614 521 l 483 396 l 461 551 q 297 401 367 489 l 297 104 q 442 67 401 90 l 436 0 l 38 0 l 32 47 q 135 88 76 69 l 135 565 l 31 567 l 17 633 q 235 679 113 672 l 297 624 l 297 506 l 439 660 q 510 674 472 674 q 611 640 569 674 m 204 807 l 407 1043 l 525 943 q 293 736 428 864 l 204 807 z "},"Ŗ":{"ha":924,"x_min":39,"x_max":907,"o":"m 907 68 l 906 0 l 661 0 l 467 357 l 326 356 l 326 86 l 464 68 l 463 0 l 47 0 l 39 44 l 157 94 l 157 829 l 57 839 l 58 908 l 474 919 q 724 842 628 919 q 821 644 821 764 q 770 489 821 561 q 629 382 719 417 l 815 79 l 907 68 m 326 461 q 432 450 389 450 q 593 506 546 450 q 640 643 640 561 q 544 825 640 774 l 326 804 l 326 461 m 458 -86 q 521 -186 521 -121 q 486 -295 521 -237 q 410 -390 451 -353 l 347 -350 q 393 -246 393 -289 q 358 -183 393 -208 l 356 -143 l 458 -86 z "},"ŗ":{"ha":624,"x_min":17,"x_max":614,"o":"m 611 640 q 574 396 614 521 l 483 396 l 461 551 q 297 401 367 489 l 297 104 q 442 67 401 90 l 436 0 l 38 0 l 32 47 q 135 88 76 69 l 135 565 l 31 567 l 17 633 q 235 679 113 672 l 297 624 l 297 506 l 439 660 q 510 674 472 674 q 611 640 569 674 m 271 -86 q 333 -186 333 -121 q 299 -295 333 -237 q 222 -390 264 -353 l 160 -350 q 206 -246 206 -289 q 171 -183 206 -208 l 168 -143 l 271 -86 z "},"Ř":{"ha":924,"x_min":39,"x_max":907,"o":"m 907 68 l 906 0 l 661 0 l 467 357 l 326 356 l 326 86 l 464 68 l 463 0 l 47 0 l 39 44 l 157 94 l 157 829 l 57 839 l 58 908 l 474 919 q 724 842 628 919 q 821 644 821 764 q 770 489 821 561 q 629 382 719 417 l 815 79 l 907 68 m 326 461 q 432 450 389 450 q 593 506 546 450 q 640 643 640 561 q 544 825 640 774 l 326 804 l 326 461 m 417 1083 l 601 1239 l 669 1163 l 476 983 l 346 981 l 151 1143 l 240 1233 l 417 1083 z "},"ř":{"ha":624,"x_min":17,"x_max":614,"o":"m 611 640 q 574 396 614 521 l 483 396 l 461 551 q 297 401 367 489 l 297 104 q 442 67 401 90 l 436 0 l 38 0 l 32 47 q 135 88 76 69 l 135 565 l 31 567 l 17 633 q 235 679 113 672 l 297 624 l 297 506 l 439 660 q 510 674 472 674 q 611 640 569 674 m 329 853 l 482 1044 l 564 976 l 392 751 l 258 749 l 67 953 l 167 1043 l 329 853 z "},"Ś":{"ha":771,"x_min":75,"x_max":713,"o":"m 713 246 q 620 49 713 125 q 388 -28 528 -28 q 217 -3 308 -28 q 75 65 126 22 l 76 69 l 75 118 q 93 311 75 225 l 181 311 l 225 128 q 433 75 313 75 l 464 76 q 542 206 542 115 q 447 338 542 283 l 228 450 q 79 674 79 538 q 175 863 79 790 q 419 936 271 936 q 671 890 533 936 q 653 644 678 774 l 560 644 l 533 789 q 350 835 456 835 l 308 833 q 243 714 243 793 q 343 588 243 640 l 551 485 q 713 246 713 394 m 547 1231 l 622 1096 l 279 958 l 225 1049 l 547 1231 z "},"ś":{"ha":600,"x_min":31,"x_max":546,"o":"m 201 519 q 236 452 201 478 q 343 394 271 426 l 436 347 q 546 178 546 285 q 475 30 546 88 q 292 -28 404 -28 q 31 46 164 -28 l 92 188 q 358 69 217 97 q 392 140 392 99 q 363 206 392 179 q 231 281 335 233 q 89 373 126 328 q 51 478 51 418 q 132 628 51 572 q 329 683 213 683 q 519 640 436 683 l 521 640 l 522 607 q 497 456 522 529 l 407 456 l 386 572 q 249 592 313 596 q 201 519 201 567 m 188 807 l 390 1043 l 508 943 q 276 736 411 864 l 188 807 z "},"Ş":{"ha":771,"x_min":75,"x_max":713,"o":"m 713 246 q 625 53 713 129 q 403 -28 538 -24 l 369 -81 q 492 -116 447 -81 q 538 -199 538 -151 q 470 -308 538 -262 q 279 -371 403 -354 l 258 -324 q 366 -267 328 -301 q 404 -201 404 -233 q 299 -150 404 -142 l 261 -93 l 321 -24 q 75 65 154 -1 l 76 69 l 75 118 q 93 311 75 225 l 181 311 l 225 128 q 433 75 313 75 l 464 76 q 542 206 542 115 q 447 338 542 283 l 228 450 q 79 674 79 538 q 175 863 79 790 q 419 936 271 936 q 671 890 533 936 q 653 644 678 774 l 560 644 l 533 789 q 350 835 456 835 l 308 833 q 243 714 243 793 q 343 588 243 640 l 551 485 q 713 246 713 394 z "},"ş":{"ha":600,"x_min":31,"x_max":546,"o":"m 546 178 q 487 39 546 94 q 329 -26 428 -17 l 294 -81 q 417 -116 372 -81 q 463 -199 463 -151 q 395 -308 463 -262 q 204 -371 328 -354 l 183 -324 q 291 -267 253 -301 q 329 -201 329 -233 q 224 -150 329 -142 l 186 -93 l 244 -25 q 31 46 138 -14 l 92 188 q 358 69 217 97 q 392 140 392 99 q 363 206 392 179 q 231 281 335 233 q 89 373 126 328 q 51 478 51 418 q 132 628 51 572 q 329 683 213 683 q 519 640 436 683 l 521 640 l 522 607 q 497 456 522 529 l 407 456 l 386 572 q 249 592 313 596 q 201 519 201 567 q 236 452 201 478 q 343 394 271 426 l 436 347 q 546 178 546 285 z "},"Š":{"ha":771,"x_min":75,"x_max":713,"o":"m 713 246 q 620 49 713 125 q 388 -28 528 -28 q 217 -3 308 -28 q 75 65 126 22 l 76 69 l 75 118 q 93 311 75 225 l 181 311 l 225 128 q 433 75 313 75 l 464 76 q 542 206 542 115 q 447 338 542 283 l 228 450 q 79 674 79 538 q 175 863 79 790 q 419 936 271 936 q 671 890 533 936 q 653 644 678 774 l 560 644 l 533 789 q 350 835 456 835 l 308 833 q 243 714 243 793 q 343 588 243 640 l 551 485 q 713 246 713 394 m 396 1083 l 581 1239 l 649 1163 l 456 983 l 325 981 l 131 1143 l 219 1233 l 396 1083 z "},"š":{"ha":600,"x_min":31,"x_max":547,"o":"m 201 519 q 236 452 201 478 q 343 394 271 426 l 436 347 q 546 178 546 285 q 475 30 546 88 q 292 -28 404 -28 q 31 46 164 -28 l 92 188 q 358 69 217 97 q 392 140 392 99 q 363 206 392 179 q 231 281 335 233 q 89 373 126 328 q 51 478 51 418 q 132 628 51 572 q 329 683 213 683 q 519 640 436 683 l 521 640 l 522 607 q 497 456 522 529 l 407 456 l 386 572 q 249 592 313 596 q 201 519 201 567 m 313 853 l 465 1044 l 547 976 l 375 751 l 242 749 l 50 953 l 150 1043 l 313 853 z "},"Ţ":{"ha":863,"x_min":13,"x_max":850,"o":"m 849 917 l 850 881 q 831 653 850 772 l 736 653 l 718 810 l 515 821 l 515 88 l 667 68 l 665 0 l 475 0 l 425 -81 q 548 -116 503 -81 q 593 -199 593 -151 q 526 -308 593 -262 q 335 -371 458 -354 l 314 -324 q 422 -267 383 -301 q 460 -201 460 -233 q 354 -150 460 -142 l 317 -93 l 397 0 l 208 0 l 200 44 l 301 83 l 346 99 l 346 821 l 143 810 l 125 653 l 32 653 q 13 872 13 767 l 14 917 l 433 911 q 849 917 654 911 z "},"ţ":{"ha":504,"x_min":19,"x_max":476,"o":"m 306 -7 l 260 -81 q 383 -116 338 -81 q 428 -199 428 -151 q 360 -308 428 -262 q 169 -371 293 -354 l 149 -324 q 256 -267 218 -301 q 294 -201 294 -233 q 189 -150 294 -142 l 151 -93 l 219 -14 q 148 37 178 3 q 118 107 118 71 l 118 532 l 28 531 l 19 600 q 125 649 76 632 l 186 826 l 267 826 l 278 653 l 472 653 l 476 603 l 410 529 l 281 529 l 281 185 q 291 130 281 146 q 329 114 301 114 q 451 140 367 114 l 469 74 l 306 -7 z "},"Ť":{"ha":863,"x_min":13,"x_max":850,"o":"m 849 917 l 850 881 q 831 653 850 772 l 736 653 l 718 810 l 515 821 l 515 88 l 667 68 l 665 0 l 208 0 l 200 44 l 301 83 l 346 99 l 346 821 l 143 810 l 125 653 l 32 653 q 13 872 13 767 l 14 917 l 433 911 q 849 917 654 911 m 435 1083 l 619 1239 l 688 1163 l 494 983 l 364 981 l 169 1143 l 258 1233 l 435 1083 z "},"ť":{"ha":707,"x_min":19,"x_max":707,"o":"m 329 114 q 451 140 367 114 l 469 74 l 274 -22 q 168 17 218 -25 q 118 108 118 58 l 118 532 l 28 531 l 19 600 q 125 649 76 632 l 186 826 l 267 826 l 278 653 l 472 653 l 476 603 l 410 529 l 281 529 l 281 185 q 291 130 281 146 q 329 114 301 114 m 664 1113 q 707 999 707 1065 q 667 865 707 935 q 564 739 628 796 l 507 789 q 571 936 571 875 q 531 1000 571 981 l 528 1047 l 664 1113 z "},"Ū":{"ha":997,"x_min":13,"x_max":985,"o":"m 985 864 q 867 814 950 844 l 867 389 q 519 -26 860 -26 q 228 86 335 -26 q 119 396 121 199 l 119 826 l 13 840 l 14 908 l 399 908 l 407 864 q 289 814 372 844 l 289 374 q 353 163 289 236 q 532 90 418 90 q 658 119 600 90 q 740 388 740 186 l 740 825 l 619 840 l 621 908 l 976 908 l 985 864 m 788 1140 l 794 1083 l 729 1031 l 247 1031 l 239 1106 q 396 1140 307 1140 l 788 1140 z "},"ū":{"ha":819,"x_min":0,"x_max":808,"o":"m 808 56 l 654 -22 q 589 14 625 -19 q 538 89 553 47 q 283 -22 399 -6 q 197 15 240 -15 q 135 81 153 46 q 117 225 117 117 l 117 565 l 14 567 l 0 633 q 218 679 97 674 l 218 678 l 279 624 l 279 218 q 369 106 283 106 q 528 158 435 106 l 528 565 l 432 568 l 418 635 q 628 679 515 676 l 690 624 l 690 136 q 726 107 690 107 l 792 117 l 808 56 m 635 890 l 642 833 l 576 781 l 156 781 l 147 856 q 304 890 218 890 l 635 890 z "},"Ů":{"ha":997,"x_min":13,"x_max":985,"o":"m 985 864 q 867 814 950 844 l 867 389 q 519 -26 860 -26 q 228 86 335 -26 q 119 396 121 199 l 119 826 l 13 840 l 14 908 l 399 908 l 407 864 q 289 814 372 844 l 289 374 q 353 163 289 236 q 532 90 418 90 q 658 119 600 90 q 740 388 740 186 l 740 825 l 619 840 l 621 908 l 976 908 l 985 864 m 347 1143 q 392 1256 347 1210 q 504 1301 438 1301 q 617 1256 571 1301 q 663 1140 663 1210 q 619 1030 663 1072 q 510 988 576 988 q 394 1031 442 988 q 347 1143 347 1074 m 424 1126 q 424 1109 424 1126 q 448 1069 424 1092 q 507 1047 472 1047 q 563 1069 542 1047 q 585 1125 585 1090 q 562 1184 585 1161 q 506 1207 539 1207 q 447 1184 471 1207 q 424 1126 424 1161 z "},"ů":{"ha":819,"x_min":0,"x_max":808,"o":"m 808 56 l 654 -22 q 589 14 625 -19 q 538 89 553 47 q 283 -22 399 -6 q 197 15 240 -15 q 135 81 153 46 q 117 225 117 117 l 117 565 l 14 567 l 0 633 q 218 679 97 674 l 218 678 l 279 624 l 279 218 q 369 106 283 106 q 528 158 435 106 l 528 565 l 432 568 l 418 635 q 628 679 515 676 l 690 624 l 690 136 q 726 107 690 107 l 792 117 l 808 56 m 217 890 q 262 1003 217 957 q 374 1049 307 1049 q 486 1003 440 1049 q 532 888 532 957 q 489 777 532 819 q 379 735 446 735 q 264 778 311 735 q 217 890 217 821 m 293 874 q 293 856 293 874 q 317 817 293 839 q 376 794 342 794 q 433 816 411 794 q 454 872 454 838 q 431 931 454 908 q 375 954 408 954 q 317 931 340 954 q 293 874 293 908 z "},"Ű":{"ha":997,"x_min":13,"x_max":985,"o":"m 985 864 q 867 814 950 844 l 867 389 q 519 -26 860 -26 q 228 86 335 -26 q 119 396 121 199 l 119 826 l 13 840 l 14 908 l 399 908 l 407 864 q 289 814 372 844 l 289 374 q 353 163 289 236 q 532 90 418 90 q 658 119 600 90 q 740 388 740 186 l 740 825 l 619 840 l 621 908 l 976 908 l 985 864 m 496 1281 l 617 1196 q 374 989 510 1110 l 292 1060 l 496 1281 m 760 1275 l 879 1189 q 636 983 758 1092 l 556 1054 l 760 1275 z "},"ű":{"ha":819,"x_min":0,"x_max":808,"o":"m 808 56 l 654 -22 q 589 14 625 -19 q 538 89 553 47 q 283 -22 399 -6 q 197 15 240 -15 q 135 81 153 46 q 117 225 117 117 l 117 565 l 14 567 l 0 633 q 218 679 97 674 l 218 678 l 279 624 l 279 218 q 369 106 283 106 q 528 158 435 106 l 528 565 l 432 568 l 418 635 q 628 679 515 676 l 690 624 l 690 136 q 726 107 690 107 l 792 117 l 808 56 m 340 1043 l 469 968 q 244 738 381 883 l 157 799 l 340 1043 m 606 1043 l 735 968 q 510 738 646 883 l 422 799 l 606 1043 z "},"Ų":{"ha":997,"x_min":13,"x_max":985,"o":"m 985 864 q 867 814 950 844 l 867 389 q 632 -12 861 49 q 486 -185 486 -100 q 508 -241 486 -219 q 568 -262 529 -262 q 681 -226 617 -262 l 708 -286 l 542 -367 q 414 -330 465 -372 q 363 -221 363 -287 q 506 -26 363 -117 q 224 90 328 -22 q 119 396 121 203 l 119 826 l 13 840 l 14 908 l 399 908 l 407 864 q 289 814 372 844 l 289 374 q 353 163 289 236 q 532 90 418 90 q 658 119 600 90 q 740 388 740 186 l 740 825 l 619 840 l 621 908 l 976 908 l 985 864 z "},"ų":{"ha":819,"x_min":0,"x_max":808,"o":"m 567 -158 q 589 -215 567 -193 q 650 -236 611 -236 q 763 -201 701 -236 l 789 -261 l 622 -342 q 495 -304 547 -347 q 443 -194 443 -261 q 597 6 443 -85 q 538 89 554 42 q 283 -22 399 -6 q 197 15 240 -15 q 135 81 153 46 q 117 225 117 117 l 117 565 l 14 567 l 0 633 q 218 679 97 674 l 218 678 l 279 624 l 279 218 q 369 106 283 106 q 528 158 435 106 l 528 565 l 432 568 l 418 635 q 628 679 515 676 l 690 624 l 690 136 q 726 107 690 107 l 792 117 l 808 56 l 669 -15 q 567 -158 567 -86 z "},"Ÿ":{"ha":864,"x_min":-1,"x_max":867,"o":"m 511 83 l 626 68 l 625 0 l 243 0 l 235 44 q 344 92 274 65 l 344 347 l 86 829 l -1 840 l 0 908 l 343 908 l 351 864 l 267 826 l 407 561 l 444 446 l 451 446 l 642 826 l 535 840 l 536 908 l 858 908 l 867 864 q 763 819 821 839 l 511 354 l 511 83 m 392 1118 q 306 1015 371 1046 q 200 1101 231 1038 q 289 1221 208 1178 q 392 1118 375 1188 m 693 1118 q 606 1015 672 1046 q 500 1101 531 1038 q 590 1221 511 1178 q 693 1118 676 1188 z "},"Ź":{"ha":838,"x_min":47,"x_max":788,"o":"m 788 275 q 751 0 781 157 l 89 0 l 47 78 l 574 814 l 226 796 l 196 632 l 100 632 q 85 836 85 718 l 88 908 l 739 908 l 738 906 l 740 908 l 778 831 l 263 113 l 631 119 l 685 289 l 788 275 m 578 1231 l 653 1096 l 310 958 l 256 1049 l 578 1231 z "},"ź":{"ha":689,"x_min":35,"x_max":657,"o":"m 581 222 l 654 211 q 617 -17 650 89 l 163 28 l 104 -22 l 35 35 l 429 572 l 193 554 l 163 415 l 75 415 q 60 576 60 489 l 64 656 l 557 656 l 600 685 l 657 633 l 274 115 l 543 121 l 581 222 m 226 807 l 429 1043 l 547 943 q 315 736 450 864 l 226 807 z "},"Ż":{"ha":838,"x_min":47,"x_max":788,"o":"m 788 275 q 751 0 781 157 l 89 0 l 47 78 l 574 814 l 226 796 l 196 632 l 100 632 q 85 836 85 718 l 88 908 l 739 908 l 738 906 l 740 908 l 778 831 l 263 113 l 631 119 l 685 289 l 788 275 m 521 1118 q 436 1015 503 1050 q 328 1101 358 1036 q 418 1221 339 1178 q 521 1118 508 1185 z "},"ż":{"ha":689,"x_min":35,"x_max":657,"o":"m 581 222 l 654 211 q 617 -17 650 89 l 163 28 l 104 -22 l 35 35 l 429 572 l 193 554 l 163 415 l 75 415 q 60 576 60 489 l 64 656 l 557 656 l 600 685 l 657 633 l 274 115 l 543 121 l 581 222 m 447 864 q 363 761 429 796 q 254 847 285 782 q 344 967 265 924 q 447 864 435 931 z "},"Ž":{"ha":838,"x_min":47,"x_max":788,"o":"m 788 275 q 751 0 781 157 l 89 0 l 47 78 l 574 814 l 226 796 l 196 632 l 100 632 q 85 836 85 718 l 88 908 l 739 908 l 738 906 l 740 908 l 778 831 l 263 113 l 631 119 l 685 289 l 788 275 m 426 1083 l 611 1239 l 679 1163 l 486 983 l 356 981 l 161 1143 l 250 1233 l 426 1083 z "},"ž":{"ha":689,"x_min":35,"x_max":657,"o":"m 581 222 l 654 211 q 617 -17 650 89 l 163 28 l 104 -22 l 35 35 l 429 572 l 193 554 l 163 415 l 75 415 q 60 576 60 489 l 64 656 l 557 656 l 600 685 l 657 633 l 274 115 l 543 121 l 581 222 m 351 853 l 504 1044 l 586 976 l 414 751 l 281 749 l 89 953 l 189 1043 l 351 853 z "},"Ș":{"ha":771,"x_min":75,"x_max":713,"o":"m 713 246 q 620 49 713 125 q 388 -28 528 -28 q 217 -3 308 -28 q 75 65 126 22 l 76 69 l 75 118 q 93 311 75 225 l 181 311 l 225 128 q 433 75 313 75 l 464 76 q 542 206 542 115 q 447 338 542 283 l 228 450 q 79 674 79 538 q 175 863 79 790 q 419 936 271 936 q 671 890 533 936 q 653 644 678 774 l 560 644 l 533 789 q 350 835 456 835 l 308 833 q 243 714 243 793 q 343 588 243 640 l 551 485 q 713 246 713 394 m 392 -86 q 454 -186 454 -121 q 419 -295 454 -237 q 343 -390 385 -353 l 281 -350 q 326 -246 326 -289 q 292 -183 326 -208 l 289 -143 l 392 -86 z "},"ș":{"ha":600,"x_min":31,"x_max":546,"o":"m 201 519 q 236 452 201 478 q 343 394 271 426 l 436 347 q 546 178 546 285 q 475 30 546 88 q 292 -28 404 -28 q 31 46 164 -28 l 92 188 q 358 69 217 97 q 392 140 392 99 q 363 206 392 179 q 231 281 335 233 q 89 373 126 328 q 51 478 51 418 q 132 628 51 572 q 329 683 213 683 q 519 640 436 683 l 521 640 l 522 607 q 497 456 522 529 l 407 456 l 386 572 q 249 592 313 596 q 201 519 201 567 m 317 -86 q 379 -186 379 -121 q 344 -295 379 -237 q 268 -390 310 -353 l 206 -350 q 251 -246 251 -289 q 217 -183 251 -208 l 214 -143 l 317 -86 z "},"Ț":{"ha":863,"x_min":13,"x_max":850,"o":"m 849 917 l 850 881 q 831 653 850 772 l 736 653 l 718 810 l 515 821 l 515 88 l 667 68 l 665 0 l 208 0 l 200 44 l 301 83 l 346 99 l 346 821 l 143 810 l 125 653 l 32 653 q 13 872 13 767 l 14 917 l 433 911 q 849 917 654 911 m 447 -86 q 510 -186 510 -121 q 475 -295 510 -237 q 399 -390 440 -353 l 336 -350 q 382 -246 382 -289 q 347 -183 382 -208 l 344 -143 l 447 -86 z "},"ț":{"ha":504,"x_min":19,"x_max":476,"o":"m 329 114 q 451 140 367 114 l 469 74 l 274 -22 q 168 17 218 -25 q 118 108 118 58 l 118 532 l 28 531 l 19 600 q 125 649 76 632 l 186 826 l 267 826 l 278 653 l 472 653 l 476 603 l 410 529 l 281 529 l 281 185 q 291 130 281 146 q 329 114 301 114 m 282 -86 q 344 -186 344 -121 q 310 -295 344 -237 q 233 -390 275 -353 l 171 -350 q 217 -246 217 -289 q 182 -183 217 -208 l 179 -143 l 282 -86 z "},"ˆ":{"ha":551,"x_min":38,"x_max":521,"o":"m 215 1008 l 344 1008 l 521 808 l 456 746 l 275 894 l 111 740 l 38 799 l 215 1008 z "},"ˇ":{"ha":574,"x_min":42,"x_max":539,"o":"m 304 856 l 457 1047 l 539 979 l 367 754 l 233 751 l 42 956 l 142 1046 l 304 856 z "},"ˉ":{"ha":0,"x_min":-225,"x_max":269,"o":"m 263 893 l 269 836 l 204 783 l -217 783 l -225 858 q -68 893 -154 893 l 263 893 z "},"˘":{"ha":503,"x_min":50,"x_max":475,"o":"m 475 983 q 414 822 472 879 q 268 765 356 765 q 122 820 185 765 q 50 982 60 875 l 157 996 q 260 871 174 871 q 328 903 303 871 q 354 992 353 936 l 475 983 z "},"˙":{"ha":276,"x_min":42,"x_max":235,"o":"m 235 867 q 150 764 217 799 q 42 850 72 785 q 132 969 53 926 q 235 867 222 933 z "},"˚":{"ha":394,"x_min":40,"x_max":356,"o":"m 40 1143 q 85 1256 40 1210 q 197 1301 131 1301 q 310 1256 264 1301 q 356 1140 356 1210 q 313 1030 356 1072 q 203 988 269 988 q 88 1031 135 988 q 40 1143 40 1074 m 117 1126 q 117 1109 117 1126 q 141 1069 117 1092 q 200 1047 165 1047 q 256 1069 235 1047 q 278 1125 278 1090 q 255 1184 278 1161 q 199 1207 232 1207 q 140 1184 164 1207 q 117 1126 117 1161 z "},"˛":{"ha":393,"x_min":46,"x_max":392,"o":"m 340 22 q 169 -162 169 -68 q 192 -219 169 -197 q 253 -240 214 -240 q 365 -206 304 -240 l 392 -265 l 225 -346 q 98 -308 150 -351 q 46 -199 46 -265 q 112 -65 46 -131 q 294 47 178 1 l 340 22 z "},"˜":{"ha":663,"x_min":51,"x_max":610,"o":"m 51 815 q 154 954 114 913 q 235 996 194 996 q 446 874 281 996 l 551 983 l 610 940 q 446 756 507 756 q 321 821 413 756 l 296 838 q 229 871 247 871 q 111 768 201 871 l 51 815 z "},"˝":{"ha":664,"x_min":42,"x_max":619,"o":"m 225 1046 l 354 971 q 129 740 265 886 l 42 801 l 225 1046 m 490 1046 l 619 971 q 394 740 531 886 l 307 801 l 490 1046 z "},"π":{"ha":947,"x_min":42,"x_max":908,"o":"m 854 526 l 746 531 l 789 0 l 672 -4 l 617 42 l 613 536 l 435 543 l 425 285 q 367 45 415 111 q 226 -21 319 -21 q 63 14 157 -21 l 117 146 l 246 68 q 263 196 258 93 l 275 550 l 201 553 l 85 471 l 42 524 q 115 603 68 564 q 199 653 163 642 l 903 653 l 908 567 l 854 526 z "},"–":{"ha":778,"x_min":54,"x_max":718,"o":"m 713 422 l 718 372 l 651 304 l 64 304 l 54 383 q 218 422 129 422 l 713 422 z "},"—":{"ha":1378,"x_min":54,"x_max":1318,"o":"m 1313 422 l 1318 372 l 1253 304 l 64 304 l 54 383 q 224 422 129 422 l 1313 422 z "},"‘":{"ha":321,"x_min":39,"x_max":265,"o":"m 265 994 q 171 842 183 933 l 246 781 q 213 709 240 743 q 147 661 185 675 q 39 803 39 704 q 88 940 39 872 q 221 1051 138 1008 l 265 994 z "},"’":{"ha":322,"x_min":56,"x_max":283,"o":"m 56 718 q 150 871 142 782 l 75 932 q 108 1003 81 969 q 175 1051 136 1038 q 283 907 283 1007 q 233 771 283 838 q 100 661 183 704 l 56 718 z "},"‚":{"ha":322,"x_min":56,"x_max":283,"o":"m 56 -115 q 150 38 142 -51 l 75 99 q 108 170 81 136 q 175 218 136 204 q 283 74 283 174 q 233 -62 283 4 q 100 -172 183 -129 l 56 -115 z "},"“":{"ha":574,"x_min":39,"x_max":518,"o":"m 265 994 q 171 842 183 933 l 246 781 q 213 709 240 743 q 147 661 185 675 q 39 803 39 704 q 88 940 39 872 q 221 1051 138 1008 l 265 994 m 518 994 q 424 842 436 933 l 499 781 q 465 709 493 743 q 400 661 438 675 q 292 803 292 704 q 341 940 292 872 q 474 1051 390 1008 l 518 994 z "},"”":{"ha":575,"x_min":56,"x_max":536,"o":"m 56 718 q 150 871 142 782 l 75 932 q 108 1003 81 969 q 175 1051 136 1038 q 283 907 283 1007 q 233 771 283 838 q 100 661 183 704 l 56 718 m 308 718 q 403 871 394 782 l 328 932 q 361 1003 333 969 q 428 1051 389 1038 q 536 907 536 1007 q 486 771 536 838 q 353 661 436 704 l 308 718 z "},"„":{"ha":575,"x_min":56,"x_max":536,"o":"m 56 -115 q 150 38 142 -51 l 75 99 q 108 170 81 136 q 175 218 136 204 q 283 74 283 174 q 233 -62 283 4 q 100 -172 183 -129 l 56 -115 m 308 -115 q 403 38 394 -51 l 328 99 q 361 170 333 136 q 428 218 389 204 q 536 74 536 174 q 486 -62 536 4 q 353 -172 436 -129 l 308 -115 z "},"†":{"ha":754,"x_min":64,"x_max":690,"o":"m 631 542 l 443 542 l 419 -250 l 307 -250 l 288 542 l 72 542 l 64 585 l 124 650 l 285 650 l 278 907 l 328 957 l 456 951 l 446 650 l 682 650 l 690 607 l 631 542 z "},"‡":{"ha":764,"x_min":64,"x_max":700,"o":"m 682 282 l 690 239 l 631 172 l 442 172 l 429 -250 l 317 -250 l 306 172 l 72 172 l 64 215 l 124 282 l 303 282 l 297 542 l 82 542 l 74 585 l 133 650 l 294 650 l 288 907 l 338 957 l 465 951 l 456 650 l 692 650 l 700 607 l 640 542 l 453 542 l 446 282 l 682 282 z "},"•":{"ha":574,"x_min":106,"x_max":468,"o":"m 468 363 q 306 169 436 233 q 106 333 163 210 q 275 556 132 483 q 468 363 421 500 z "},"…":{"ha":1293,"x_min":128,"x_max":1182,"o":"m 343 88 q 247 -26 319 10 q 128 71 164 -6 q 229 201 142 158 q 343 88 326 163 m 763 88 q 667 -26 739 10 q 547 71 583 -6 q 649 201 561 158 q 763 88 746 163 m 1182 88 q 1086 -26 1158 10 q 967 71 1003 -6 q 1068 201 981 158 q 1182 88 1165 163 z "},"‰":{"ha":1644,"x_min":75,"x_max":1568,"o":"m 75 604 q 75 649 75 604 q 136 760 75 694 q 278 825 197 825 q 423 758 361 825 q 485 604 485 692 q 428 449 485 511 q 283 386 371 386 q 137 450 199 386 q 75 604 75 514 m 797 806 l 879 747 l 311 -53 l 231 8 l 797 806 m 331 485 q 372 589 372 522 q 342 684 372 643 q 264 725 313 725 q 222 717 246 725 q 186 618 186 678 q 216 522 186 564 q 299 481 246 481 l 331 485 m 661 183 q 722 338 661 272 q 864 403 782 403 q 1009 338 947 403 q 1071 183 1071 272 q 1014 26 1071 89 q 869 -36 957 -36 q 722 28 783 -36 q 661 183 661 93 m 1158 183 q 1219 338 1158 272 q 1361 403 1279 403 q 1506 338 1444 403 q 1568 183 1568 272 q 1511 26 1568 89 q 1367 -36 1454 -36 q 1219 28 1281 -36 q 1158 183 1158 93 m 917 64 q 958 167 958 101 q 928 263 958 221 q 850 304 899 304 q 808 296 832 304 q 772 196 772 258 q 802 100 772 140 q 885 60 832 60 l 917 64 m 1414 64 q 1456 167 1456 101 q 1426 263 1456 221 q 1347 304 1396 304 q 1306 296 1329 304 q 1269 196 1269 257 q 1299 100 1269 140 q 1382 60 1329 60 l 1414 64 z "},"‹":{"ha":460,"x_min":81,"x_max":379,"o":"m 282 649 l 372 596 l 236 351 l 379 119 l 288 58 l 81 315 l 81 389 l 282 649 z "},"›":{"ha":460,"x_min":81,"x_max":379,"o":"m 379 315 l 172 58 l 81 119 l 225 351 l 89 596 l 179 649 l 379 389 l 379 315 z "},"⁄":{"ha":199,"x_min":-310,"x_max":565,"o":"m 494 935 l 565 863 l -236 25 l -310 94 l 494 935 z "},"€":{"ha":854,"x_min":-42,"x_max":824,"o":"m 793 158 l 822 78 l 565 -29 q 281 60 389 -26 q 135 286 172 146 l -33 286 l -42 315 l 8 371 l 119 371 l 117 433 l 119 485 l 3 485 l -6 514 l 44 569 l 132 569 q 276 828 167 726 q 560 931 385 931 q 822 846 715 931 l 824 846 q 789 642 815 726 l 701 642 l 688 778 q 499 831 593 831 l 465 829 q 304 569 344 754 l 744 569 l 753 540 l 704 485 l 293 485 l 292 443 l 296 371 l 689 371 l 697 342 l 647 286 l 315 286 q 590 101 378 113 l 793 158 z "},"₽":{"ha":871,"x_min":40,"x_max":822,"o":"m 328 335 l 328 264 l 519 264 l 525 219 l 468 181 l 328 181 l 328 90 l 493 68 l 492 0 l 51 0 l 43 44 q 158 93 93 71 l 158 181 l 49 181 l 40 224 l 100 264 l 158 264 l 158 338 l 49 338 l 40 381 l 100 428 l 158 428 l 158 829 l 58 839 l 60 908 l 478 919 q 726 836 629 919 q 822 625 822 753 q 731 419 822 503 q 496 335 640 336 l 328 335 m 328 815 l 328 429 l 454 429 q 596 486 549 429 q 643 626 643 543 q 617 747 643 690 q 546 828 592 804 l 328 815 z "},"™":{"ha":1083,"x_min":8,"x_max":1044,"o":"m 431 1025 q 428 949 433 1004 q 418 871 424 894 l 356 871 l 340 964 l 278 968 l 278 665 l 343 656 l 342 624 l 107 624 l 103 643 l 164 674 l 164 968 l 101 964 l 86 871 l 24 871 q 13 948 17 893 q 11 1025 8 1003 l 222 1022 l 429 1025 l 431 1025 m 1044 656 l 1044 624 l 832 624 l 829 643 q 883 672 853 660 l 879 828 l 886 926 l 776 636 l 776 633 l 694 619 l 581 922 l 589 829 l 586 664 l 640 656 l 640 624 l 456 624 l 453 643 l 508 674 l 518 981 l 468 989 l 468 1021 l 653 1021 l 758 735 l 867 1021 l 1025 1021 l 1029 1001 l 979 974 l 988 664 l 1044 656 z "},"Ω":{"ha":992,"x_min":53,"x_max":942,"o":"m 942 500 q 884 268 942 378 q 722 83 826 158 l 914 68 l 913 0 l 564 0 l 564 96 q 724 272 669 161 q 779 503 779 383 q 702 743 779 650 q 499 836 625 836 q 305 747 378 836 q 232 513 232 657 q 292 276 232 389 q 464 101 351 163 l 464 0 l 99 0 l 90 44 q 290 86 165 71 q 114 261 175 158 q 53 488 53 364 q 182 802 53 674 q 503 931 311 931 q 817 806 692 931 q 942 500 942 682 z "},"∂":{"ha":833,"x_min":111,"x_max":761,"o":"m 290 1057 q 634 818 507 994 q 761 407 761 642 q 666 79 761 206 q 417 -47 571 -47 q 195 44 279 -47 q 111 281 111 136 q 210 544 111 435 q 446 654 310 654 l 583 603 q 461 834 546 735 q 258 972 376 933 l 290 1057 m 425 56 q 560 190 513 89 q 608 421 608 292 q 599 533 608 481 l 532 540 q 341 460 415 540 q 267 258 267 379 q 308 117 267 174 q 425 56 350 61 z "},"∆":{"ha":958,"x_min":56,"x_max":906,"o":"m 906 33 l 850 0 l 64 0 l 56 43 l 397 892 l 397 893 l 543 936 l 899 83 l 900 83 l 906 33 m 718 83 l 451 756 l 193 83 l 718 83 z "},"∏":{"ha":1108,"x_min":40,"x_max":1068,"o":"m 897 -53 l 1031 -71 l 1029 -139 l 618 -139 l 610 -94 l 728 -44 l 728 917 l 381 917 l 381 -54 l 513 -71 l 511 -139 l 101 -139 l 93 -94 l 211 -44 l 211 917 l 51 917 l 40 975 q 175 1021 114 1021 l 1063 1021 l 1068 964 l 1011 917 l 897 917 l 897 -53 z "},"∑":{"ha":853,"x_min":42,"x_max":800,"o":"m 781 111 q 800 -103 800 -3 l 799 -139 l 49 -139 l 47 -64 l 314 381 l 42 943 l 43 1021 l 768 1021 l 769 985 q 750 772 769 882 l 650 774 l 622 899 l 281 913 l 228 919 l 464 424 l 183 -46 l 272 -33 l 651 -19 l 681 108 l 781 111 z "},"−":{"ha":833,"x_min":81,"x_max":753,"o":"m 753 281 l 81 281 l 81 386 l 753 386 l 753 281 z "},"∕":{"ha":199,"x_min":-310,"x_max":565,"o":"m 494 935 l 565 863 l -236 25 l -310 94 l 494 935 z "},"∙":{"ha":315,"x_min":42,"x_max":242,"o":"m 154 243 q 42 331 79 275 q 133 442 83 414 q 242 354 192 418 q 154 243 217 286 z "},"√":{"ha":992,"x_min":35,"x_max":876,"o":"m 876 996 l 585 -92 q 431 -115 517 -119 l 232 496 l 100 410 l 35 492 l 224 653 l 331 653 l 500 89 l 753 1043 l 876 996 z "},"∞":{"ha":1038,"x_min":43,"x_max":1008,"o":"m 783 715 q 942 642 875 715 q 1008 463 1008 569 q 939 288 1008 356 q 767 221 869 221 q 628 263 686 221 q 514 381 571 306 q 281 225 421 225 q 114 294 185 225 q 43 465 43 363 q 116 644 43 572 q 290 717 189 717 q 424 675 365 717 q 543 561 483 633 q 783 715 650 715 m 313 361 q 465 447 403 361 q 267 596 358 596 q 210 582 238 596 q 174 490 174 539 q 211 397 174 433 q 313 361 249 361 m 833 350 q 874 451 874 390 q 841 547 874 504 q 754 589 808 589 q 594 494 671 589 q 699 376 658 411 q 786 342 739 342 q 833 350 808 342 z "},"∫":{"ha":458,"x_min":-58,"x_max":515,"o":"m 214 913 l 244 915 q 425 831 340 915 l 515 974 q 336 1043 428 1043 q 145 956 226 1043 q 64 743 64 869 l 249 -117 l 219 -119 q 110 -90 161 -119 q 33 -33 60 -60 l -58 -178 q 119 -246 35 -246 q 315 -159 232 -246 q 397 54 397 -72 l 214 913 z "},"≈":{"ha":765,"x_min":81,"x_max":692,"o":"m 81 418 q 178 547 140 507 q 251 586 215 586 q 340 560 283 586 q 528 467 397 535 l 646 564 l 692 524 q 594 385 628 424 q 531 346 561 346 q 387 403 499 346 q 251 460 275 460 q 139 374 217 460 l 81 418 m 81 171 q 178 299 140 260 q 251 339 215 339 q 340 313 283 339 q 528 219 397 288 l 646 317 l 692 276 q 594 138 628 176 q 531 99 561 99 q 387 156 499 99 q 251 213 275 213 q 139 126 217 213 l 81 171 z "},"≠":{"ha":817,"x_min":81,"x_max":736,"o":"m 515 422 l 422 271 l 736 271 l 736 169 l 360 169 l 235 -32 l 165 10 l 264 169 l 81 169 l 81 271 l 328 271 l 421 422 l 81 422 l 81 524 l 485 524 l 593 699 l 663 660 l 578 524 l 736 524 l 736 422 l 515 422 z "},"≤":{"ha":833,"x_min":81,"x_max":753,"o":"m 711 746 l 261 501 l 263 493 l 708 275 l 657 185 l 131 446 l 119 543 l 658 832 l 711 746 m 753 0 l 81 0 l 81 101 l 753 101 l 753 0 z "},"≥":{"ha":833,"x_min":81,"x_max":753,"o":"m 714 543 l 703 446 l 176 185 l 125 275 l 571 493 l 572 501 l 122 746 l 176 832 l 714 543 m 753 101 l 753 0 l 81 0 l 81 101 l 753 101 z "},"◊":{"ha":781,"x_min":64,"x_max":717,"o":"m 717 510 l 458 0 l 350 -11 l 64 511 l 322 1021 l 431 1032 l 717 510 m 582 510 l 383 876 l 375 875 l 199 511 l 399 144 l 407 146 l 582 510 z "},"́":{"ha":0,"x_min":-124,"x_max":197,"o":"m -124 810 l 79 1046 l 197 946 q -35 739 100 867 l -124 810 z "},"̆":{"ha":0,"x_min":-211,"x_max":214,"o":"m 214 983 q 153 822 211 879 q 7 765 94 765 q -139 820 -76 765 q -211 982 -201 875 l -104 996 q -1 871 -87 871 q 67 903 42 871 q 93 992 92 936 l 214 983 z "},"̌":{"ha":0,"x_min":-261,"x_max":236,"o":"m 1 856 l 154 1047 l 236 979 l 64 754 l -69 751 l -261 956 l -161 1046 l 1 856 z "},"̧":{"ha":0,"x_min":-118,"x_max":161,"o":"m -7 -81 q 116 -116 71 -81 q 161 -199 161 -151 q 94 -308 161 -262 q -97 -371 26 -354 l -118 -324 q -10 -267 -49 -301 q 28 -201 28 -233 q -78 -150 28 -142 l -115 -93 l -28 8 l 49 8 l -7 -81 z "},"̂":{"ha":0,"x_min":-236,"x_max":247,"o":"m -58 1008 l 71 1008 l 247 808 l 182 746 l 1 894 l -162 740 l -236 799 l -58 1008 z "},"̦":{"ha":0,"x_min":-96,"x_max":78,"o":"m 15 -86 q 78 -186 78 -121 q 43 -295 78 -237 q -33 -390 8 -353 l -96 -350 q -50 -246 -50 -289 q -85 -183 -50 -208 l -87 -143 l 15 -86 z "},"̈":{"ha":0,"x_min":-246,"x_max":247,"o":"m -54 867 q -140 764 -75 794 q -246 850 -215 786 q -157 969 -237 926 q -54 867 -71 936 m 247 867 q 160 764 226 794 q 54 850 85 786 q 144 969 65 926 q 247 867 231 936 z "},"̇":{"ha":0,"x_min":-96,"x_max":97,"o":"m 97 867 q 13 764 79 799 q -96 850 -65 785 q -6 969 -85 926 q 97 867 85 933 z "},"̣":{"ha":0,"x_min":-96,"x_max":97,"o":"m 97 -240 q 13 -342 78 -310 q -96 -256 -65 -322 q -6 -137 -85 -181 q 63 -181 33 -151 q 97 -240 92 -210 z "},"̀":{"ha":0,"x_min":-194,"x_max":126,"o":"m 38 739 q -194 946 -97 867 l -76 1046 l 126 810 l 38 739 z "},"̋":{"ha":0,"x_min":-217,"x_max":361,"o":"m -33 1046 l 96 971 q -129 740 7 886 l -217 801 l -33 1046 m 232 1046 l 361 971 q 136 740 272 886 l 49 801 l 232 1046 z "},"̱":{"ha":0,"x_min":-254,"x_max":249,"o":"m 242 -207 l 249 -264 l 183 -317 l -246 -317 l -254 -242 q -97 -207 -183 -207 l 242 -207 z "},"̄":{"ha":0,"x_min":-225,"x_max":269,"o":"m 263 893 l 269 836 l 204 783 l -217 783 l -225 858 q -68 893 -154 893 l 263 893 z "},"̨":{"ha":0,"x_min":-290,"x_max":56,"o":"m 4 22 q -167 -162 -167 -68 q -144 -219 -167 -197 q -83 -240 -122 -240 q 29 -206 -32 -240 l 56 -265 l -111 -346 q -238 -308 -186 -351 q -290 -199 -290 -265 q -224 -65 -290 -131 q -42 47 -158 1 l 4 22 z "},"̊":{"ha":0,"x_min":-157,"x_max":158,"o":"m -157 1143 q -112 1256 -157 1210 q 0 1301 -67 1301 q 113 1256 67 1301 q 158 1140 158 1210 q 115 1030 158 1072 q 6 988 72 988 q -110 1031 -62 988 q -157 1143 -157 1074 m -81 1126 q -81 1109 -81 1126 q -56 1069 -81 1092 q 3 1047 -32 1047 q 59 1069 38 1047 q 81 1125 81 1090 q 58 1184 81 1161 q 1 1207 35 1207 q -57 1184 -33 1207 q -81 1126 -81 1161 z "},"̃":{"ha":0,"x_min":-267,"x_max":292,"o":"m -267 815 q -164 954 -204 913 q -83 996 -124 996 q 128 874 -37 996 l 233 983 l 292 940 q 128 756 189 756 q 3 821 94 756 l -22 838 q -89 871 -71 871 q -207 768 -117 871 l -267 815 z "},"̒":{"ha":0,"x_min":-101,"x_max":125,"o":"m 125 1093 q 31 940 43 1032 l 106 879 q 72 808 100 842 q 7 760 44 774 q -101 901 -101 803 q -52 1039 -101 971 q 81 1150 -3 1107 l 125 1093 z "},"ऄ":{"ha":1085,"x_min":26,"x_max":1139,"o":"m 1121 747 l 894 747 l 967 690 l 967 -33 l 922 -50 l 815 14 l 815 319 q 761 310 786 310 q 664 332 717 310 q 681 242 681 286 q 615 81 681 144 q 443 17 549 17 q 230 95 338 17 q 26 375 122 174 l 106 424 q 242 216 171 285 q 400 147 313 147 q 514 188 472 147 q 556 288 556 229 q 531 369 556 331 q 460 422 507 407 l 315 343 l 232 479 q 385 538 294 532 q 476 613 446 569 q 507 696 507 656 q 471 768 507 742 q 349 740 419 774 q 218 650 279 707 l 133 764 q 378 879 249 879 q 550 808 475 879 q 625 653 625 738 q 538 485 625 556 l 571 461 q 694 426 626 426 q 815 465 768 426 l 815 747 l 694 747 l 640 828 l 658 867 l 828 867 q 719 993 818 969 l 554 1019 l 500 1033 q 331 1310 353 1079 l 414 1324 q 474 1206 428 1244 q 647 1156 521 1167 q 819 1113 774 1144 q 891 1023 865 1082 q 921 867 917 964 l 1085 867 l 1139 785 l 1121 747 z "},"अ":{"ha":1085,"x_min":26,"x_max":1139,"o":"m 1121 747 l 894 747 l 967 690 l 967 -33 l 922 -50 l 815 14 l 815 319 q 761 310 786 310 q 664 332 717 310 q 681 242 681 286 q 615 81 681 144 q 443 17 549 17 q 230 95 338 17 q 26 375 122 174 l 106 424 q 242 216 171 285 q 400 147 313 147 q 514 188 472 147 q 556 288 556 229 q 531 369 556 331 q 460 422 507 407 l 315 343 l 232 479 q 385 538 294 532 q 476 613 446 569 q 507 696 507 656 q 471 768 507 742 q 349 740 419 774 q 218 650 279 707 l 133 764 q 378 879 249 879 q 550 808 475 879 q 625 653 625 738 q 538 485 625 556 l 571 461 q 694 426 626 426 q 815 465 768 426 l 815 747 l 694 747 l 640 828 l 658 867 l 1085 867 l 1139 785 l 1121 747 z "},"आ":{"ha":1468,"x_min":26,"x_max":1522,"o":"m 1504 747 l 1278 747 l 1350 690 l 1350 -33 l 1306 -50 l 1199 14 l 1199 747 l 894 747 l 967 690 l 967 -33 l 922 -50 l 815 14 l 815 319 q 761 310 786 310 q 664 332 717 310 q 681 242 681 286 q 615 81 681 144 q 443 17 549 17 q 230 95 338 17 q 26 375 122 174 l 106 424 q 242 216 171 285 q 400 147 313 147 q 514 188 472 147 q 556 288 556 229 q 531 369 556 331 q 460 422 507 407 l 315 343 l 232 479 q 385 538 294 532 q 476 613 446 569 q 507 696 507 656 q 471 768 507 742 q 349 740 419 774 q 218 650 279 707 l 133 764 q 378 879 249 879 q 550 808 475 879 q 625 653 625 738 q 538 485 625 556 l 571 461 q 694 426 626 426 q 815 465 768 426 l 815 747 l 694 747 l 640 828 l 658 867 l 1469 867 l 1522 785 l 1504 747 z "},"इ":{"ha":769,"x_min":-54,"x_max":824,"o":"m 806 747 l 560 747 l 632 690 l 632 518 l 344 518 q 192 436 192 518 q 239 358 192 397 l 521 425 q 661 327 608 392 q 714 188 714 263 q 626 22 714 86 q 399 -49 539 -43 l 574 -211 l 447 -304 l 275 -35 q 115 44 189 -11 l 156 210 l 231 208 l 322 65 q 509 117 433 65 q 585 243 585 169 q 578 283 585 260 l 347 222 q 147 328 231 247 q 64 492 64 408 q 122 606 64 558 q 289 653 181 653 l 493 653 l 493 747 l 0 747 l -54 828 l -36 867 l 769 867 l 824 785 l 806 747 z "},"ई":{"ha":769,"x_min":-54,"x_max":824,"o":"m 806 747 l 560 747 l 632 690 l 632 518 l 344 518 q 192 436 192 518 q 239 358 192 397 l 521 425 q 661 327 608 392 q 714 188 714 263 q 626 22 714 86 q 399 -49 539 -43 l 574 -211 l 447 -304 l 275 -35 q 115 44 189 -11 l 156 210 l 231 208 l 322 65 q 509 117 433 65 q 585 243 585 169 q 578 283 585 260 l 347 222 q 147 328 231 247 q 64 492 64 408 q 122 606 64 558 q 289 653 181 653 l 493 653 l 493 747 l 0 747 l -54 828 l -36 867 l 481 867 q 357 1099 357 985 q 410 1229 357 1175 q 550 1283 464 1283 q 726 1214 654 1283 l 703 1138 q 608 1165 654 1165 q 518 1133 554 1165 q 482 1044 482 1100 q 569 867 482 958 l 769 867 l 824 785 l 806 747 z "},"उ":{"ha":763,"x_min":-54,"x_max":817,"o":"m 799 747 l 549 747 q 617 604 617 683 q 546 465 617 521 q 661 351 619 421 q 703 208 703 282 q 628 33 703 104 q 439 -37 553 -37 q 13 343 190 -37 l 94 390 q 403 104 226 104 q 519 145 474 104 q 565 249 565 186 q 535 341 565 297 q 453 400 506 385 l 308 322 l 225 461 q 388 521 292 518 q 481 644 481 567 q 425 747 481 707 l 0 747 l -54 828 l -36 867 l 763 867 l 817 785 l 799 747 z "},"ऊ":{"ha":1076,"x_min":-54,"x_max":1131,"o":"m 549 747 q 617 604 617 683 q 546 465 617 521 q 610 415 579 444 q 839 543 726 543 q 999 471 932 543 q 1065 304 1065 399 q 892 42 1065 165 l 789 156 q 953 363 953 285 q 935 407 953 389 q 885 425 917 425 q 689 293 797 425 q 703 208 703 247 q 628 33 703 104 q 439 -37 553 -37 q 13 343 190 -37 l 94 390 q 403 104 226 104 q 519 145 474 104 q 565 249 565 186 q 535 341 565 297 q 453 400 506 385 l 308 322 l 225 461 q 388 521 292 518 q 481 644 481 567 q 425 747 481 707 l 0 747 l -54 828 l -36 867 l 1076 867 l 1131 785 l 1113 747 l 549 747 z "},"ऋ":{"ha":1181,"x_min":-39,"x_max":1233,"o":"m 715 690 l 715 386 q 807 364 760 364 q 933 417 883 364 l 846 532 l 876 588 l 1031 583 q 1053 494 1053 547 q 1036 417 1053 453 q 1150 189 1150 279 q 1103 67 1150 124 q 964 -10 1056 10 l 889 79 l 900 119 q 1025 247 1025 157 q 994 338 1025 292 q 903 272 960 297 q 788 246 847 246 q 715 256 749 246 l 715 -33 l 671 -50 l 564 14 l 564 282 l 260 58 l 153 165 l 493 399 l 442 449 q 328 508 376 508 q 138 411 265 508 l 40 544 q 258 646 154 646 q 458 546 354 646 l 564 439 l 564 747 l 15 747 l -39 828 l -21 867 l 1181 867 l 1233 785 l 1215 747 l 643 747 l 715 690 z "},"ॠ":{"ha":1224,"x_min":-39,"x_max":1344,"o":"m 1344 -161 q 1151 -250 1261 -250 q 997 -192 1067 -250 q 928 -64 928 -133 q 933 -31 928 -46 q 824 106 824 28 q 1038 279 824 218 l 989 349 q 788 267 913 267 q 715 275 753 267 l 715 -33 l 671 -50 l 564 14 l 564 282 l 260 58 l 153 165 l 493 399 l 442 449 q 328 508 376 508 q 138 411 265 508 l 40 544 q 258 646 154 646 q 458 546 354 646 l 564 439 l 564 747 l 15 747 l -39 828 l -21 867 l 1226 867 l 1281 785 l 1263 747 l 643 747 l 715 690 l 715 394 q 801 376 753 376 q 932 425 881 376 l 846 543 l 876 599 l 1031 593 q 1053 503 1053 557 q 1038 428 1053 458 l 1165 231 l 1164 231 l 1139 175 q 992 127 1047 153 q 938 65 938 101 q 971 24 938 39 q 1171 114 1031 79 l 1238 31 l 1218 -11 q 1082 -58 1128 -29 q 1036 -112 1036 -86 q 1083 -146 1036 -146 q 1180 -117 1124 -146 q 1274 -50 1236 -89 l 1344 -161 z "},"ऌ":{"ha":1003,"x_min":-54,"x_max":1057,"o":"m 1039 747 l 683 747 l 756 690 l 756 585 q 879 490 832 557 q 926 347 926 424 q 898 230 926 286 q 797 83 869 174 q 724 -49 724 -8 q 742 -94 724 -76 q 786 -111 760 -111 q 931 29 856 -111 l 1038 -64 q 843 -219 969 -219 q 677 -146 754 -219 q 600 14 600 -72 q 622 98 600 58 q 690 196 644 138 q 761 295 738 253 q 785 386 785 338 q 760 465 785 432 q 693 497 736 497 q 588 419 631 497 q 544 233 544 342 l 547 183 l 514 165 l 403 242 l 400 292 q 422 425 400 365 q 321 461 375 461 q 231 422 267 461 q 196 325 196 383 q 263 174 196 247 q 453 19 329 101 l 393 -60 q 40 388 40 169 q 103 546 40 483 q 256 608 167 608 q 350 583 308 608 l 451 485 q 607 593 507 569 l 607 747 l 0 747 l -54 828 l -36 867 l 1004 867 l 1057 785 l 1039 747 z "},"ॡ":{"ha":1003,"x_min":-54,"x_max":1125,"o":"m 1125 -225 q 924 -364 1051 -364 q 780 -306 842 -364 q 718 -169 718 -247 q 597 3 597 -110 q 619 92 597 51 q 689 191 642 132 q 760 292 736 250 q 785 385 785 335 q 760 465 785 432 q 693 497 736 497 q 588 419 631 497 q 544 233 544 342 l 547 183 l 514 165 l 403 242 l 400 292 q 422 425 400 365 q 321 461 375 461 q 231 422 267 461 q 196 325 196 383 q 263 174 196 247 q 453 19 329 101 l 393 -60 q 40 388 40 169 q 103 546 40 483 q 256 608 167 608 q 350 583 308 608 l 451 485 q 607 593 507 569 l 607 747 l 0 747 l -54 828 l -36 867 l 1004 867 l 1057 785 l 1039 747 l 683 747 l 756 690 l 756 585 q 879 490 832 557 q 926 347 926 424 q 892 222 926 281 q 801 91 858 163 q 731 -4 743 19 q 719 -50 719 -28 q 746 -104 719 -85 q 899 13 789 -42 l 986 -56 l 979 -97 q 835 -229 835 -168 q 876 -267 835 -267 q 953 -233 910 -267 q 1035 -137 997 -200 l 1125 -225 z "},"ऍ":{"ha":793,"x_min":-54,"x_max":847,"o":"m 829 747 l 619 747 l 690 690 l 690 497 q 651 288 690 351 q 500 183 613 225 l 435 283 l 539 347 l 539 747 l 176 747 l 246 690 l 246 254 l 583 93 q 767 -21 714 31 q 819 -136 819 -72 q 771 -260 819 -204 l 631 -190 q 663 -112 663 -143 q 600 -33 663 -69 l 315 106 q 94 413 96 213 l 94 747 l 0 747 l -54 828 l -36 867 l 794 867 l 847 785 l 829 747 m 665 1160 q 585 1001 646 1058 q 439 944 525 944 q 271 1001 353 944 q 133 1164 189 1057 l 197 1221 q 393 1069 283 1069 q 542 1219 508 1069 l 665 1160 z "},"ऎ":{"ha":793,"x_min":-54,"x_max":847,"o":"m 829 747 l 619 747 l 690 690 l 690 497 q 651 288 690 351 q 500 183 613 225 l 435 283 l 539 347 l 539 747 l 176 747 l 246 690 l 246 254 l 583 93 q 767 -21 714 31 q 819 -136 819 -72 q 771 -260 819 -204 l 631 -190 q 663 -112 663 -143 q 600 -33 663 -69 l 315 106 q 94 413 96 213 l 94 747 l 0 747 l -54 828 l -36 867 l 518 867 q 410 993 508 969 l 244 1019 l 190 1033 q 21 1310 43 1079 l 104 1324 q 165 1206 118 1244 q 338 1156 211 1167 q 510 1113 464 1144 q 581 1023 556 1082 q 611 867 607 964 l 794 867 l 847 785 l 829 747 z "},"ए":{"ha":793,"x_min":-54,"x_max":847,"o":"m 829 747 l 619 747 l 690 690 l 690 497 q 651 288 690 351 q 500 183 613 225 l 435 283 l 539 347 l 539 747 l 176 747 l 246 690 l 246 254 l 583 93 q 767 -21 714 31 q 819 -136 819 -72 q 771 -260 819 -204 l 631 -190 q 663 -112 663 -143 q 600 -33 663 -69 l 315 106 q 94 413 96 213 l 94 747 l 0 747 l -54 828 l -36 867 l 794 867 l 847 785 l 829 747 z "},"ऐ":{"ha":793,"x_min":-54,"x_max":847,"o":"m 829 747 l 619 747 l 690 690 l 690 497 q 651 288 690 351 q 500 183 613 225 l 435 283 l 539 347 l 539 747 l 176 747 l 246 690 l 246 254 l 583 93 q 767 -21 714 31 q 819 -136 819 -72 q 771 -260 819 -204 l 631 -190 q 663 -112 663 -143 q 600 -33 663 -69 l 315 106 q 94 413 96 213 l 94 747 l 0 747 l -54 828 l -36 867 l 540 867 l 426 1033 q 279 1126 360 1126 q 122 1067 214 1126 l 39 1214 q 219 1281 132 1281 q 486 1100 364 1281 l 643 867 l 794 867 l 847 785 l 829 747 z "},"ऑ":{"ha":1468,"x_min":26,"x_max":1522,"o":"m 1094 932 q 1051 932 1094 932 q 926 988 1008 932 q 789 1151 844 1044 l 853 1208 q 1049 1057 939 1057 q 1197 1207 1164 1057 l 1321 1147 q 1241 989 1301 1046 q 1094 932 1181 932 m 1504 747 l 1278 747 l 1350 690 l 1350 -33 l 1306 -50 l 1199 14 l 1199 747 l 894 747 l 967 690 l 967 -33 l 922 -50 l 815 14 l 815 319 q 761 310 786 310 q 664 332 717 310 q 681 242 681 286 q 615 81 681 144 q 443 17 549 17 q 230 95 338 17 q 26 375 122 174 l 106 424 q 242 216 171 285 q 400 147 313 147 q 514 188 472 147 q 556 288 556 229 q 531 369 556 331 q 460 422 507 407 l 315 343 l 232 479 q 385 538 294 532 q 476 613 446 569 q 507 696 507 656 q 471 768 507 742 q 349 740 419 774 q 218 650 279 707 l 133 764 q 378 879 249 879 q 550 808 475 879 q 625 653 625 738 q 538 485 625 556 l 571 461 q 694 426 626 426 q 815 465 768 426 l 815 747 l 694 747 l 640 828 l 658 867 l 1469 867 l 1522 785 l 1504 747 z "},"ऒ":{"ha":1468,"x_min":26,"x_max":1522,"o":"m 1504 747 l 1278 747 l 1350 690 l 1350 -33 l 1306 -50 l 1199 14 l 1199 747 l 894 747 l 967 690 l 967 -33 l 922 -50 l 815 14 l 815 319 q 761 310 786 310 q 664 332 717 310 q 681 242 681 286 q 615 81 681 144 q 443 17 549 17 q 230 95 338 17 q 26 375 122 174 l 106 424 q 242 216 171 285 q 400 147 313 147 q 514 188 472 147 q 556 288 556 229 q 531 369 556 331 q 460 422 507 407 l 315 343 l 232 479 q 385 538 294 532 q 476 613 446 569 q 507 696 507 656 q 471 768 507 742 q 349 740 419 774 q 218 650 279 707 l 133 764 q 378 879 249 879 q 550 808 475 879 q 625 653 625 738 q 538 485 625 556 l 571 461 q 694 426 626 426 q 815 465 768 426 l 815 747 l 694 747 l 640 828 l 658 867 l 1228 867 q 1119 993 1218 969 l 954 1019 l 900 1033 q 731 1310 753 1079 l 814 1324 q 874 1206 828 1244 q 1047 1156 921 1167 q 1219 1113 1174 1144 q 1291 1023 1265 1082 q 1321 867 1317 964 l 1469 867 l 1522 785 l 1504 747 z "},"ओ":{"ha":1468,"x_min":26,"x_max":1522,"o":"m 1504 747 l 1278 747 l 1350 690 l 1350 -33 l 1306 -50 l 1199 14 l 1199 747 l 894 747 l 967 690 l 967 -33 l 922 -50 l 815 14 l 815 319 q 761 310 786 310 q 664 332 717 310 q 681 242 681 286 q 615 81 681 144 q 443 17 549 17 q 230 95 338 17 q 26 375 122 174 l 106 424 q 242 216 171 285 q 400 147 313 147 q 514 188 472 147 q 556 288 556 229 q 531 369 556 331 q 460 422 507 407 l 315 343 l 232 479 q 385 538 294 532 q 476 613 446 569 q 507 696 507 656 q 471 768 507 742 q 349 740 419 774 q 218 650 279 707 l 133 764 q 378 879 249 879 q 550 808 475 879 q 625 653 625 738 q 538 485 625 556 l 571 461 q 694 426 626 426 q 815 465 768 426 l 815 747 l 694 747 l 640 828 l 658 867 l 1182 867 l 1075 1024 q 924 1124 1006 1124 q 765 1064 860 1124 l 683 1210 q 863 1276 774 1276 q 1129 1096 1007 1276 l 1285 867 l 1469 867 l 1522 785 l 1504 747 z "},"ॲ":{"ha":1085,"x_min":26,"x_max":1139,"o":"m 1121 747 l 894 747 l 967 690 l 967 -33 l 922 -50 l 815 14 l 815 319 q 761 310 786 310 q 664 332 717 310 q 681 242 681 286 q 615 81 681 144 q 443 17 549 17 q 230 95 338 17 q 26 375 122 174 l 106 424 q 242 216 171 285 q 400 147 313 147 q 514 188 472 147 q 556 288 556 229 q 531 369 556 331 q 460 422 507 407 l 315 343 l 232 479 q 385 538 294 532 q 476 613 446 569 q 507 696 507 656 q 471 768 507 742 q 349 740 419 774 q 218 650 279 707 l 133 764 q 378 879 249 879 q 550 808 475 879 q 625 653 625 738 q 538 485 625 556 l 571 461 q 694 426 626 426 q 815 465 768 426 l 815 747 l 694 747 l 640 828 l 658 867 l 1085 867 l 1139 785 l 1121 747 m 1085 1139 q 1005 981 1065 1038 q 858 924 944 924 q 690 980 772 924 q 553 1143 608 1036 l 617 1200 q 813 1049 703 1049 q 961 1199 928 1049 l 1085 1139 z "},"ॳ":{"ha":1085,"x_min":26,"x_max":1139,"o":"m 1121 747 l 894 747 l 967 690 l 967 -33 l 922 -50 l 815 14 l 815 319 q 761 310 786 310 q 664 332 717 310 q 681 242 681 286 q 615 81 681 144 q 443 17 549 17 q 230 95 338 17 q 26 375 122 174 l 106 424 q 242 216 171 285 q 400 147 313 147 q 514 188 472 147 q 556 288 556 229 q 531 369 556 331 q 460 422 507 407 l 315 343 l 232 479 q 385 538 294 532 q 476 613 446 569 q 507 696 507 656 q 471 768 507 742 q 349 740 419 774 q 218 650 279 707 l 133 764 q 378 879 249 879 q 550 808 475 879 q 625 653 625 738 q 538 485 625 556 l 571 461 q 694 426 626 426 q 815 465 768 426 l 815 747 l 694 747 l 640 828 l 658 867 l 826 867 l 826 1104 l 932 1104 l 932 867 l 1085 867 l 1139 785 l 1121 747 z "},"ॴ":{"ha":1468,"x_min":26,"x_max":1522,"o":"m 1504 747 l 1278 747 l 1350 690 l 1350 -33 l 1306 -50 l 1199 14 l 1199 747 l 894 747 l 967 690 l 967 -33 l 922 -50 l 815 14 l 815 319 q 761 310 786 310 q 664 332 717 310 q 681 242 681 286 q 615 81 681 144 q 443 17 549 17 q 230 95 338 17 q 26 375 122 174 l 106 424 q 242 216 171 285 q 400 147 313 147 q 514 188 472 147 q 556 288 556 229 q 531 369 556 331 q 460 422 507 407 l 315 343 l 232 479 q 385 538 294 532 q 476 613 446 569 q 507 696 507 656 q 471 768 507 742 q 349 740 419 774 q 218 650 279 707 l 133 764 q 378 879 249 879 q 550 808 475 879 q 625 653 625 738 q 538 485 625 556 l 571 461 q 694 426 626 426 q 815 465 768 426 l 815 747 l 694 747 l 640 828 l 658 867 l 1208 867 l 1208 1104 l 1314 1104 l 1314 867 l 1469 867 l 1522 785 l 1504 747 z "},"ॵ":{"ha":1468,"x_min":26,"x_max":1522,"o":"m 1504 747 l 1278 747 l 1350 690 l 1350 -33 l 1306 -50 l 1199 14 l 1199 747 l 894 747 l 967 690 l 967 -33 l 922 -50 l 815 14 l 815 319 q 761 310 786 310 q 664 332 717 310 q 681 242 681 286 q 615 81 681 144 q 443 17 549 17 q 230 95 338 17 q 26 375 122 174 l 106 424 q 242 216 171 285 q 400 147 313 147 q 514 188 472 147 q 556 288 556 229 q 531 369 556 331 q 460 422 507 407 l 315 343 l 232 479 q 385 538 294 532 q 476 613 446 569 q 507 696 507 656 q 471 768 507 742 q 349 740 419 774 q 218 650 279 707 l 133 764 q 378 879 249 879 q 550 808 475 879 q 625 653 625 738 q 538 485 625 556 l 571 461 q 694 426 626 426 q 815 465 768 426 l 815 747 l 694 747 l 640 828 l 658 867 l 1217 867 q 1163 936 1201 919 q 1058 953 1125 953 l 965 953 q 701 1167 746 953 l 782 1199 q 832 1099 801 1128 q 915 1071 863 1071 l 986 1071 q 1168 1032 1114 1071 l 1175 1043 q 1126 1077 1149 1065 q 989 1135 1104 1089 q 878 1300 878 1179 q 893 1399 878 1342 l 981 1388 q 971 1326 971 1354 q 991 1270 971 1290 q 1156 1185 1011 1250 q 1318 917 1318 1111 l 1315 867 l 1469 867 l 1522 785 l 1504 747 z "},"ॶ":{"ha":1085,"x_min":26,"x_max":1139,"o":"m 1121 747 l 894 747 l 967 690 l 967 -33 l 922 -50 l 815 14 l 815 319 q 761 310 786 310 q 664 332 717 310 q 681 242 681 286 q 615 81 681 144 q 443 17 549 17 q 230 95 338 17 q 26 375 122 174 l 106 424 q 242 216 171 285 q 400 147 313 147 q 514 188 472 147 q 556 288 556 229 q 531 369 556 331 q 460 422 507 407 l 315 343 l 232 479 q 385 538 294 532 q 476 613 446 569 q 507 696 507 656 q 471 768 507 742 q 349 740 419 774 q 218 650 279 707 l 133 764 q 378 879 249 879 q 550 808 475 879 q 625 653 625 738 q 538 485 625 556 l 571 461 q 694 426 626 426 q 815 465 768 426 l 815 747 l 694 747 l 640 828 l 658 867 l 1085 867 l 1139 785 l 1121 747 m 413 -94 q 628 -182 514 -182 q 853 -92 760 -182 l 924 -201 q 821 -279 888 -250 q 681 -308 754 -308 q 507 -265 593 -308 q 372 -144 421 -222 l 413 -94 z "},"ॷ":{"ha":1085,"x_min":26,"x_max":1139,"o":"m 1121 747 l 894 747 l 967 690 l 967 -33 l 922 -50 l 815 14 l 815 319 q 761 310 786 310 q 664 332 717 310 q 681 242 681 286 q 615 81 681 144 q 443 17 549 17 q 230 95 338 17 q 26 375 122 174 l 106 424 q 242 216 171 285 q 400 147 313 147 q 514 188 472 147 q 556 288 556 229 q 531 369 556 331 q 460 422 507 407 l 315 343 l 232 479 q 385 538 294 532 q 476 613 446 569 q 507 696 507 656 q 471 768 507 742 q 349 740 419 774 q 218 650 279 707 l 133 764 q 378 879 249 879 q 550 808 475 879 q 625 653 625 738 q 538 485 625 556 l 571 461 q 694 426 626 426 q 815 465 768 426 l 815 747 l 694 747 l 640 828 l 658 867 l 1085 867 l 1139 785 l 1121 747 m 410 -331 q 625 -418 511 -418 q 850 -328 757 -418 l 921 -437 q 818 -515 885 -486 q 678 -544 751 -544 q 504 -501 590 -544 q 369 -381 418 -458 l 410 -331 m 410 -94 q 625 -182 511 -182 q 850 -92 757 -182 l 921 -201 q 818 -279 885 -250 q 678 -308 751 -308 q 504 -265 590 -308 q 369 -144 418 -222 l 410 -94 z "},"औ":{"ha":1468,"x_min":26,"x_max":1522,"o":"m 1504 747 l 1278 747 l 1350 690 l 1350 -33 l 1306 -50 l 1199 14 l 1199 747 l 894 747 l 967 690 l 967 -33 l 922 -50 l 815 14 l 815 319 q 761 310 786 310 q 664 332 717 310 q 681 242 681 286 q 615 81 681 144 q 443 17 549 17 q 230 95 338 17 q 26 375 122 174 l 106 424 q 242 216 171 285 q 400 147 313 147 q 514 188 472 147 q 556 288 556 229 q 531 369 556 331 q 460 422 507 407 l 315 343 l 232 479 q 385 538 294 532 q 476 613 446 569 q 507 696 507 656 q 471 768 507 742 q 349 740 419 774 q 218 650 279 707 l 133 764 q 378 879 249 879 q 550 808 475 879 q 625 653 625 738 q 538 485 625 556 l 571 461 q 694 426 626 426 q 815 465 768 426 l 815 747 l 694 747 l 640 828 l 658 867 l 1143 867 l 1044 947 q 903 1010 971 1010 q 751 956 839 1010 l 674 1089 q 839 1154 758 1154 q 1076 1026 949 1154 l 1235 868 l 1136 1108 q 958 1264 1067 1264 q 831 1233 904 1264 l 767 1382 q 919 1421 844 1421 q 1215 1131 1118 1421 l 1304 867 l 1469 867 l 1522 785 l 1504 747 z "},"क":{"ha":1049,"x_min":-54,"x_max":1103,"o":"m 1085 747 l 529 747 l 601 690 l 601 507 q 768 578 679 578 q 936 501 865 578 q 1007 318 1007 424 q 794 6 1007 146 l 686 122 q 883 360 883 263 q 803 442 883 442 q 601 304 714 442 l 601 -33 l 557 -50 l 450 14 l 450 167 q 342 136 400 136 q 131 221 229 136 q 32 415 32 306 q 97 567 32 506 q 253 628 161 628 q 313 621 288 628 l 450 553 l 450 747 l 0 747 l -54 828 l -36 867 l 1049 867 l 1103 785 l 1085 747 m 204 267 q 267 254 233 254 q 365 281 315 254 q 450 353 415 307 l 450 471 q 328 506 383 506 q 217 462 260 506 q 175 357 175 418 q 204 267 175 306 z "},"ख":{"ha":1135,"x_min":-54,"x_max":1188,"o":"m 1169 747 l 944 747 l 1017 690 l 1017 -33 l 972 -50 l 865 14 l 865 26 q 626 -40 764 -40 q 298 78 454 -40 q 68 388 142 197 l 104 471 l 271 471 q 283 540 283 500 l 282 747 l 0 747 l -54 828 l -36 867 l 1135 867 l 1188 785 l 1169 747 m 865 747 l 360 747 l 431 692 l 431 518 q 408 422 431 461 q 333 332 385 382 l 265 261 q 418 122 322 171 q 614 74 514 74 q 865 164 764 74 l 865 199 q 776 176 825 176 q 574 258 668 176 q 479 439 479 339 q 540 581 479 521 q 686 642 600 642 l 735 636 l 865 563 l 865 747 m 865 490 q 750 522 806 522 q 644 482 683 522 q 606 388 606 442 q 639 300 606 338 q 713 286 672 286 q 865 369 819 286 l 865 490 z "},"ग":{"ha":854,"x_min":-54,"x_max":908,"o":"m 890 747 l 664 747 l 736 690 l 736 -33 l 692 -50 l 585 14 l 585 747 l 268 747 l 340 690 l 340 197 l 268 164 q 136 260 201 196 q 50 388 71 325 l 92 449 l 192 449 l 189 747 l 0 747 l -54 828 l -36 867 l 854 867 l 908 785 l 890 747 z "},"घ":{"ha":931,"x_min":-61,"x_max":985,"o":"m 967 747 l 740 747 l 813 690 l 813 -33 l 768 -50 l 661 14 l 661 158 q 494 104 589 104 q 264 191 371 104 q 157 381 157 278 q 200 496 157 444 q 56 690 56 579 q 68 747 56 721 l -7 747 l -61 828 l -43 867 l 931 867 l 985 785 l 967 747 m 661 747 l 263 747 q 206 647 206 707 q 261 547 206 586 q 400 582 324 582 l 471 575 l 546 474 l 528 436 l 486 442 l 471 442 q 345 405 392 442 q 299 317 299 368 q 333 236 299 271 q 399 225 356 225 q 549 264 472 225 q 661 375 625 303 l 661 747 z "},"ङ":{"ha":963,"x_min":-54,"x_max":1017,"o":"m 1017 785 l 999 747 l 617 747 l 689 690 l 689 508 l 678 510 l 679 508 l 407 508 q 258 428 258 508 q 304 353 258 388 l 543 426 q 703 327 642 400 q 764 168 764 254 q 692 8 764 74 q 506 -57 619 -57 q 276 21 389 -57 q 46 275 164 99 l 111 328 q 449 81 274 81 q 583 125 528 81 q 638 232 638 169 q 624 285 638 261 l 411 213 q 214 319 299 238 q 129 483 129 401 q 188 597 129 550 q 350 644 246 644 l 550 644 l 550 747 l 0 747 l -54 828 l -36 867 l 963 867 l 1017 785 m 853 490 q 963 401 913 467 q 875 289 942 338 q 761 378 806 317 q 853 490 803 458 z "},"च":{"ha":938,"x_min":-54,"x_max":992,"o":"m 974 747 l 747 747 l 819 690 l 819 -33 l 775 -50 l 668 14 l 668 169 q 508 121 596 121 q 275 206 382 121 q 168 400 168 292 q 193 492 168 453 l 51 492 l 0 569 l 18 607 l 522 607 l 579 519 l 561 482 l 392 482 q 318 335 318 432 q 342 253 318 286 q 414 242 378 242 q 560 280 489 242 q 668 386 631 318 l 668 747 l 0 747 l -54 828 l -36 867 l 938 867 l 992 785 l 974 747 z "},"छ":{"ha":1046,"x_min":-54,"x_max":1100,"o":"m 1082 747 l 757 747 l 829 690 l 829 647 q 939 529 897 607 q 981 356 981 451 q 853 53 981 181 q 549 -74 726 -74 q 286 15 400 -74 q 172 211 172 103 q 197 297 172 260 q 46 504 46 394 q 99 620 46 572 q 254 668 151 668 l 381 668 l 450 564 l 429 529 l 319 529 q 181 447 181 529 q 247 351 181 400 q 393 394 308 394 q 475 385 436 394 l 549 283 l 521 244 q 446 256 476 256 q 351 226 385 256 q 317 153 317 197 q 371 54 317 92 q 457 40 410 40 q 649 87 561 40 q 790 211 736 133 q 528 510 528 363 q 573 625 528 575 q 690 681 618 675 l 690 747 l 0 747 l -54 828 l -36 867 l 1046 867 l 1100 785 l 1082 747 m 825 275 q 854 417 854 342 q 822 554 854 514 q 761 574 790 574 q 694 544 721 574 q 667 468 667 514 q 825 275 667 361 z "},"ज":{"ha":963,"x_min":-54,"x_max":1017,"o":"m 999 747 l 772 747 l 844 690 l 844 -33 l 800 -50 l 693 14 l 693 454 l 485 454 q 588 249 588 368 q 533 113 588 165 q 394 61 478 61 q 167 192 263 61 q 10 547 71 324 l 103 578 q 213 306 157 396 q 350 215 269 215 q 426 246 397 215 q 454 322 454 276 q 388 457 454 396 l 269 507 l 269 588 l 693 588 l 693 747 l 0 747 l -54 828 l -36 867 l 963 867 l 1017 785 l 999 747 z "},"झ":{"ha":1126,"x_min":-54,"x_max":1181,"o":"m 1163 747 l 936 747 l 1008 690 l 1008 -33 l 964 -50 l 857 14 l 857 268 q 796 258 829 258 q 693 279 749 258 q 714 188 714 236 q 626 22 714 86 q 399 -49 539 -43 l 574 -211 l 447 -304 l 275 -35 q 115 44 189 -11 l 156 210 l 231 208 l 322 65 q 509 117 433 65 q 585 243 585 169 q 578 283 585 260 l 347 222 q 147 328 231 247 q 64 492 64 408 q 122 606 64 558 q 289 653 181 653 l 493 653 l 493 747 l 0 747 l -54 828 l -36 867 l 1126 867 l 1181 785 l 1163 747 m 857 747 l 560 747 l 632 690 l 632 518 l 344 518 q 192 436 192 518 q 239 358 192 397 l 522 425 l 522 425 q 721 379 625 379 q 857 418 804 379 l 857 747 z "},"ञ":{"ha":1075,"x_min":-54,"x_max":1129,"o":"m 1111 747 l 885 747 l 957 690 l 957 -33 l 913 -50 l 806 14 l 806 294 q 692 319 754 294 q 608 168 679 225 q 442 111 538 111 q 213 197 332 111 q -10 465 94 283 l 64 518 q 223 318 149 385 q 386 251 297 251 q 508 296 463 251 q 554 401 554 340 q 526 487 554 449 q 453 539 499 525 l 314 424 l 214 553 q 408 639 297 639 q 584 574 503 639 q 686 413 665 508 l 736 408 q 806 419 772 408 l 806 747 l 0 747 l -54 828 l -36 867 l 1075 867 l 1129 785 l 1111 747 z "},"ट":{"ha":771,"x_min":-54,"x_max":825,"o":"m 807 747 l 525 747 l 597 690 l 597 418 l 599 417 l 379 417 q 245 376 292 417 q 199 274 199 335 q 268 136 199 197 q 372 118 314 118 q 519 150 447 118 q 638 240 590 182 l 735 119 q 609 15 683 50 q 461 -21 535 -21 q 278 26 372 -21 q 120 153 183 72 q 57 331 57 233 q 133 498 57 433 q 356 563 208 563 l 449 563 l 449 747 l 0 747 l -54 828 l -36 867 l 772 867 l 825 785 l 807 747 z "},"ठ":{"ha":832,"x_min":-54,"x_max":886,"o":"m 868 747 l 529 747 l 601 690 l 601 490 q 725 357 682 433 q 768 206 768 281 q 690 34 768 100 q 489 -32 611 -32 q 194 74 324 -32 q 65 322 65 181 q 144 495 65 429 q 364 561 222 561 l 453 561 l 453 747 l 0 747 l -54 828 l -36 867 l 832 867 l 886 785 l 868 747 m 418 89 q 567 140 508 89 q 625 267 625 192 q 558 417 625 344 l 397 417 q 256 374 304 417 q 207 267 207 331 q 281 122 207 185 q 418 89 351 89 z "},"ड":{"ha":836,"x_min":-54,"x_max":890,"o":"m 872 747 l 624 747 l 696 690 l 696 506 l 393 506 q 258 426 258 506 q 304 346 258 382 l 546 415 q 709 316 647 389 q 771 157 771 243 q 696 -3 771 61 q 506 -67 621 -67 q 38 269 258 -67 l 103 321 q 454 71 260 71 q 590 115 536 71 q 644 221 644 158 q 632 274 644 249 l 414 203 q 213 310 297 228 q 128 481 128 393 q 187 599 128 550 q 363 647 246 647 l 557 647 l 557 747 l 0 747 l -54 828 l -36 867 l 838 867 l 890 785 l 872 747 z "},"ढ":{"ha":807,"x_min":-54,"x_max":861,"o":"m 843 747 l 578 747 l 650 690 l 650 458 l 403 458 q 254 406 307 458 q 201 279 201 353 q 285 107 201 182 q 456 68 378 68 l 478 69 l 406 117 q 375 218 375 165 q 422 331 375 286 q 539 375 468 375 q 694 303 628 375 q 760 144 760 232 q 690 -3 760 56 q 508 -62 619 -62 q 199 62 338 -62 q 60 336 60 186 q 142 526 60 453 q 363 603 225 600 l 507 603 l 507 747 l 0 747 l -54 828 l -36 867 l 807 867 l 861 785 l 843 747 m 511 175 q 542 81 511 129 q 626 128 594 96 q 658 201 658 160 q 640 254 658 233 q 593 275 621 275 q 536 249 561 275 q 511 175 511 222 z "},"ण":{"ha":972,"x_min":-61,"x_max":1026,"o":"m 1008 747 l 782 747 l 854 690 l 854 -33 l 810 -50 l 703 14 l 703 747 l 481 747 l 553 690 l 553 415 q 503 240 553 292 q 378 189 453 189 q 179 285 276 189 q 82 488 82 381 l 82 747 l -7 747 l -61 828 l -43 867 l 972 867 l 1026 785 l 1008 747 m 404 747 l 160 747 l 229 690 l 229 356 q 317 308 258 308 q 404 426 404 308 l 404 747 z "},"त":{"ha":824,"x_min":-54,"x_max":878,"o":"m 860 747 l 633 747 l 706 690 l 706 -33 l 661 -50 l 554 14 l 554 438 l 394 438 q 200 303 200 438 q 386 10 200 196 l 314 -57 q 119 167 188 64 q 51 364 51 271 q 122 521 51 458 q 335 583 193 583 l 554 583 l 554 747 l 0 747 l -54 828 l -36 867 l 825 867 l 878 785 l 860 747 z "},"थ":{"ha":883,"x_min":64,"x_max":936,"o":"m 918 747 l 693 747 l 765 690 l 765 -33 l 721 -50 l 614 14 l 614 164 q 465 119 551 119 q 237 209 350 119 q 64 440 124 299 l 85 497 q 288 560 213 510 q 363 688 363 611 q 314 793 363 753 l 289 796 q 228 772 253 796 q 203 713 203 747 q 267 618 203 664 l 217 568 q 71 757 71 664 q 117 858 71 817 q 231 899 163 899 q 411 815 331 899 q 493 624 492 732 q 422 468 493 538 q 233 372 350 399 q 304 249 260 293 q 368 240 333 240 q 512 276 443 240 q 614 379 581 311 l 614 747 l 528 747 l 474 828 l 492 867 l 882 867 l 936 785 l 918 747 z "},"द":{"ha":788,"x_min":-54,"x_max":842,"o":"m 824 747 l 549 747 l 621 690 l 621 446 l 392 446 q 256 401 310 446 q 203 286 203 356 q 286 139 203 194 q 376 122 331 122 q 514 160 453 122 l 492 283 l 600 331 l 740 161 q 647 47 715 97 l 776 -206 l 622 -267 l 558 1 q 469 -12 517 -12 q 284 36 381 -12 q 123 167 188 85 q 58 344 58 249 q 136 519 58 451 q 344 590 214 588 l 474 590 l 474 747 l 0 747 l -54 828 l -36 867 l 788 867 l 842 785 l 824 747 z "},"ध":{"ha":935,"x_min":49,"x_max":989,"o":"m 971 747 l 744 747 l 817 690 l 817 -33 l 772 -50 l 665 14 l 665 163 q 493 104 590 104 q 263 191 369 104 q 156 381 156 278 q 207 506 156 451 q 49 733 49 618 q 101 853 49 804 q 232 901 153 901 q 483 685 386 901 l 418 642 q 318 776 364 742 l 292 779 q 223 752 251 779 q 194 683 194 725 q 274 554 194 615 q 401 581 326 581 l 469 575 l 544 474 l 526 436 l 485 442 l 469 442 q 344 405 390 442 q 297 317 297 368 q 332 236 297 271 q 397 225 354 225 q 553 267 475 225 q 665 388 632 310 l 665 747 l 550 747 l 496 828 l 514 867 l 935 867 l 989 785 l 971 747 z "},"न":{"ha":790,"x_min":-54,"x_max":844,"o":"m 826 747 l 600 747 l 672 690 l 672 -33 l 628 -50 l 521 14 l 521 396 l 294 396 l 294 249 l 219 217 q 117 326 165 257 q 46 464 68 396 l 101 533 l 521 533 l 521 747 l 0 747 l -54 828 l -36 867 l 790 867 l 844 785 l 826 747 z "},"ऩ":{"ha":790,"x_min":-54,"x_max":844,"o":"m 826 747 l 600 747 l 672 690 l 672 -33 l 628 -50 l 521 14 l 521 396 l 294 396 l 294 249 l 219 217 q 117 326 165 257 q 46 464 68 396 l 101 533 l 521 533 l 521 747 l 0 747 l -54 828 l -36 867 l 790 867 l 844 785 l 826 747 m 314 -100 q 203 -15 250 -76 q 292 94 242 63 q 400 8 351 71 q 314 -100 375 -61 z "},"प":{"ha":799,"x_min":-54,"x_max":853,"o":"m 835 747 l 608 747 l 681 690 l 681 -33 l 636 -50 l 529 14 l 529 211 q 417 176 476 176 q 194 279 303 176 q 81 500 85 382 l 81 747 l 0 747 l -54 828 l -36 867 l 799 867 l 853 785 l 835 747 m 529 747 l 164 747 l 238 690 l 238 369 q 354 313 275 313 q 529 419 474 313 l 529 747 z "},"फ":{"ha":1086,"x_min":-54,"x_max":1140,"o":"m 1122 747 l 556 747 l 628 690 l 628 514 q 806 589 714 589 q 974 511 903 589 q 1046 331 1046 433 q 832 17 1046 160 l 724 135 q 872 262 822 206 q 922 372 922 318 q 842 453 922 453 q 628 314 746 453 l 628 -33 l 583 -50 l 476 14 l 476 210 q 403 194 442 194 q 180 304 286 194 q 74 542 74 414 l 74 747 l 0 747 l -54 828 l -36 867 l 1086 867 l 1140 785 l 1122 747 m 476 747 l 157 747 l 229 690 l 229 397 q 344 331 268 331 q 476 393 422 331 l 476 747 z "},"ब":{"ha":831,"x_min":-54,"x_max":885,"o":"m 867 747 l 640 747 l 713 690 l 713 -33 l 668 -50 l 561 14 l 561 151 q 407 108 493 108 q 158 202 274 108 q 42 419 42 296 q 115 583 42 517 q 293 650 188 650 q 364 642 328 650 l 561 546 l 561 747 l 0 747 l -54 828 l -36 867 l 831 867 l 885 785 l 867 747 m 489 271 q 561 343 532 299 l 561 460 q 364 522 454 522 l 333 521 l 489 271 m 228 247 q 329 224 268 224 q 424 239 374 224 l 261 496 q 186 360 186 450 q 228 247 186 297 z "},"भ":{"ha":929,"x_min":3,"x_max":979,"o":"m 961 747 l 736 747 l 808 690 l 808 -33 l 764 -50 l 657 14 l 657 299 l 425 299 l 425 168 l 353 135 q 222 237 292 165 q 129 372 153 308 l 169 432 l 274 432 l 272 692 q 232 793 269 763 q 163 772 190 796 q 135 714 135 749 q 203 615 135 656 l 153 561 q 3 758 3 657 q 48 859 3 819 q 158 899 93 899 q 336 812 256 899 q 419 622 417 725 l 419 432 l 657 432 l 657 747 l 536 747 l 482 828 l 500 867 l 926 867 l 979 785 l 961 747 z "},"म":{"ha":894,"x_min":-54,"x_max":949,"o":"m 931 747 l 704 747 l 776 690 l 776 -33 l 732 -50 l 625 14 l 625 289 l 358 289 l 358 160 l 286 126 q 156 228 225 157 q 63 364 86 300 l 103 425 l 206 425 l 192 747 l 0 747 l -54 828 l -36 867 l 894 867 l 949 785 l 931 747 m 625 747 l 272 747 l 344 690 l 349 425 l 625 425 l 625 747 z "},"य":{"ha":849,"x_min":-54,"x_max":903,"o":"m 885 747 l 658 747 l 731 690 l 731 -33 l 686 -50 l 579 14 l 579 163 q 436 119 518 119 q 208 209 321 119 q 35 440 94 299 l 56 497 q 224 538 175 513 q 274 611 274 563 q 164 747 274 675 l 0 747 l -54 828 l -36 867 l 849 867 l 903 785 l 885 747 m 579 747 l 288 747 q 413 553 413 658 q 207 372 413 411 q 275 249 232 293 q 340 240 304 240 q 478 275 411 240 q 579 376 546 310 l 579 747 z "},"र":{"ha":583,"x_min":-54,"x_max":638,"o":"m 619 747 l 346 747 l 419 692 l 419 507 q 381 397 419 449 q 274 285 343 344 l 583 54 l 585 17 l 485 -74 l 42 374 l 78 471 l 257 471 q 265 519 265 492 l 265 747 l 0 747 l -54 828 l -36 867 l 585 867 l 638 785 l 619 747 z "},"ऱ":{"ha":583,"x_min":-54,"x_max":638,"o":"m 619 747 l 346 747 l 419 692 l 419 507 q 381 397 419 449 q 274 285 343 344 l 583 54 l 585 17 l 485 -74 l 42 374 l 78 471 l 257 471 q 265 519 265 492 l 265 747 l 0 747 l -54 828 l -36 867 l 585 867 l 638 785 l 619 747 m 192 -158 q 81 -74 128 -135 q 169 36 119 4 q 278 -50 229 13 q 192 -158 253 -119 z "},"ल":{"ha":990,"x_min":-54,"x_max":1039,"o":"m 1021 747 l 794 747 l 867 690 l 867 -33 l 822 -50 l 715 14 l 715 493 q 586 402 636 478 q 533 213 536 326 l 493 196 l 383 274 q 417 422 388 360 q 321 461 372 461 q 232 427 269 461 q 194 332 194 393 q 262 177 194 253 q 453 19 329 101 l 393 -60 q 40 388 40 169 q 103 546 40 483 q 256 608 167 608 q 350 583 308 608 l 454 482 q 571 568 501 540 q 715 592 640 596 l 715 747 l 0 747 l -54 828 l -36 867 l 986 867 l 1039 785 l 1021 747 z "},"ळ":{"ha":1029,"x_min":-54,"x_max":1083,"o":"m 1065 747 l 725 747 l 797 690 l 797 576 q 933 448 878 536 q 989 251 989 360 q 919 56 989 133 q 747 -21 850 -21 q 631 10 688 -21 l 524 126 q 322 -19 431 -19 q 129 84 213 -19 q 46 322 46 188 q 115 521 46 440 q 283 601 183 601 q 388 576 338 601 l 525 429 q 646 582 588 550 l 646 747 l 0 747 l -54 828 l -36 867 l 1029 867 l 1083 785 l 1065 747 m 861 297 q 827 424 861 364 q 736 500 793 483 q 635 344 689 451 l 561 194 q 704 107 629 107 q 819 165 778 107 q 861 297 861 222 m 288 76 q 391 167 349 101 q 489 353 433 233 q 325 464 401 464 q 222 407 263 464 q 182 271 182 350 q 212 151 182 206 q 288 76 242 97 z "},"ऴ":{"ha":1029,"x_min":-54,"x_max":1083,"o":"m 1065 747 l 725 747 l 797 690 l 797 576 q 933 448 878 536 q 989 251 989 360 q 919 56 989 133 q 747 -21 850 -21 q 631 10 688 -21 l 524 126 q 322 -19 431 -19 q 129 84 213 -19 q 46 322 46 188 q 115 521 46 440 q 283 601 183 601 q 388 576 338 601 l 525 429 q 646 582 588 550 l 646 747 l 0 747 l -54 828 l -36 867 l 1029 867 l 1083 785 l 1065 747 m 861 297 q 827 424 861 364 q 736 500 793 483 q 635 344 689 451 l 561 194 q 704 107 629 107 q 819 165 778 107 q 861 297 861 222 m 288 76 q 391 167 349 101 q 489 353 433 233 q 325 464 401 464 q 222 407 263 464 q 182 271 182 350 q 212 151 182 206 q 288 76 242 97 m 536 -189 q 425 -104 472 -165 q 514 6 464 -26 q 622 -81 574 -18 q 536 -189 597 -150 z "},"व":{"ha":819,"x_min":-54,"x_max":874,"o":"m 856 747 l 629 747 l 701 690 l 701 -33 l 657 -50 l 550 14 l 550 158 q 406 114 485 114 q 158 206 274 114 q 42 417 42 297 q 115 578 42 513 q 293 644 189 644 q 364 636 328 644 l 550 549 l 550 747 l 0 747 l -54 828 l -36 867 l 819 867 l 874 785 l 856 747 m 232 253 q 313 236 264 236 q 445 267 378 236 q 550 353 513 299 l 550 460 q 372 514 458 514 q 240 467 288 514 q 193 356 193 419 q 232 253 193 299 z "},"श":{"ha":1071,"x_min":-54,"x_max":1125,"o":"m 1107 747 l 881 747 l 953 690 l 953 -33 l 908 -50 l 801 14 l 801 747 l 568 747 q 654 536 654 661 q 580 338 654 436 q 363 181 506 240 l 624 42 l 628 4 l 533 -87 l 256 140 l 233 139 q 89 182 132 139 l 138 349 l 190 361 l 261 290 q 413 375 349 321 q 203 476 285 400 q 122 649 122 553 q 150 747 122 703 l 0 747 l -54 828 l -36 867 l 1071 867 l 1125 785 l 1107 747 m 469 436 q 521 593 521 507 q 483 713 521 668 q 389 758 446 758 q 306 723 338 758 q 274 632 274 688 q 327 506 274 560 q 469 436 381 451 z "},"ष":{"ha":829,"x_min":-54,"x_max":883,"o":"m 865 747 l 639 747 l 711 690 l 711 -33 l 667 -50 l 560 14 l 560 207 q 436 171 506 171 q 198 272 310 171 q 81 497 86 374 l 81 747 l 0 747 l -54 828 l -36 867 l 829 867 l 883 785 l 865 747 m 560 747 l 296 747 l 551 418 l 560 436 l 560 747 m 372 303 q 506 351 450 303 l 233 704 l 233 369 q 372 303 274 303 z "},"स":{"ha":1006,"x_min":-58,"x_max":1060,"o":"m 1042 747 l 815 747 l 888 690 l 888 -33 l 843 -50 l 736 14 l 736 325 l 314 325 l 269 285 l 581 54 l 582 17 l 482 -74 l 39 374 l 75 471 l 253 471 q 261 519 261 492 l 261 747 l -4 747 l -58 828 l -40 867 l 1007 867 l 1060 785 l 1042 747 m 736 747 l 342 747 l 415 692 l 415 507 q 404 449 415 478 l 736 449 l 736 747 z "},"ह":{"ha":778,"x_min":-54,"x_max":832,"o":"m 814 747 l 594 747 l 667 690 l 667 517 l 342 517 q 207 440 207 517 q 235 382 207 408 q 400 419 306 419 q 626 347 535 419 q 717 169 717 275 q 596 -19 717 50 l 488 86 q 571 167 539 119 q 597 250 603 214 q 461 293 540 293 q 319 249 381 293 q 258 132 258 206 q 376 -40 258 29 q 679 -151 494 -110 l 646 -243 q 253 -83 400 -194 q 107 172 107 29 q 174 338 107 271 q 79 504 79 414 q 131 610 79 565 q 304 654 182 654 l 528 654 l 528 747 l 0 747 l -54 828 l -36 867 l 778 867 l 832 785 l 814 747 z "},"क़":{"ha":1049,"x_min":-54,"x_max":1103,"o":"m 251 -122 q 140 -37 188 -99 q 229 72 179 40 q 338 -14 289 49 q 251 -122 313 -83 m 1085 747 l 529 747 l 601 690 l 601 507 q 768 578 679 578 q 936 501 865 578 q 1007 318 1007 424 q 794 6 1007 146 l 686 122 q 883 360 883 263 q 803 442 883 442 q 601 304 714 442 l 601 -33 l 557 -50 l 450 14 l 450 167 q 342 136 400 136 q 131 221 229 136 q 32 415 32 306 q 97 567 32 506 q 253 628 161 628 q 313 621 288 628 l 450 553 l 450 747 l 0 747 l -54 828 l -36 867 l 1049 867 l 1103 785 l 1085 747 m 204 267 q 267 254 233 254 q 365 281 315 254 q 450 353 415 307 l 450 471 q 328 506 383 506 q 217 462 260 506 q 175 357 175 418 q 204 267 175 306 z "},"ख़":{"ha":1135,"x_min":-54,"x_max":1188,"o":"m 1169 747 l 944 747 l 1017 690 l 1017 -33 l 972 -50 l 865 14 l 865 26 q 626 -40 764 -40 q 298 78 454 -40 q 68 388 142 197 l 104 471 l 271 471 q 283 540 283 500 l 282 747 l 0 747 l -54 828 l -36 867 l 1135 867 l 1188 785 l 1169 747 m 865 747 l 360 747 l 431 692 l 431 518 q 408 422 431 461 q 333 332 385 382 l 265 261 q 418 122 322 171 q 614 74 514 74 q 865 164 764 74 l 865 199 q 776 176 825 176 q 574 258 668 176 q 479 439 479 339 q 540 581 479 521 q 686 642 600 642 l 735 636 l 865 563 l 865 747 m 865 490 q 750 522 806 522 q 644 482 683 522 q 606 388 606 442 q 639 300 606 338 q 713 286 672 286 q 865 369 819 286 l 865 490 m 265 -174 q 154 -89 201 -150 q 243 21 193 -11 q 351 -65 303 -3 q 265 -174 326 -135 z "},"ग़":{"ha":854,"x_min":-54,"x_max":908,"o":"m 890 747 l 664 747 l 736 690 l 736 -33 l 692 -50 l 585 14 l 585 747 l 268 747 l 340 690 l 340 197 l 268 164 q 136 260 201 196 q 50 388 71 325 l 92 449 l 192 449 l 189 747 l 0 747 l -54 828 l -36 867 l 854 867 l 908 785 l 890 747 m 382 -121 q 271 -36 318 -97 q 360 74 310 42 q 468 -12 419 50 q 382 -121 443 -82 z "},"ज़":{"ha":963,"x_min":-54,"x_max":1017,"o":"m 999 747 l 772 747 l 844 690 l 844 -33 l 800 -50 l 693 14 l 693 454 l 485 454 q 588 249 588 368 q 533 113 588 165 q 394 61 478 61 q 167 192 263 61 q 10 547 71 324 l 103 578 q 213 306 157 396 q 350 215 269 215 q 426 246 397 215 q 454 322 454 276 q 388 457 454 396 l 269 507 l 269 588 l 693 588 l 693 747 l 0 747 l -54 828 l -36 867 l 963 867 l 1017 785 l 999 747 m 446 -176 q 335 -92 382 -153 q 424 18 374 -14 q 532 -68 483 -6 q 446 -176 507 -137 z "},"ड़":{"ha":836,"x_min":-54,"x_max":890,"o":"m 872 747 l 624 747 l 696 690 l 696 506 l 393 506 q 258 426 258 506 q 304 346 258 382 l 546 415 q 709 316 647 389 q 771 157 771 243 q 696 -3 771 61 q 506 -67 621 -67 q 38 269 258 -67 l 103 321 q 454 71 260 71 q 590 115 536 71 q 644 221 644 158 q 632 274 644 249 l 414 203 q 213 310 297 228 q 128 481 128 393 q 187 599 128 550 q 363 647 246 647 l 557 647 l 557 747 l 0 747 l -54 828 l -36 867 l 838 867 l 890 785 l 872 747 m 499 -296 q 388 -211 435 -272 q 476 -101 426 -133 q 585 -187 536 -125 q 499 -296 560 -257 z "},"ढ़":{"ha":807,"x_min":-54,"x_max":861,"o":"m 843 747 l 578 747 l 650 690 l 650 458 l 403 458 q 254 406 307 458 q 201 279 201 353 q 285 107 201 182 q 456 68 378 68 l 478 69 l 406 117 q 375 218 375 165 q 422 331 375 286 q 539 375 468 375 q 694 303 628 375 q 760 144 760 232 q 690 -3 760 56 q 508 -62 619 -62 q 199 62 338 -62 q 60 336 60 186 q 142 526 60 453 q 363 603 225 600 l 507 603 l 507 747 l 0 747 l -54 828 l -36 867 l 807 867 l 861 785 l 843 747 m 511 175 q 542 81 511 129 q 626 128 594 96 q 658 201 658 160 q 640 254 658 233 q 593 275 621 275 q 536 249 561 275 q 511 175 511 222 m 494 -287 q 383 -203 431 -264 q 472 -93 422 -125 q 581 -179 532 -117 q 494 -287 556 -249 z "},"फ़":{"ha":1086,"x_min":-54,"x_max":1140,"o":"m 1122 747 l 556 747 l 628 690 l 628 514 q 806 589 714 589 q 974 511 903 589 q 1046 331 1046 433 q 832 17 1046 160 l 724 135 q 872 262 822 206 q 922 372 922 318 q 842 453 922 453 q 628 314 746 453 l 628 -33 l 583 -50 l 476 14 l 476 210 q 403 194 442 194 q 180 304 286 194 q 74 542 74 414 l 74 747 l 0 747 l -54 828 l -36 867 l 1086 867 l 1140 785 l 1122 747 m 476 747 l 157 747 l 229 690 l 229 397 q 344 331 268 331 q 476 393 422 331 l 476 747 m 276 -81 q 165 4 213 -57 q 254 114 204 82 q 363 28 314 90 q 276 -81 338 -42 z "},"य़":{"ha":849,"x_min":-54,"x_max":903,"o":"m 885 747 l 658 747 l 731 690 l 731 -33 l 686 -50 l 579 14 l 579 163 q 436 119 518 119 q 208 209 321 119 q 35 440 94 299 l 56 497 q 224 538 175 513 q 274 611 274 563 q 164 747 274 675 l 0 747 l -54 828 l -36 867 l 849 867 l 903 785 l 885 747 m 579 747 l 288 747 q 413 553 413 658 q 207 372 413 411 q 275 249 232 293 q 340 240 304 240 q 478 275 411 240 q 579 376 546 310 l 579 747 m 301 -112 q 190 -28 238 -89 q 279 82 229 50 q 388 -4 339 58 q 301 -112 363 -74 z "},"ॹ":{"ha":963,"x_min":-54,"x_max":1017,"o":"m 999 747 l 772 747 l 844 690 l 844 -33 l 800 -50 l 693 14 l 693 454 l 485 454 q 588 249 588 368 q 533 113 588 165 q 394 61 478 61 q 167 192 263 61 q 10 547 71 324 l 103 578 q 213 306 157 396 q 350 215 269 215 q 426 246 397 215 q 454 322 454 276 q 388 457 454 396 l 269 507 l 269 588 l 693 588 l 693 747 l 0 747 l -54 828 l -36 867 l 963 867 l 1017 785 l 999 747 m 290 -176 q 179 -92 226 -153 q 268 18 218 -14 q 376 -68 328 -6 q 290 -176 351 -137 m 425 -328 q 314 -243 361 -304 q 403 -133 353 -165 q 511 -219 463 -157 q 425 -328 486 -289 m 544 -176 q 433 -92 481 -153 q 522 18 472 -14 q 631 -68 582 -6 q 544 -176 606 -137 z "},"ॺ":{"ha":849,"x_min":-54,"x_max":903,"o":"m 885 747 l 658 747 l 731 690 l 731 -33 l 686 -50 l 579 14 l 579 163 q 436 119 518 119 q 208 209 321 119 q 35 440 94 299 l 56 497 q 224 538 175 513 q 274 611 274 563 q 164 747 274 675 l 0 747 l -54 828 l -36 867 l 849 867 l 903 785 l 885 747 m 288 747 q 413 553 413 658 l 411 531 l 579 376 l 579 747 l 288 747 m 275 249 q 339 239 308 239 q 528 308 450 239 l 374 450 q 207 372 318 393 q 275 249 232 293 z "},"ॻ":{"ha":854,"x_min":-54,"x_max":908,"o":"m 890 747 l 664 747 l 736 690 l 736 -117 l 704 -154 l 161 -154 l 107 -74 l 125 -36 l 585 -36 l 585 747 l 268 747 l 340 690 l 340 197 l 268 164 q 136 260 201 196 q 50 388 71 325 l 92 449 l 192 449 l 189 747 l 0 747 l -54 828 l -36 867 l 854 867 l 908 785 l 890 747 z "},"ॼ":{"ha":963,"x_min":-54,"x_max":1017,"o":"m 999 747 l 772 747 l 844 690 l 844 -75 l 843 -75 l 843 -117 l 811 -154 l 175 -154 l 121 -74 l 139 -36 l 693 -36 l 693 465 l 483 465 q 588 260 588 379 q 533 124 588 176 q 394 71 478 71 q 167 202 263 71 q 10 558 71 333 l 103 589 q 213 316 157 407 q 350 225 269 225 q 426 256 397 225 q 454 332 454 286 q 388 468 454 407 l 269 518 l 269 599 l 693 599 l 693 747 l 0 747 l -54 828 l -36 867 l 963 867 l 1017 785 l 999 747 z "},"ॾ":{"ha":836,"x_min":-54,"x_max":890,"o":"m 890 785 l 872 747 l 624 747 l 696 690 l 696 506 l 393 506 q 258 426 258 506 q 304 346 258 382 l 546 415 q 709 316 647 389 q 771 157 771 243 q 696 -3 771 61 q 506 -67 621 -67 q 38 269 258 -67 l 103 321 q 454 71 260 71 q 590 115 536 71 q 644 221 644 158 q 632 274 644 249 l 414 203 q 213 310 297 228 q 128 481 128 393 q 187 599 128 550 q 363 647 246 647 l 557 647 l 557 747 l 0 747 l -54 828 l -36 867 l 838 867 l 890 785 m 756 -126 l 810 -207 l 792 -244 l 190 -244 l 136 -164 l 154 -126 l 756 -126 z "},"ॿ":{"ha":831,"x_min":-54,"x_max":885,"o":"m 867 747 l 640 747 l 713 690 l 713 -117 l 681 -154 l 158 -154 l 104 -74 l 122 -36 l 561 -36 l 561 151 q 407 108 493 108 q 158 202 274 108 q 42 419 42 296 q 115 583 42 517 q 293 650 188 650 q 364 642 328 650 l 561 546 l 561 747 l 0 747 l -54 828 l -36 867 l 831 867 l 885 785 l 867 747 m 489 271 q 561 343 532 299 l 561 460 q 364 522 454 522 l 333 521 l 489 271 m 228 247 q 329 224 268 224 q 424 239 374 224 l 261 496 q 186 360 186 450 q 228 247 186 297 z "},"ऽ":{"ha":826,"x_min":114,"x_max":688,"o":"m 274 617 q 298 567 274 589 q 438 488 322 546 q 620 367 553 431 q 688 206 688 304 q 622 47 688 110 q 456 -15 557 -15 q 250 67 340 -15 q 114 275 160 150 l 203 333 q 426 113 285 113 q 519 144 482 113 q 557 226 557 175 q 475 346 557 296 l 275 458 q 146 640 146 539 q 203 758 146 711 q 381 804 261 804 l 603 804 l 658 710 l 636 672 l 383 672 q 274 617 274 669 z "},"ॽ":{"ha":764,"x_min":113,"x_max":663,"o":"m 663 576 q 422 297 663 388 l 422 -33 l 379 -50 l 281 14 l 281 413 q 464 494 401 435 q 526 625 526 554 q 474 743 526 693 l 457 744 q 321 713 401 744 q 183 635 240 681 l 113 767 q 361 869 242 869 q 571 782 479 869 q 663 576 663 694 z "},"ा":{"ha":383,"x_min":-54,"x_max":438,"o":"m 419 747 l 193 747 l 265 690 l 265 -33 l 221 -50 l 114 14 l 114 747 l 0 747 l -54 828 l -36 867 l 385 867 l 438 785 l 419 747 z "},"ि":{"ha":383,"x_min":-54,"x_max":964,"o":"m 394 1147 q 233 1103 296 1147 q 169 983 169 1058 q 211 867 169 932 l 385 867 l 438 785 l 419 747 l 197 747 l 269 690 l 269 -33 l 225 -50 l 118 14 l 118 747 l 0 747 l -54 828 l -36 867 l 115 867 q 31 1050 31 951 q 113 1218 31 1154 q 325 1282 196 1282 q 612 1207 450 1282 q 964 954 774 1132 l 914 894 q 632 1084 756 1021 q 394 1147 508 1147 z "},"ी":{"ha":383,"x_min":-394,"x_max":438,"o":"m 419 747 l 193 747 l 265 690 l 265 -33 l 221 -50 l 114 14 l 114 747 l 0 747 l -54 828 l -36 867 l 117 867 q 10 1087 71 1006 q -135 1168 -50 1168 q -227 1133 -192 1168 q -262 1049 -262 1097 q -219 932 -262 993 l -272 897 q -394 1115 -394 1001 q -335 1252 -394 1197 q -183 1307 -275 1307 q 60 1186 -44 1307 q 219 867 164 1065 l 385 867 l 438 785 l 419 747 z "},"ु":{"ha":0,"x_min":-685,"x_max":-17,"o":"m -408 -78 q -237 22 -349 22 q -83 -49 -149 22 q -17 -211 -17 -119 q -76 -348 -17 -294 q -225 -401 -136 -401 q -685 -97 -431 -401 l -621 -37 q -430 -218 -510 -160 q -272 -276 -350 -276 q -172 -240 -210 -276 q -133 -158 -133 -204 q -193 -68 -133 -99 l -308 -182 l -408 -78 z "},"ू":{"ha":0,"x_min":-469,"x_max":165,"o":"m -101 -310 q -251 -374 -172 -374 q -402 -309 -335 -374 q -469 -162 -469 -244 q -407 -31 -469 -86 q -262 25 -344 25 q 21 -164 -124 25 l 165 -365 l 97 -418 l -54 -219 q -229 -107 -146 -107 q -319 -140 -285 -107 q -354 -215 -354 -174 q -322 -282 -354 -254 l -178 -192 l -101 -310 z "},"ृ":{"ha":0,"x_min":-468,"x_max":13,"o":"m -118 -83 q -282 -140 -208 -100 q -356 -232 -356 -181 q -332 -276 -356 -260 q -271 -292 -308 -292 q -161 -264 -221 -292 q -57 -197 -101 -236 l 13 -324 q -201 -414 -83 -414 q -387 -345 -306 -414 q -468 -185 -468 -276 q -388 -35 -468 -97 q -147 44 -308 26 l -118 44 l -118 -83 z "},"ॄ":{"ha":0,"x_min":-436,"x_max":92,"o":"m 92 -417 q -101 -507 4 -507 q -256 -449 -186 -507 q -325 -321 -325 -390 q -317 -281 -325 -300 q -436 -142 -436 -225 q -161 49 -436 -12 l -118 49 l -118 -71 q -266 -119 -212 -94 q -319 -181 -319 -144 q -276 -228 -319 -211 q -83 -143 -215 -176 l -15 -226 l -35 -268 q -171 -315 -125 -286 q -217 -369 -217 -343 q -171 -403 -217 -403 q -73 -374 -129 -403 q 21 -307 -17 -344 l 92 -417 z "},"ॢ":{"ha":0,"x_min":-268,"x_max":269,"o":"m 269 -408 q 158 -489 231 -489 q 75 -453 113 -489 q 38 -371 38 -418 q 80 -280 38 -335 q 127 -213 122 -225 q 132 -187 132 -201 q 120 -149 132 -165 q 88 -132 108 -132 q 30 -170 54 -132 q 6 -264 6 -208 l 7 -289 l -69 -292 l -74 -243 q -64 -172 -74 -203 q -114 -150 -85 -150 q -158 -168 -140 -150 q -176 -218 -176 -186 q -60 -374 -176 -299 l -101 -419 q -268 -197 -268 -314 q -231 -102 -268 -142 q -139 -62 -194 -62 q -33 -115 -81 -62 q 72 -62 8 -62 q 169 -105 131 -62 q 208 -199 208 -147 q 158 -311 208 -251 q 107 -394 107 -371 q 139 -425 107 -425 q 178 -408 157 -425 q 213 -362 200 -390 l 269 -408 z "},"ॣ":{"ha":0,"x_min":-293,"x_max":293,"o":"m 293 -515 q 190 -575 251 -575 q 110 -546 147 -575 q 74 -475 74 -517 l 75 -458 q 14 -371 14 -429 q 56 -280 14 -335 q 103 -213 99 -225 q 108 -187 108 -201 q 97 -149 108 -165 q 64 -132 85 -132 q 6 -170 31 -132 q -18 -264 -18 -208 l -17 -289 l -93 -292 l -97 -243 q -87 -174 -97 -204 q -139 -150 -110 -150 q -183 -168 -165 -150 q -201 -218 -201 -186 q -85 -374 -201 -299 l -126 -419 q -293 -197 -293 -314 q -256 -102 -293 -142 q -164 -62 -219 -62 q -58 -115 -103 -62 q 49 -62 -17 -62 q 146 -105 107 -62 q 185 -199 185 -147 q 134 -311 185 -251 q 83 -394 83 -371 q 96 -419 83 -412 q 199 -367 129 -382 l 221 -432 q 155 -458 178 -440 q 132 -493 132 -476 q 164 -519 132 -519 q 249 -468 207 -519 l 293 -515 z "},"ॅ":{"ha":0,"x_min":-528,"x_max":4,"o":"m 4 1168 q -76 1010 -15 1067 q -222 953 -136 953 q -390 1009 -308 953 q -528 1172 -472 1065 l -464 1229 q -268 1078 -378 1078 q -119 1228 -153 1078 l 4 1168 z "},"ॆ":{"ha":0,"x_min":-746,"x_max":-156,"o":"m -662 1324 q -518 1168 -639 1193 l -349 1144 l -300 1132 q -156 849 -162 1089 l -247 849 q -356 993 -253 968 l -444 1007 q -588 1038 -532 1018 q -689 1120 -644 1057 q -746 1310 -733 1183 l -662 1324 z "},"े":{"ha":0,"x_min":-765,"x_max":-143,"o":"m -765 1214 q -585 1281 -672 1281 q -318 1100 -440 1281 l -143 840 l -218 799 l -378 1033 q -525 1126 -444 1126 q -682 1067 -590 1126 l -765 1214 z "},"ै":{"ha":0,"x_min":-781,"x_max":-135,"o":"m -135 826 l -214 786 l -410 979 q -546 1043 -475 1043 q -703 986 -612 1043 l -781 1119 q -607 1188 -693 1188 q -378 1058 -489 1188 l -221 876 l -315 1136 q -493 1296 -379 1296 q -624 1264 -547 1296 l -687 1414 q -533 1453 -610 1453 q -243 1171 -332 1453 l -135 826 z "},"ॉ":{"ha":383,"x_min":-296,"x_max":438,"o":"m 419 747 l 193 747 l 265 690 l 265 -33 l 221 -50 l 114 14 l 114 747 l 0 747 l -54 828 l -36 867 l 385 867 l 438 785 l 419 747 m 236 1147 q 156 989 217 1046 q 10 932 96 932 q -158 988 -76 932 q -296 1151 -240 1044 l -232 1208 q -36 1057 -146 1057 q 113 1207 79 1057 l 236 1147 z "},"ॊ":{"ha":383,"x_min":-354,"x_max":438,"o":"m 419 747 l 193 747 l 265 690 l 265 -33 l 221 -50 l 114 14 l 114 747 l 0 747 l -54 828 l -36 867 l 143 867 q 35 993 133 969 l -131 1019 l -185 1033 q -354 1310 -332 1079 l -271 1324 q -210 1206 -257 1244 q -37 1156 -164 1167 q 135 1113 89 1144 q 206 1023 181 1082 q 236 867 232 964 l 385 867 l 438 785 l 419 747 z "},"ो":{"ha":383,"x_min":-401,"x_max":438,"o":"m 419 747 l 193 747 l 265 690 l 265 -33 l 221 -50 l 114 14 l 114 747 l 0 747 l -54 828 l -36 867 l 97 867 l -10 1024 q -161 1124 -79 1124 q -319 1064 -225 1124 l -401 1210 q -222 1276 -311 1276 q 44 1096 -78 1276 l 200 867 l 385 867 l 438 785 l 419 747 z "},"ौ":{"ha":383,"x_min":-411,"x_max":438,"o":"m 419 747 l 193 747 l 265 690 l 265 -33 l 221 -50 l 114 14 l 114 747 l 0 747 l -54 828 l -36 867 l 58 867 l -40 947 q -182 1010 -114 1010 q -333 956 -246 1010 l -411 1089 q -246 1154 -326 1154 q -8 1026 -136 1154 l 150 868 l 51 1108 q -126 1264 -18 1264 q -254 1233 -181 1264 l -318 1382 q -165 1421 -240 1421 q 131 1131 33 1421 l 219 867 l 385 867 l 438 785 l 419 747 z "},"ॖ":{"ha":0,"x_min":-654,"x_max":-103,"o":"m -614 -94 q -399 -182 -512 -182 q -174 -92 -267 -182 l -103 -201 q -206 -279 -139 -250 q -346 -308 -272 -308 q -519 -265 -433 -308 q -654 -144 -606 -222 l -614 -94 z "},"ॗ":{"ha":0,"x_min":-654,"x_max":-103,"o":"m -614 -331 q -399 -418 -512 -418 q -174 -328 -267 -418 l -103 -437 q -206 -515 -139 -486 q -346 -544 -272 -544 q -519 -501 -433 -544 q -654 -381 -606 -458 l -614 -331 m -614 -94 q -399 -182 -512 -182 q -174 -92 -267 -182 l -103 -201 q -206 -279 -139 -250 q -346 -308 -272 -308 q -519 -265 -433 -308 q -654 -144 -606 -222 l -614 -94 z "},"ऺ":{"ha":0,"x_min":-258,"x_max":-153,"o":"m -153 786 l -189 772 l -258 811 l -258 1104 l -153 1104 l -153 786 z "},"ऻ":{"ha":383,"x_min":-54,"x_max":438,"o":"m 419 747 l 193 747 l 265 690 l 265 -33 l 221 -50 l 114 14 l 114 747 l 0 747 l -54 828 l -36 867 l 122 867 l 122 1104 l 228 1104 l 228 867 l 385 867 l 438 785 l 419 747 z "},"ॏ":{"ha":383,"x_min":-383,"x_max":438,"o":"m 419 747 l 193 747 l 265 690 l 265 -33 l 221 -50 l 114 14 l 114 747 l 0 747 l -54 828 l -36 867 l 132 867 q 78 936 117 919 q -26 953 40 953 l -119 953 q -383 1167 -339 953 l -303 1199 q -253 1099 -283 1128 q -169 1071 -222 1071 l -99 1071 q 83 1032 29 1071 l 90 1043 q 42 1077 64 1065 q -96 1135 19 1089 q -207 1300 -207 1179 q -192 1399 -207 1342 l -104 1388 q -114 1326 -114 1354 q -94 1270 -114 1290 q 71 1185 -74 1250 q 233 917 233 1111 l 231 867 l 385 867 l 438 785 l 419 747 z "},"ॕ":{"ha":460,"x_min":-71,"x_max":499,"o":"m 461 1168 q 381 1010 442 1067 q 235 953 321 953 q 67 1009 149 953 q -71 1172 -15 1065 l -7 1229 q 189 1078 79 1078 q 338 1228 304 1078 l 461 1168 m -54 828 l -36 867 l 444 867 l 499 785 l 481 747 l 0 747 l -54 828 z "},"्":{"ha":0,"x_min":-394,"x_max":135,"o":"m -171 -204 l -297 -262 l -394 -167 q -218 -97 -304 -97 q -76 -162 -153 -97 l 135 -360 l 74 -424 l -171 -204 z "},"ऀ":{"ha":0,"x_min":-565,"x_max":-19,"o":"m -565 1115 q -483 1274 -546 1217 q -332 1331 -419 1331 q -160 1274 -246 1331 q -19 1111 -75 1217 l -83 1054 q -286 1206 -168 1206 q -384 1169 -342 1206 q -442 1057 -426 1132 l -565 1115 m -264 1131 q -179 1024 -204 1090 q -285 939 -221 964 q -372 1046 -333 967 q -264 1131 -333 1101 z "},"ँ":{"ha":0,"x_min":-543,"x_max":3,"o":"m -271 1140 q -330 1176 -297 1150 q -379 1225 -362 1201 q -292 1332 -340 1304 q -186 1247 -228 1307 q -271 1140 -210 1181 m 3 1154 q -80 996 -17 1053 q -231 939 -143 939 q -402 996 -317 939 q -543 1158 -487 1053 l -479 1215 q -276 1064 -394 1064 q -178 1101 -221 1064 q -121 1214 -136 1139 l 3 1154 z "},"ं":{"ha":0,"x_min":-119,"x_max":92,"o":"m 0 978 q -65 1016 -28 989 q -119 1069 -101 1043 q -22 1186 -75 1156 q 92 1094 43 1161 q 0 978 63 1021 z "},"ः":{"ha":350,"x_min":64,"x_max":264,"o":"m 175 443 q 64 528 111 467 q 153 638 107 608 q 261 551 213 614 q 175 443 236 482 m 178 86 q 67 172 111 111 q 156 281 110 251 q 264 194 215 257 q 178 86 238 126 z "},"़":{"ha":0,"x_min":-97,"x_max":100,"o":"m 14 -285 q -97 -200 -50 -261 q -8 -90 -58 -122 q 100 -176 51 -114 q 14 -285 75 -246 z "},"॑":{"ha":0,"x_min":-256,"x_max":-151,"o":"m -151 985 l -186 971 l -256 1010 l -256 1339 l -219 1354 l -151 1314 l -151 985 z "},"॒":{"ha":0,"x_min":-510,"x_max":-71,"o":"m -510 -199 l -494 -162 l -110 -162 l -71 -232 l -85 -268 l -469 -268 l -510 -199 z "},"॓":{"ha":0,"x_min":-425,"x_max":-118,"o":"m -118 1017 l -165 961 l -200 961 l -425 1188 l -378 1244 l -342 1244 l -118 1017 z "},"॔":{"ha":0,"x_min":-321,"x_max":-11,"o":"m -271 965 l -321 1021 l -96 1240 l -60 1240 l -11 1178 l -235 965 l -271 965 z "},"ॱ":{"ha":433,"x_min":111,"x_max":322,"o":"m 231 706 q 166 744 203 717 q 111 797 129 771 q 208 914 156 883 q 322 822 274 889 q 231 706 293 749 z "},"०":{"ha":678,"x_min":49,"x_max":619,"o":"m 383 128 q 154 231 260 128 q 49 463 49 333 q 122 640 49 568 q 297 711 196 711 q 519 605 418 711 q 619 368 619 499 q 550 197 619 265 q 383 128 481 128 m 442 563 q 354 582 399 582 q 233 528 282 582 q 185 399 185 474 q 235 269 185 325 q 321 253 283 253 q 444 305 397 253 q 490 429 490 357 q 442 563 490 504 z "},"१":{"ha":618,"x_min":79,"x_max":550,"o":"m 550 28 q 508 -68 550 -21 l 368 -3 q 392 57 392 26 q 372 106 392 85 q 110 306 353 126 l 107 383 l 282 521 q 394 696 394 610 q 351 790 394 751 l 326 793 q 250 757 281 793 q 222 675 219 721 q 282 588 225 617 l 235 540 q 79 729 79 629 q 131 849 79 799 q 258 899 182 899 q 441 813 361 899 q 521 626 521 726 q 385 401 521 515 l 268 306 l 461 163 q 550 28 550 92 z "},"२":{"ha":717,"x_min":38,"x_max":668,"o":"m 668 35 l 668 -3 l 594 -61 l 240 253 q 147 270 194 256 q 79 306 100 285 l 132 476 l 183 488 l 256 403 q 430 494 369 431 q 490 639 490 558 q 411 785 490 731 q 126 656 275 782 l 38 786 q 164 867 90 835 q 311 899 238 899 q 534 806 439 899 q 629 590 629 713 q 558 403 629 489 q 360 278 486 318 l 668 35 z "},"३":{"ha":764,"x_min":40,"x_max":690,"o":"m 690 256 q 607 94 690 158 q 371 29 524 29 l 550 -139 l 551 -175 l 478 -229 l 261 33 q 169 67 218 42 q 99 117 121 93 l 161 265 l 215 275 l 289 161 l 344 157 q 492 199 433 157 q 551 300 551 240 q 517 378 551 343 q 417 431 483 414 l 236 358 l 156 496 q 328 549 228 549 l 357 547 q 481 689 481 593 q 424 788 481 756 q 276 750 360 788 q 129 657 192 713 l 40 786 q 172 867 93 835 q 324 899 250 899 q 528 824 442 899 q 615 651 615 749 q 521 486 615 553 q 690 256 690 393 z "},"४":{"ha":757,"x_min":-36,"x_max":738,"o":"m 738 768 q 454 468 546 574 q 610 174 610 299 q 558 38 610 90 q 428 -15 506 -15 q 247 65 331 -15 q 163 242 163 146 q 283 493 163 338 q -36 788 132 647 l 36 871 q 353 576 264 665 q 638 872 383 613 l 738 768 m 324 110 q 376 99 354 99 q 447 128 419 99 q 474 201 474 157 q 383 383 474 275 q 293 192 293 265 q 324 110 293 142 z "},"५":{"ha":749,"x_min":44,"x_max":718,"o":"m 718 6 l 701 -29 l 603 -54 l 515 276 q 347 194 449 194 q 163 274 251 194 q 44 532 44 374 q 149 882 44 689 l 289 825 q 186 467 186 600 q 206 365 186 406 q 294 326 243 326 q 388 360 343 326 q 453 447 432 393 l 410 593 l 446 636 l 611 588 q 576 413 614 503 l 718 6 z "},"६":{"ha":718,"x_min":54,"x_max":693,"o":"m 693 -136 l 682 -171 l 592 -192 l 533 43 q 432 28 481 28 q 195 117 301 28 q 89 321 89 207 q 178 499 89 432 q 54 693 54 585 q 130 839 54 782 q 324 896 206 896 q 551 838 449 896 l 550 701 q 351 757 446 757 q 232 727 278 757 q 186 647 186 697 q 257 539 186 586 q 390 558 315 558 q 544 540 463 558 l 550 400 q 425 414 483 414 q 271 375 321 414 q 221 276 221 336 q 275 164 221 207 q 340 156 304 156 q 493 192 429 156 l 479 282 l 540 313 l 679 178 q 606 82 663 126 l 693 -136 z "},"७":{"ha":838,"x_min":-14,"x_max":781,"o":"m 479 764 q 690 633 600 764 q 781 335 781 501 q 706 100 781 190 q 510 10 632 10 q 258 126 367 10 q 83 408 150 243 q -14 732 17 572 l 97 769 q 255 310 161 453 q 472 167 349 167 q 651 339 619 167 q 576 324 617 324 q 394 409 485 324 q 304 589 304 494 q 355 713 304 661 q 479 764 406 764 m 450 451 q 513 438 478 438 q 654 485 596 438 q 535 636 631 636 q 464 601 490 636 q 438 517 438 567 q 450 451 438 483 z "},"८":{"ha":625,"x_min":44,"x_max":601,"o":"m 169 260 q 208 167 169 201 q 300 133 246 133 q 500 271 411 133 l 601 168 q 353 1 499 1 q 140 97 236 1 q 44 303 44 192 q 140 526 44 406 l 401 856 l 493 731 l 244 418 q 169 260 169 319 z "},"९":{"ha":650,"x_min":18,"x_max":640,"o":"m 640 39 q 599 -58 640 -8 l 457 7 q 486 76 486 43 q 440 163 486 119 l 175 422 q 58 558 99 494 q 18 692 18 621 q 78 838 18 778 q 224 899 138 899 q 408 810 325 899 q 490 624 490 721 q 335 397 490 501 l 543 204 q 640 39 640 113 m 160 646 q 229 499 160 576 q 326 585 288 535 q 364 681 364 635 q 340 747 364 718 q 274 776 315 776 q 193 739 226 776 q 160 646 160 701 z "},"।":{"ha":631,"x_min":307,"x_max":456,"o":"m 456 -54 l 413 -71 l 307 11 l 307 882 l 351 899 l 456 817 l 456 -54 z "},"॥":{"ha":999,"x_min":307,"x_max":824,"o":"m 456 -54 l 413 -71 l 307 11 l 307 882 l 351 899 l 456 817 l 456 -54 m 824 -54 l 781 -71 l 675 11 l 675 882 l 719 899 l 824 817 l 824 -54 z "},"॰":{"ha":449,"x_min":107,"x_max":569,"o":"m 372 215 q 190 292 272 215 q 107 471 107 368 q 168 619 107 560 q 318 678 229 678 q 494 601 418 678 q 569 419 569 524 q 513 273 569 331 q 372 215 456 215 m 415 550 q 357 564 386 564 q 268 524 304 564 q 232 429 232 485 q 265 339 232 378 q 324 328 299 328 q 416 366 379 328 q 453 457 453 404 q 415 550 453 511 z "},"ꣻ":{"ha":383,"x_min":-54,"x_max":438,"o":"m -54 828 l -36 867 l 385 867 l 438 785 l 419 747 l 0 747 l -54 828 z "},"࿕":{"ha":1167,"x_min":149,"x_max":1014,"o":"m 658 496 l 936 496 l 1000 415 l 1000 7 l 957 -10 l 860 68 l 860 367 l 658 367 l 658 39 l 624 0 l 203 0 l 149 90 l 167 128 l 515 128 l 515 367 l 219 367 l 156 444 l 156 860 l 199 876 l 296 797 l 296 496 l 515 496 l 515 826 l 550 867 l 960 867 l 1014 776 l 996 739 l 658 739 l 658 496 z "},"ॐ":{"ha":1424,"x_min":21,"x_max":1406,"o":"m 789 1019 q 679 1104 722 1044 q 767 1211 718 1183 q 872 1126 831 1186 q 789 1019 850 1060 m 824 811 q 657 868 740 811 q 518 1031 574 925 l 582 1088 q 783 933 668 933 q 879 972 839 933 q 935 1086 919 1011 l 1057 1031 q 974 872 1039 932 q 824 811 910 811 m 1144 771 q 1330 690 1254 771 q 1406 497 1406 608 q 1321 280 1406 388 q 1110 114 1236 172 l 999 219 q 1198 374 1111 272 q 1285 558 1285 476 q 1257 635 1285 604 q 1185 667 1229 667 q 1057 571 1114 667 l 957 388 q 756 251 875 251 q 693 263 721 251 l 694 242 q 622 72 694 142 q 442 3 550 3 q 21 381 197 3 l 100 429 q 238 208 168 283 q 403 132 308 132 q 522 177 475 132 q 568 286 568 222 q 542 369 568 331 q 467 422 515 407 l 322 343 l 239 479 q 389 538 306 533 q 481 613 450 569 q 511 696 511 656 q 475 768 511 742 q 353 740 424 774 q 222 650 283 707 l 138 764 q 382 879 253 879 q 554 808 479 879 q 629 653 629 738 q 543 485 629 560 q 664 360 626 433 q 713 344 690 344 q 787 385 757 344 q 856 506 817 425 q 930 642 896 588 q 1017 733 964 696 q 1144 771 1071 771 z "},"◌":{"ha":1003,"x_min":138,"x_max":865,"o":"m 503 664 q 451 718 451 664 q 503 772 451 772 q 540 756 526 772 q 554 718 554 740 q 540 681 554 697 q 503 664 526 664 m 344 624 q 293 678 293 624 q 344 732 293 732 q 382 716 368 732 q 396 678 396 700 q 382 640 396 657 q 344 624 368 624 m 658 624 q 607 678 607 624 q 658 732 607 732 q 696 716 682 732 q 710 678 710 700 q 696 640 710 657 q 658 624 682 624 m 229 508 q 178 563 178 508 q 229 617 178 617 q 267 601 253 617 q 281 563 281 585 q 267 525 281 542 q 229 508 253 508 m 775 508 q 724 563 724 508 q 775 617 724 617 q 813 601 799 617 q 826 563 826 585 q 813 525 826 542 q 775 508 799 508 m 189 351 q 138 406 138 351 q 189 460 138 460 q 226 444 213 460 q 240 406 240 428 q 226 368 240 385 q 189 351 213 351 m 814 351 q 763 406 763 351 q 814 460 763 460 q 851 444 838 460 q 865 406 865 428 q 851 368 865 385 q 814 351 838 351 m 229 196 q 178 250 178 196 q 229 304 178 304 q 267 288 253 304 q 281 250 281 272 q 267 213 281 229 q 229 196 253 196 m 775 196 q 724 250 724 196 q 775 304 724 304 q 813 288 799 304 q 826 250 826 272 q 813 213 826 229 q 775 196 799 196 m 346 79 q 294 133 294 79 q 346 188 294 188 q 383 172 369 188 q 397 133 397 156 q 383 96 397 113 q 346 79 369 79 m 658 79 q 607 133 607 79 q 658 188 607 188 q 696 172 682 188 q 710 133 710 156 q 696 96 710 113 q 658 79 682 79 m 504 40 q 453 94 453 40 q 504 149 453 149 q 542 133 528 149 q 556 94 556 117 q 542 57 556 74 q 504 40 528 40 z "},"‌":{"ha":0,"x_min":-96,"x_max":94,"o":"m 0 1107 l 72 1181 l 94 1157 l 22 1086 l 94 1013 l 72 990 l 0 1063 l -74 989 l -96 1013 l -24 1086 l -96 1157 l -74 1182 l 0 1107 z "},"‍":{"ha":0,"x_min":-137,"x_max":139,"o":"m 107 1071 l -106 1071 l -106 1007 l -137 1007 l -137 1101 l 139 1101 l 139 1007 l 107 1007 l 107 1071 z "}}}
